SplineFontDB: 3.0
FontName: MScoreText
FullName: MScore Text
FamilyName: MScore Text
Weight: Book
Copyright: 
Version: 1.0
ItalicAngle: 0
UnderlinePosition: -48
UnderlineWidth: 48
Ascent: 800
Descent: 200
sfntRevision: 0x00010000
LayerCount: 2
Layer: 0 1 "Arri+AOgA-re"  1
Layer: 1 1 "Avant"  0
XUID: [1021 569 10812 21223]
FSType: 0
OS2Version: 3
OS2_WeightWidthSlopeOnly: 0
OS2_UseTypoMetrics: 1
CreationTime: 1403170689
ModificationTime: 1406542261
PfmFamily: 81
TTFWeight: 400
TTFWidth: 5
LineGap: 0
VLineGap: 0
Panose: 5 6 0 0 0 0 0 0 0 0
OS2TypoAscent: 800
OS2TypoAOffset: 0
OS2TypoDescent: -200
OS2TypoDOffset: 0
OS2TypoLinegap: 200
OS2WinAscent: 1130
OS2WinAOffset: 0
OS2WinDescent: 330
OS2WinDOffset: 0
HheadAscent: 1130
HheadAOffset: 0
HheadDescent: -330
HheadDOffset: 0
OS2SubXSize: 650
OS2SubYSize: 600
OS2SubXOff: 0
OS2SubYOff: 75
OS2SupXSize: 650
OS2SupYSize: 600
OS2SupXOff: 0
OS2SupYOff: 350
OS2StrikeYSize: 50
OS2StrikeYPos: 282
OS2Vendor: 'PfEd'
OS2CodePages: 00000001.00000000
OS2UnicodeRanges: 00000000.12004000.01000000.00000000
Lookup: 258 0 0 "'kern' Cr+AOkA-nage horizontal lookup0"  {"sous-table 'kern' Cr+AOkA-nage horizontal lookup0" [150,15,0] } ['kern' ('DFLT' <'dflt' > ) ]
MarkAttachClasses: 1
DEI: 91125
ShortTable: maxp 16
  1
  0
  271
  276
  7
  0
  0
  2
  0
  1
  1
  0
  64
  0
  0
  0
EndShort

StartChar: .notdef
Encoding: 65536 -1 0
Width: 362
Flags: W
LayerCount: 2
Fore
SplineSet
33 0 m 1,0,-1
 33 666 l 1,1,-1
 298 666 l 1,2,-1
 298 0 l 1,3,-1
 33 0 l 1,0,-1
66 33 m 1,4,-1
 265 33 l 1,5,-1
 265 633 l 1,6,-1
 66 633 l 1,7,-1
 66 33 l 1,4,-1
EndSplineSet
Validated: 1
EndChar

StartChar: plus
Encoding: 43 43 4
Width: 250
GlyphClass: 2
Flags: W
LayerCount: 2
Fore
SplineSet
125 125 m 128,-1,1
 115 125 115 125 107.5 133 c 128,-1,2
 100 141 100 141 100 150 c 2,3,-1
 100 225 l 1,4,-1
 25 225 l 2,5,6
 15 225 15 225 7.5 232.5 c 128,-1,7
 0 240 0 240 0 250 c 0,8,9
 0 261 0 261 7 268 c 0,10,11
 15 276 15 276 25 275 c 2,12,-1
 100 275 l 1,13,-1
 100 350 l 2,14,15
 100 360 100 360 107.5 367.5 c 128,-1,16
 115 375 115 375 125 375 c 128,-1,17
 135 375 135 375 142.5 367 c 128,-1,18
 150 359 150 359 150 350 c 2,19,-1
 150 275 l 1,20,-1
 225 275 l 2,21,22
 235 275 235 275 242.5 267.5 c 128,-1,23
 250 260 250 260 250 250 c 0,24,25
 250 239 250 239 243 232 c 0,26,27
 235 224 235 224 225 225 c 2,28,-1
 150 225 l 1,29,-1
 150 150 l 2,30,31
 150 140 150 140 142.5 132.5 c 128,-1,0
 135 125 135 125 125 125 c 128,-1,1
EndSplineSet
Validated: 1
EndChar

StartChar: comma
Encoding: 44 44 5
Width: 114
GlyphClass: 2
Flags: W
LayerCount: 2
Fore
SplineSet
66 -36 m 0,0,1
 66 -19 66 -19 56 -9 c 0,2,3
 46 1 46 1 33.5 6 c 128,-1,4
 21 11 21 11 11 23 c 0,5,6
 0 37 0 37 0 57 c 0,7,8
 0 79 0 79 17 98 c 0,9,10
 34 116 34 116 57 115 c 0,11,12
 82 115 82 115 98 98 c 1,13,14
 116 82 116 82 115 57 c 0,15,16
 115 -27 115 -27 57 -149 c 1,17,18
 52 -157 52 -157 45 -157 c 128,-1,19
 38 -157 38 -157 34 -153 c 0,20,21
 29 -148 29 -148 29 -143 c 0,22,23
 29 -138 29 -138 47.5 -99.5 c 128,-1,24
 66 -61 66 -61 66 -36 c 0,0,1
EndSplineSet
Validated: 33
EndChar

StartChar: hyphen
Encoding: 45 45 6
Width: 165
GlyphClass: 2
Flags: W
LayerCount: 2
Fore
SplineSet
152 152 m 2,0,-1
 15 152 l 2,1,2
 0 152 0 152 0 166 c 0,3,4
 0 181 0 181 15 181 c 2,5,-1
 152 181 l 2,6,7
 167 181 167 181 167 166 c 0,8,9
 167 152 167 152 152 152 c 2,0,-1
EndSplineSet
Validated: 1
EndChar

StartChar: period
Encoding: 46 46 7
Width: 114
GlyphClass: 2
Flags: W
LayerCount: 2
Fore
SplineSet
0 57.5 m 128,-1,1
 0 82 0 82 18 98 c 1,2,3
 35 116 35 116 58 115 c 0,4,5
 82 115 82 115 98 98 c 1,6,7
 116 82 116 82 115.5 57.5 c 128,-1,8
 115 33 115 33 98 18 c 1,9,10
 82 0 82 0 57.5 0 c 128,-1,11
 33 0 33 0 18 18 c 1,12,0
 0 33 0 33 0 57.5 c 128,-1,1
EndSplineSet
Validated: 33
EndChar

StartChar: f
Encoding: 102 102 8
Width: 1000
GlyphClass: 2
LayerCount: 2
Back
SplineSet
248.047 245.117 m 1,0,-1
 198.242 83.9844 l 2,1,2
 171.875 -2.92969 171.875 -2.92969 111.328 -83.9844 c 0,3,4
 49.8047 -166.016 49.8047 -166.016 -14.6484 -166.016 c 0,5,6
 -48.8281 -166.016 -48.8281 -166.016 -74.2188 -148.438 c 128,-1,7
 -99.6094 -130.859 -99.6094 -130.859 -99.6094 -102.539 c 0,8,9
 -99.6094 -70.3125 -99.6094 -70.3125 -85.9375 -48.8281 c 0,10,11
 -73.2422 -27.3438 -73.2422 -27.3438 -48.8281 -27.3438 c 0,12,13
 -31.25 -27.3438 -31.25 -27.3438 -18.5547 -40.0391 c 128,-1,14
 -5.85938 -52.7344 -5.85938 -52.7344 -5.85938 -70.3125 c 0,15,16
 -5.85938 -84.9609 -5.85938 -84.9609 -24.4141 -97.6562 c 0,17,18
 -42.9688 -109.375 -42.9688 -109.375 -42.9688 -124.023 c 0,19,20
 -42.9688 -133.789 -42.9688 -133.789 -20.5078 -133.789 c 2,21,-1
 -14.6484 -133.789 l 2,22,23
 -9.76562 -133.789 -9.76562 -133.789 0 -131.836 c 0,24,25
 4.88281 -130.859 4.88281 -130.859 12.6953 -125 c 0,26,27
 22.4609 -117.188 22.4609 -117.188 23.4375 -117.188 c 0,28,29
 29.2969 -108.398 29.2969 -108.398 31.25 -104.492 c 0,30,31
 35.1562 -96.6797 35.1562 -96.6797 37.1094 -90.8203 c 1,32,33
 40.0391 -86.9141 40.0391 -86.9141 42.9688 -74.2188 c 0,34,35
 43.9453 -71.2891 43.9453 -71.2891 44.9219 -67.3828 c 128,-1,36
 45.8984 -63.4766 45.8984 -63.4766 46.875 -61.5234 c 128,-1,37
 47.8516 -59.5703 47.8516 -59.5703 47.8516 -58.5938 c 0,38,39
 51.7578 -42.9688 51.7578 -42.9688 52.7344 -40.0391 c 0,40,41
 56.6406 -24.4141 56.6406 -24.4141 56.6406 -23.4375 c 2,42,-1
 124.023 245.117 l 1,43,-1
 72.2656 245.117 l 2,44,45
 65.4297 245.117 65.4297 245.117 60.5469 250 c 1,46,47
 56.6406 255.859 56.6406 255.859 56.6406 261.719 c 128,-1,48
 56.6406 267.578 56.6406 267.578 60.5469 273.438 c 1,49,50
 67.3828 278.32 67.3828 278.32 72.2656 278.32 c 2,51,-1
 132.812 278.32 l 1,52,53
 158.203 354.492 158.203 354.492 216.797 410.156 c 1,54,55
 274.414 466.797 274.414 466.797 341.797 466.797 c 0,56,57
 376.953 466.797 376.953 466.797 401.367 449.219 c 1,58,59
 426.758 432.617 426.758 432.617 426.758 404.297 c 0,60,61
 426.758 374.023 426.758 374.023 414.062 350.586 c 1,62,63
 399.414 328.125 399.414 328.125 375.977 328.125 c 0,64,65
 358.398 328.125 358.398 328.125 345.703 340.82 c 128,-1,66
 333.008 353.516 333.008 353.516 333.008 371.094 c 0,67,68
 333.008 385.742 333.008 385.742 351.562 398.438 c 0,69,70
 370.117 410.156 370.117 410.156 370.117 424.805 c 0,71,72
 370.117 435.547 370.117 435.547 348.633 435.547 c 2,73,-1
 345.703 435.547 l 1,74,75
 343.75 434.57 343.75 434.57 341.797 434.57 c 0,76,77
 324.219 434.57 324.219 434.57 310.547 425.781 c 0,78,79
 298.828 417.969 298.828 417.969 289.062 397.461 c 0,80,81
 286.133 391.602 286.133 391.602 283.691 385.742 c 128,-1,82
 281.25 379.883 281.25 379.883 278.809 373.047 c 128,-1,83
 276.367 366.211 276.367 366.211 275.391 363.281 c 0,84,85
 274.414 358.398 274.414 358.398 270.996 343.262 c 128,-1,86
 267.578 328.125 267.578 328.125 265.625 318.359 c 0,87,88
 258.789 287.109 258.789 287.109 256.836 278.32 c 1,89,-1
 313.477 278.32 l 2,90,91
 320.312 278.32 320.312 278.32 325.195 273.438 c 128,-1,92
 330.078 268.555 330.078 268.555 330.078 261.719 c 128,-1,93
 330.078 254.883 330.078 254.883 325.195 250 c 128,-1,94
 320.312 245.117 320.312 245.117 313.477 245.117 c 2,95,-1
 248.047 245.117 l 1,0,-1
EndSplineSet
EndChar

StartChar: uniE11D
Encoding: 57629 57629 9
Width: 148
GlyphClass: 2
Flags: W
LayerCount: 2
Fore
SplineSet
37 -250 m 0,0,1
 37 -249 37 -249 53 -225 c 0,2,3
 68 -203 68 -203 84 -143 c 0,4,5
 100 -86 100 -86 100 0 c 128,-1,6
 100 86 100 86 84 143 c 0,7,8
 67 204 67 204 53 225 c 0,9,10
 37 249 37 249 37 250 c 0,11,12
 37 263 37 263 50 263 c 0,13,14
 59 263 59 263 82 227 c 1,15,16
 107 190 107 190 129 125 c 1,17,18
 150 56 150 56 150 0 c 0,19,20
 150 -60 150 -60 128 -125 c 0,21,22
 107 -187 107 -187 82 -227 c 0,23,24
 59 -263 59 -263 50 -263 c 0,25,26
 37 -263 37 -263 37 -250 c 0,0,1
EndSplineSet
Validated: 1
EndChar

StartChar: uniE11E
Encoding: 57630 57630 10
Width: 0
GlyphClass: 2
Flags: W
LayerCount: 2
Fore
SplineSet
-37 -250 m 0,0,1
 -37 -263 -37 -263 -50 -263 c 0,2,3
 -59 -263 -59 -263 -82 -227 c 0,4,5
 -107 -188 -107 -188 -128 -125 c 0,6,7
 -150 -60 -150 -60 -150 0 c 0,8,9
 -150 56 -150 56 -129 125 c 1,10,11
 -108 189 -108 189 -82 227 c 1,12,13
 -59 263 -59 263 -50 263 c 0,14,15
 -37 263 -37 263 -37 250 c 0,16,17
 -37 249 -37 249 -53 225 c 0,18,19
 -68 204 -68 204 -84 143 c 0,20,21
 -100 86 -100 86 -100 0 c 128,-1,22
 -100 -86 -100 -86 -84 -143 c 0,23,24
 -67 -203 -67 -203 -53 -225 c 0,25,26
 -37 -249 -37 -249 -37 -250 c 0,0,1
EndSplineSet
Validated: 1
EndChar

StartChar: uniE11F
Encoding: 57631 57631 11
Width: 250
GlyphClass: 2
Flags: W
LayerCount: 2
Fore
SplineSet
20 0 m 128,-1,1
 20 -20 20 -20 0 -20 c 0,2,3
 -51 -20 -51 -20 -96 -36 c 0,4,5
 -138 -51 -138 -51 -164 -72 c 0,6,7
 -199 -100 -199 -100 -207 -108 c 0,8,9
 -227 -125 -227 -125 -230 -125 c 0,10,11
 -238 -125 -238 -125 -244 -119 c 1,12,13
 -250 -115 -250 -115 -250 -105 c 0,14,15
 -250 -89 -250 -89 -206 -53 c 1,16,17
 -162 -18 -162 -18 -112 0 c 1,18,19
 -166 20 -166 20 -207 55 c 0,20,21
 -250 92 -250 92 -250 105 c 0,22,23
 -250 115 -250 115 -244 119 c 1,24,25
 -238 125 -238 125 -230 125 c 0,26,27
 -224 125 -224 125 -206 108 c 0,28,29
 -180 84 -180 84 -164 72 c 0,30,31
 -138 51 -138 51 -96 36 c 0,32,33
 -49 19 -49 19 0 20 c 0,34,0
 20 20 20 20 20 0 c 128,-1,1
EndSplineSet
Validated: 33
EndChar

StartChar: uniE120
Encoding: 57632 57632 12
Width: 250
GlyphClass: 2
Flags: W
LayerCount: 2
Fore
SplineSet
-20 0 m 128,-1,1
 -20 20 -20 20 0 20 c 0,2,3
 51 20 51 20 96 36 c 0,4,5
 138 51 138 51 164 72 c 0,6,7
 180 84 180 84 206 108 c 0,8,9
 225 125 225 125 230 125 c 0,10,11
 238 125 238 125 244 119 c 1,12,13
 250 115 250 115 250 105 c 0,14,15
 250 90 250 90 207 55 c 1,16,17
 169 21 169 21 112 0 c 1,18,19
 162 -18 162 -18 206 -53 c 1,20,21
 250 -90 250 -90 250 -105 c 0,22,23
 250 -115 250 -115 244 -119 c 1,24,25
 238 -125 238 -125 230 -125 c 0,26,27
 225 -125 225 -125 207 -108 c 0,28,29
 167 -74 167 -74 164 -72 c 0,30,31
 138 -51 138 -51 96 -36 c 0,32,33
 51 -19 51 -19 0 -20 c 0,34,0
 -20 -20 -20 -20 -20 0 c 128,-1,1
EndSplineSet
Validated: 33
EndChar

StartChar: uniE121
Encoding: 57633 57633 13
Width: 125
GlyphClass: 2
Flags: W
LayerCount: 2
Fore
SplineSet
0 20 m 128,-1,1
 20 20 20 20 20 0 c 0,2,3
 20 -51 20 -51 36 -96 c 0,4,5
 51 -138 51 -138 72 -164 c 0,6,7
 100 -199 100 -199 108 -207 c 0,8,9
 125 -227 125 -227 125 -230 c 0,10,11
 125 -238 125 -238 119 -244 c 1,12,13
 115 -250 115 -250 105 -250 c 0,14,15
 89 -250 89 -250 53 -206 c 1,16,17
 18 -162 18 -162 0 -112 c 1,18,19
 -20 -166 -20 -166 -55 -207 c 0,20,21
 -92 -250 -92 -250 -105 -250 c 0,22,23
 -115 -250 -115 -250 -119 -244 c 1,24,25
 -125 -238 -125 -238 -125 -230 c 0,26,27
 -125 -224 -125 -224 -108 -206 c 0,28,29
 -84 -180 -84 -180 -72 -164 c 0,30,31
 -51 -138 -51 -138 -36 -96 c 0,32,33
 -19 -49 -19 -49 -20 0 c 0,34,0
 -20 20 -20 20 0 20 c 128,-1,1
EndSplineSet
Validated: 33
EndChar

StartChar: uniE122
Encoding: 57634 57634 14
Width: 125
GlyphClass: 2
Flags: W
LayerCount: 2
Fore
SplineSet
0 -20 m 128,-1,1
 -20 -20 -20 -20 -20 0 c 0,2,3
 -20 51 -20 51 -36 96 c 0,4,5
 -51 138 -51 138 -72 164 c 0,6,7
 -84 180 -84 180 -108 206 c 0,8,9
 -125 225 -125 225 -125 230 c 0,10,11
 -125 238 -125 238 -119 244 c 1,12,13
 -115 250 -115 250 -105 250 c 0,14,15
 -90 250 -90 250 -55 207 c 1,16,17
 -21 169 -21 169 0 112 c 1,18,19
 18 162 18 162 53 206 c 1,20,21
 90 250 90 250 105 250 c 0,22,23
 115 250 115 250 119 244 c 1,24,25
 125 238 125 238 125 230 c 0,26,27
 125 225 125 225 108 207 c 0,28,29
 74 167 74 167 72 164 c 0,30,31
 51 138 51 138 36 96 c 0,32,33
 19 51 19 51 20 0 c 0,34,0
 20 -20 20 -20 0 -20 c 128,-1,1
EndSplineSet
Validated: 33
EndChar

StartChar: uniE123
Encoding: 57635 57635 15
Width: 0
GlyphClass: 2
Flags: W
LayerCount: 2
Fore
SplineSet
10 0 m 128,-1,1
 10 -10 10 -10 0 -10 c 0,2,3
 -45 -10 -45 -10 -125 -48 c 128,-1,4
 -205 -86 -205 -86 -232 -121 c 0,5,6
 -236 -125 -236 -125 -240 -125 c 0,7,8
 -250 -125 -250 -125 -250 -115 c 0,9,10
 -250 -112 -250 -112 -248 -107 c 0,11,12
 -248 -105 -248 -105 -247 -100 c 128,-1,13
 -246 -95 -246 -95 -246 -91 c 1,14,15
 -244 -84 -244 -84 -242 -66 c 0,16,17
 -239 -43 -239 -43 -238 -35 c 0,18,19
 -238 -28 -238 -28 -237.5 -16.5 c 128,-1,20
 -237 -5 -237 -5 -237 0 c 128,-1,21
 -237 5 -237 5 -237.5 16.5 c 128,-1,22
 -238 28 -238 28 -238 35 c 0,23,24
 -239 42 -239 42 -240.5 52.5 c 128,-1,25
 -242 63 -242 63 -242 66 c 0,26,27
 -244 84 -244 84 -246 91 c 1,28,29
 -246 95 -246 95 -247 100 c 128,-1,30
 -248 105 -248 105 -248 107 c 0,31,32
 -250 112 -250 112 -250 115 c 0,33,34
 -250 125 -250 125 -240 125 c 0,35,36
 -236 125 -236 125 -232 121 c 0,37,38
 -205 86 -205 86 -125 48 c 128,-1,39
 -45 10 -45 10 0 10 c 0,40,0
 10 10 10 10 10 0 c 128,-1,1
EndSplineSet
Validated: 1
EndChar

StartChar: uniE124
Encoding: 57636 57636 16
Width: 250
GlyphClass: 2
Flags: W
LayerCount: 2
Fore
SplineSet
-10 0 m 128,-1,1
 -10 10 -10 10 0 10 c 0,2,3
 45 10 45 10 125 48 c 128,-1,4
 205 86 205 86 232 121 c 0,5,6
 236 125 236 125 240 125 c 0,7,8
 250 125 250 125 250 115 c 0,9,10
 250 112 250 112 248 107 c 0,11,12
 248 105 248 105 247 100 c 128,-1,13
 246 95 246 95 246 91 c 1,14,15
 244 84 244 84 242 66 c 0,16,17
 242 63 242 63 240.5 52.5 c 128,-1,18
 239 42 239 42 238 35 c 0,19,20
 238 28 238 28 237.5 16.5 c 128,-1,21
 237 5 237 5 237 0 c 128,-1,22
 237 -5 237 -5 237.5 -16.5 c 128,-1,23
 238 -28 238 -28 238 -35 c 0,24,25
 239 -43 239 -43 242 -66 c 0,26,27
 244 -84 244 -84 246 -91 c 1,28,29
 246 -95 246 -95 247 -100 c 128,-1,30
 248 -105 248 -105 248 -107 c 0,31,32
 250 -112 250 -112 250 -115 c 0,33,34
 250 -125 250 -125 240 -125 c 0,35,36
 236 -125 236 -125 232 -121 c 0,37,38
 205 -86 205 -86 125 -48 c 128,-1,39
 45 -10 45 -10 0 -10 c 0,40,0
 -10 -10 -10 -10 -10 0 c 128,-1,1
EndSplineSet
Validated: 1
EndChar

StartChar: uniE125
Encoding: 57637 57637 17
Width: 250
GlyphClass: 2
Flags: W
LayerCount: 2
Fore
SplineSet
125 260 m 128,-1,1
 135 260 135 260 135 250 c 0,2,3
 135 206 135 206 173 125 c 0,4,5
 211 45 211 45 246 18 c 0,6,7
 250 15 250 15 250 10 c 0,8,9
 250 0 250 0 240 0 c 2,10,-1
 239 0 l 1,11,12
 238 1 238 1 236 1.5 c 128,-1,13
 234 2 234 2 232 2 c 0,14,15
 228 4 228 4 191 8 c 0,16,17
 150 13 150 13 125 13 c 128,-1,18
 100 13 100 13 59 8 c 0,19,20
 22 4 22 4 18 2 c 0,21,22
 12 0 12 0 10 0 c 0,23,24
 0 0 0 0 0 10 c 0,25,26
 0 15 0 15 4 18 c 0,27,28
 39 45 39 45 77 125 c 0,29,30
 115 206 115 206 115 250 c 0,31,0
 115 260 115 260 125 260 c 128,-1,1
EndSplineSet
Validated: 1
EndChar

StartChar: uniE126
Encoding: 57638 57638 18
Width: 250
GlyphClass: 2
Flags: W
LayerCount: 2
Fore
SplineSet
125 0 m 128,-1,1
 115 0 115 0 115 10 c 0,2,3
 115 55 115 55 77 135 c 128,-1,4
 39 215 39 215 4 242 c 0,5,6
 0 245 0 245 0 250 c 0,7,8
 0 260 0 260 10 260 c 2,9,-1
 11 260 l 1,10,11
 12 259 12 259 14 258.5 c 128,-1,12
 16 258 16 258 18 258 c 0,13,14
 22 256 22 256 59 252 c 0,15,16
 100 247 100 247 125 247 c 128,-1,17
 150 247 150 247 191 252 c 0,18,19
 228 256 228 256 232 258 c 0,20,21
 238 260 238 260 240 260 c 0,22,23
 250 260 250 260 250 250 c 0,24,25
 250 245 250 245 246 242 c 0,26,27
 211 215 211 215 173 135 c 128,-1,28
 135 55 135 55 135 10 c 0,29,0
 135 0 135 0 125 0 c 128,-1,1
EndSplineSet
Validated: 1
EndChar

StartChar: uniE127
Encoding: 57639 57639 19
Width: 113
GlyphClass: 2
Flags: W
LayerCount: 2
Fore
SplineSet
0 0 m 128,-1,1
 0 23 0 23 16.5 40 c 128,-1,2
 33 57 33 57 56.5 57 c 128,-1,3
 80 57 80 57 96.5 40 c 128,-1,4
 113 23 113 23 113 0 c 128,-1,5
 113 -23 113 -23 96.5 -40 c 128,-1,6
 80 -57 80 -57 56.5 -57 c 128,-1,7
 33 -57 33 -57 16.5 -40 c 128,-1,0
 0 -23 0 -23 0 0 c 128,-1,1
EndSplineSet
Validated: 1
EndChar

StartChar: uniE128
Encoding: 57640 57640 20
Width: 573
GlyphClass: 2
Flags: W
LayerCount: 2
Fore
SplineSet
287 138 m 132,-1,1
 385 138 385 138 445 106 c 4,2,3
 506 76 506 76 524 39 c 5,4,-1
 524 862 l 6,5,6
 524 887 524 887 548.5 887.5 c 132,-1,7
 573 888 573 888 573 862 c 6,8,-1
 573 -112 l 6,9,10
 573 -137 573 -137 548.5 -137.5 c 132,-1,11
 524 -138 524 -138 524 -112 c 6,12,-1
 524 -39 l 5,13,14
 505 -76 505 -76 445 -106 c 4,15,16
 384 -137 384 -137 286.5 -137.5 c 132,-1,17
 189 -138 189 -138 129 -106 c 4,18,19
 67 -75 67 -75 49 -39 c 5,20,-1
 49 -112 l 6,21,22
 49 -137 49 -137 24.5 -137.5 c 132,-1,23
 0 -138 0 -138 0 -112 c 6,24,-1
 0 112 l 6,25,26
 0 137 0 137 24.5 137.5 c 132,-1,27
 49 138 49 138 49 112 c 6,28,-1
 49 39 l 5,29,30
 68 75 68 75 129 106 c 4,31,0
 189 138 189 138 287 138 c 132,-1,1
254 112 m 4,32,33
 221 112 221 112 203.5 87.5 c 132,-1,34
 186 63 186 63 186 24 c 4,35,36
 186 -22 186 -22 210 -55 c 4,37,38
 233 -87 233 -87 264 -100 c 4,39,40
 292 -113 292 -113 319 -112 c 4,41,42
 355 -112 355 -112 371 -88 c 4,43,44
 388 -63 388 -63 388 -24 c 4,45,46
 388 22 388 22 363.5 55 c 132,-1,47
 339 88 339 88 311 100 c 4,48,49
 282 112 282 112 254 112 c 4,32,33
EndSplineSet
Validated: 33
EndChar

StartChar: uniE129
Encoding: 57641 57641 21
Width: 573
GlyphClass: 2
Flags: W
LayerCount: 2
Fore
SplineSet
287 138 m 128,-1,1
 385 138 385 138 445 106 c 0,2,3
 506 76 506 76 524 39 c 1,4,-1
 524 112 l 2,5,6
 524 137 524 137 548.5 137.5 c 128,-1,7
 573 138 573 138 573 112 c 2,8,-1
 573 -113 l 2,9,10
 573 -137 573 -137 548.5 -137.5 c 128,-1,11
 524 -138 524 -138 524 -113 c 2,12,-1
 524 -39 l 1,13,14
 505 -76 505 -76 445 -106 c 0,15,16
 384 -137 384 -137 286.5 -137.5 c 128,-1,17
 189 -138 189 -138 129 -106 c 0,18,19
 67 -75 67 -75 49 -39 c 1,20,-1
 49 -863 l 2,21,22
 49 -887 49 -887 24.5 -887.5 c 128,-1,23
 0 -888 0 -888 0 -863 c 2,24,-1
 0 112 l 2,25,26
 0 137 0 137 24.5 137.5 c 128,-1,27
 49 138 49 138 49 112 c 2,28,-1
 49 39 l 1,29,30
 68 75 68 75 129 106 c 0,31,0
 189 138 189 138 287 138 c 128,-1,1
254 112 m 0,32,33
 221 112 221 112 203.5 87.5 c 128,-1,34
 186 63 186 63 186 24 c 0,35,36
 186 -22 186 -22 210 -55 c 0,37,38
 233 -87 233 -87 264 -100 c 0,39,40
 292 -113 292 -113 319 -112 c 0,41,42
 355 -112 355 -112 371 -88 c 0,43,44
 388 -63 388 -63 388 -24 c 0,45,46
 388 22 388 22 363 55 c 1,47,48
 342 86 342 86 311 100 c 0,49,50
 282 112 282 112 254 112 c 0,32,33
EndSplineSet
Validated: 33
EndChar

StartChar: uniE12A
Encoding: 57642 57642 22
Width: 573
GlyphClass: 2
Flags: W
LayerCount: 2
Fore
SplineSet
287 138 m 128,-1,1
 385 138 385 138 445 106 c 0,2,3
 506 76 506 76 524 39 c 1,4,-1
 524 112 l 2,5,6
 524 137 524 137 548.5 137.5 c 128,-1,7
 573 138 573 138 573 112 c 2,8,-1
 573 -112 l 2,9,10
 573 -137 573 -137 548.5 -137.5 c 128,-1,11
 524 -138 524 -138 524 -112 c 2,12,-1
 524 -39 l 1,13,14
 505 -76 505 -76 445 -106 c 0,15,16
 384 -137 384 -137 286.5 -137.5 c 128,-1,17
 189 -138 189 -138 129 -106 c 0,18,19
 67 -75 67 -75 49 -39 c 1,20,-1
 49 -112 l 2,21,22
 49 -137 49 -137 24.5 -137.5 c 128,-1,23
 0 -138 0 -138 0 -112 c 2,24,-1
 0 112 l 2,25,26
 0 137 0 137 24.5 137.5 c 128,-1,27
 49 138 49 138 49 112 c 2,28,-1
 49 39 l 1,29,30
 68 75 68 75 129 106 c 0,31,0
 189 138 189 138 287 138 c 128,-1,1
254 112 m 0,32,33
 221 112 221 112 203.5 87.5 c 128,-1,34
 186 63 186 63 186 24 c 0,35,36
 186 -22 186 -22 210 -55 c 0,37,38
 233 -87 233 -87 264 -100 c 0,39,40
 292 -113 292 -113 319 -112 c 0,41,42
 355 -112 355 -112 371 -88 c 0,43,44
 388 -63 388 -63 388 -24 c 0,45,46
 388 22 388 22 363 55 c 1,47,48
 342 86 342 86 311 100 c 0,49,50
 282 112 282 112 254 112 c 0,32,33
EndSplineSet
Validated: 33
EndChar

StartChar: uniE12B
Encoding: 57643 57643 23
Width: 494
GlyphClass: 2
Flags: W
LayerCount: 2
Fore
SplineSet
215 112 m 0,0,1
 180 112 180 112 164 88 c 1,2,3
 146 65 146 65 146 24 c 0,4,5
 146 -22 146 -22 171 -55 c 0,6,7
 195 -87 195 -87 225 -100 c 1,8,9
 251 -113 251 -113 280 -112 c 0,10,11
 314 -112 314 -112 332 -88 c 0,12,13
 349 -64 349 -64 349 -24 c 0,14,15
 349 22 349 22 324 55 c 1,16,17
 300 86 300 86 271 100 c 0,18,19
 243 112 243 112 215 112 c 0,0,1
248 138 m 0,20,21
 353 138 353 138 424 97 c 0,22,23
 495 56 495 56 495 0 c 0,24,25
 495 -60 495 -60 422 -98 c 1,26,27
 349 -138 349 -138 248 -138 c 0,28,29
 144 -138 144 -138 72 -97 c 256,30,31
 0 -56 0 -56 0 0 c 0,32,33
 0 60 0 60 74 98 c 1,34,35
 147 138 147 138 248 138 c 0,20,21
EndSplineSet
Validated: 33
EndChar

StartChar: uniE12C
Encoding: 57644 57644 24
Width: 346
GlyphClass: 2
Flags: W
LayerCount: 2
Fore
SplineSet
315 65 m 0,0,1
 315 82 315 82 303 94 c 0,2,3
 290 107 290 107 273 106 c 0,4,5
 245 106 245 106 155 48 c 0,6,7
 63 -12 63 -12 43 -37 c 0,8,9
 32 -51 32 -51 32 -65 c 0,10,11
 32 -82 32 -82 45 -94 c 1,12,13
 57 -107 57 -107 74 -106 c 0,14,15
 102 -106 102 -106 193 -48 c 0,16,17
 283 11 283 11 305 37 c 0,18,19
 315 49 315 49 315 65 c 0,0,1
264 138 m 0,20,21
 348 138 348 138 348 65 c 0,22,23
 348 30 348 30 327 -17 c 0,24,25
 306 -63 306 -63 272 -87 c 1,26,27
 197 -138 197 -138 84 -138 c 0,28,29
 0 -138 0 -138 0 -65 c 0,30,31
 0 -33 0 -33 21 16 c 0,32,33
 41 63 41 63 75 87 c 0,34,35
 151 138 151 138 264 138 c 0,20,21
EndSplineSet
Validated: 33
EndChar

StartChar: uniE12D
Encoding: 57645 57645 25
Width: 328
GlyphClass: 2
Flags: W
LayerCount: 2
Fore
SplineSet
220 138 m 4,0,1
 267 138 267 138 299 113 c 5,2,3
 329 87 329 87 329 47 c 4,4,5
 329 -20 329 -20 260 -79 c 4,6,7
 190 -138 190 -138 109 -138 c 4,8,9
 62 -138 62 -138 30 -113 c 5,10,11
 0 -87 0 -87 0 -47 c 4,12,13
 0 20 0 20 70 79 c 5,14,15
 139 138 139 138 220 138 c 4,0,1
EndSplineSet
Validated: 1
EndChar

StartChar: uniE12E
Encoding: 57646 57646 26
Width: 494
GlyphClass: 2
Flags: W
LayerCount: 2
Fore
SplineSet
210 75 m 0,0,1
 197 75 197 75 189 62 c 1,2,3
 183 49 183 49 184 1 c 0,4,5
 184 -33 184 -33 196 -43 c 0,6,7
 210 -55 210 -55 245 -66 c 0,8,9
 274 -75 274 -75 285 -75 c 0,10,11
 299 -75 299 -75 305 -62 c 0,12,13
 311 -49 311 -49 311 -1 c 0,14,15
 311 33 311 33 299 43 c 0,16,17
 285 55 285 55 250 66 c 0,18,19
 221 75 221 75 210 75 c 0,0,1
495 0 m 128,-1,21
 495 -25 495 -25 475 -37 c 1,22,23
 453 -47 453 -47 420 -53 c 0,24,25
 385 -59 385 -59 370 -68 c 1,26,27
 354 -76 354 -76 332 -96 c 1,28,29
 307 -116 307 -116 289 -126 c 0,30,31
 270 -138 270 -138 248 -138 c 128,-1,32
 226 -138 226 -138 205 -126 c 0,33,34
 187 -115 187 -115 162 -96 c 0,35,36
 136 -75 136 -75 125 -68 c 0,37,38
 110 -60 110 -60 74 -53 c 1,39,40
 44 -48 44 -48 20 -37 c 1,41,42
 0 -25 0 -25 0 0 c 128,-1,43
 0 25 0 25 20 37 c 1,44,45
 44 48 44 48 74 53 c 0,46,47
 109 59 109 59 125 68 c 0,48,49
 126 68 126 68 131.5 72 c 128,-1,50
 137 76 137 76 149 85.5 c 128,-1,51
 161 95 161 95 174 104 c 0,52,53
 218 138 218 138 248 138 c 0,54,55
 271 138 271 138 290 126 c 0,56,57
 308 115 308 115 332 96 c 1,58,59
 354 76 354 76 370 68 c 0,60,61
 385 60 385 60 420 53 c 1,62,63
 452 47 452 47 475 37 c 1,64,20
 495 25 495 25 495 0 c 128,-1,21
EndSplineSet
Validated: 33
EndChar

StartChar: uniE12F
Encoding: 57647 57647 27
Width: 363
GlyphClass: 2
Flags: W
LayerCount: 2
Fore
SplineSet
292 55 m 0,0,1
 292 81 292 81 263 81 c 0,2,3
 238 81 238 81 169 36 c 0,4,5
 100 -10 100 -10 81 -31 c 0,6,7
 72 -41 72 -41 72 -55 c 0,8,9
 72 -81 72 -81 101 -81 c 0,10,11
 126 -81 126 -81 194 -36 c 0,12,13
 265 11 265 11 283 31 c 0,14,15
 292 41 292 41 292 55 c 0,0,1
323 138 m 0,16,17
 341 138 341 138 353 125 c 0,18,19
 365 111 365 111 364.5 96.5 c 128,-1,20
 364 82 364 82 346 53 c 1,21,22
 328 29 328 29 322 12 c 0,23,24
 317 -2 317 -2 316 -27 c 0,25,26
 314 -52 314 -52 311 -68 c 0,27,28
 308 -84 308 -84 290 -98 c 0,29,30
 271 -112 271 -112 239 -111 c 0,31,32
 227 -111 227 -111 201 -108 c 0,33,34
 174 -105 174 -105 161 -105 c 0,35,36
 135 -105 135 -105 97 -121 c 128,-1,37
 59 -137 59 -137 41 -137 c 128,-1,38
 23 -137 23 -137 12 -125 c 1,39,40
 0 -111 0 -111 0 -97 c 0,41,42
 0 -79 0 -79 20 -53 c 1,43,44
 37 -28 37 -28 42 -12 c 0,45,46
 47 2 47 2 48 27 c 0,47,48
 49 48 49 48 53 68 c 0,49,50
 56 85 56 85 74 98 c 0,51,52
 93 112 93 112 125 111 c 0,53,54
 136 111 136 111 164 108 c 0,55,56
 190 105 190 105 203 105 c 0,57,58
 225 105 225 105 268 121 c 1,59,60
 304 138 304 138 323 138 c 0,16,17
EndSplineSet
Validated: 33
EndChar

StartChar: uniE130
Encoding: 57648 57648 28
Width: 368
GlyphClass: 2
Flags: W
LayerCount: 2
Fore
SplineSet
331 138 m 0,0,1
 350 138 350 138 359 125 c 0,2,3
 369 111 369 111 369 99 c 0,4,5
 369 78 369 78 330 45 c 1,6,7
 291 11 291 11 283 -3 c 0,8,9
 277 -14 277 -14 260 -53 c 1,10,11
 244 -93 244 -93 225 -115 c 0,12,13
 206 -136 206 -136 180 -137 c 0,14,15
 170 -137 170 -137 145 -131 c 0,16,17
 121 -125 121 -125 107 -125 c 0,18,19
 95 -125 95 -125 71 -131 c 1,20,21
 48 -138 48 -138 37 -138 c 0,22,23
 18 -138 18 -138 9 -125 c 1,24,25
 0 -110 0 -110 0 -99 c 0,26,27
 0 -78 0 -78 39 -45 c 1,28,29
 78 -11 78 -11 86 3 c 0,30,31
 90 10 90 10 109 54 c 1,32,33
 125 94 125 94 145 115 c 1,34,35
 163 136 163 136 188 137 c 0,36,37
 199 137 199 137 224 131 c 256,38,39
 248 125 248 125 261 125 c 0,40,41
 272 125 272 125 297 131 c 1,42,43
 320 138 320 138 331 138 c 0,0,1
EndSplineSet
Validated: 1
EndChar

StartChar: uniE131
Encoding: 57649 57649 29
Width: 578
GlyphClass: 2
Flags: W
LayerCount: 2
Fore
SplineSet
131 83 m 1,0,1
 176 5 176 5 176 -110 c 1,2,3
 276 -26 276 -26 396 19 c 1,4,5
 255 38 255 38 131 83 c 1,0,1
0 160 m 0,6,7
 0 172 0 172 15 178 c 1,8,9
 32 183 32 183 43 183 c 0,10,11
 47 183 47 183 71 170 c 0,12,13
 93 159 93 159 141 141 c 1,14,15
 175 125 175 125 240 104 c 0,16,17
 293 87 293 87 375 73 c 0,18,19
 452 60 452 60 538 61 c 2,20,-1
 543 61 l 2,21,22
 557 61 557 61 568 55 c 1,23,24
 579 47 579 47 579 37 c 0,25,26
 579 25 579 25 557 17 c 0,27,28
 540 10 540 10 492 -5 c 0,29,30
 456 -17 456 -17 399 -37 c 1,31,32
 351 -57 351 -57 281 -104 c 1,33,34
 214 -151 214 -151 153 -214 c 0,35,36
 148 -219 148 -219 138 -219 c 0,37,38
 93 -219 93 -219 93 -196 c 1,39,-1
 94 -191 l 2,40,41
 96 -185 96 -185 96 -178 c 1,42,43
 97 -175 97 -175 98 -168.5 c 128,-1,44
 99 -162 99 -162 100 -158 c 1,45,46
 100 -152 100 -152 102 -135 c 0,47,48
 103 -125 103 -125 103 -107 c 0,49,50
 103 30 103 30 16 137 c 1,51,-1
 9 144 l 2,52,53
 3 150 3 150 2 152 c 0,54,55
 0 156 0 156 0 160 c 0,6,7
EndSplineSet
Validated: 33
EndChar

StartChar: uniE132
Encoding: 57650 57650 30
Width: 417
GlyphClass: 2
Flags: W
LayerCount: 2
Fore
SplineSet
102 69 m 1,0,1
 133 -5 133 -5 133 -87 c 1,2,3
 193 -27 193 -27 278 16 c 1,4,5
 185 31 185 31 102 69 c 1,0,1
0 142 m 0,6,7
 0 152 0 152 10 158 c 1,8,9
 18 165 18 165 32 165 c 0,10,11
 36 165 36 165 66 148 c 1,12,13
 101 127 101 127 135 111 c 1,14,15
 177 90 177 90 244 74 c 1,16,17
 312 56 312 56 389 57 c 0,18,19
 402 57 402 57 409 50 c 0,20,21
 418 43 418 43 418 33 c 0,22,23
 418 19 418 19 391 7 c 0,24,25
 362 -7 362 -7 322 -20 c 1,26,27
 281 -36 281 -36 224.5 -78.5 c 128,-1,28
 168 -121 168 -121 119 -188 c 0,29,30
 113 -197 113 -197 98 -197 c 0,31,32
 84 -197 84 -197 76 -190 c 1,33,34
 66 -183 66 -183 66 -173 c 2,35,-1
 66 -172 l 2,36,37
 66 -171 66 -171 66.5 -169.5 c 128,-1,38
 67 -168 67 -168 67.5 -165.5 c 128,-1,39
 68 -163 68 -163 68 -161 c 0,40,41
 72 -135 72 -135 72 -133 c 0,42,43
 74 -110 74 -110 74 -94 c 0,44,45
 74 -30 74 -30 56 25 c 1,46,47
 35 84 35 84 19 108 c 0,48,49
 0 137 0 137 0 142 c 0,6,7
EndSplineSet
Validated: 33
EndChar

StartChar: uniE133
Encoding: 57651 57651 31
Width: 417
GlyphClass: 2
Flags: W
LayerCount: 2
Fore
SplineSet
102 69 m 1,0,1
 133 -5 133 -5 133 -87 c 1,2,3
 193 -27 193 -27 278 16 c 1,4,5
 185 31 185 31 102 69 c 1,0,1
0 142 m 0,6,7
 0 152 0 152 10 158 c 1,8,9
 18 165 18 165 32 165 c 0,10,11
 36 165 36 165 66 148 c 1,12,13
 101 127 101 127 135 111 c 1,14,15
 177 90 177 90 244 74 c 1,16,17
 312 56 312 56 389 57 c 0,18,19
 402 57 402 57 409 50 c 0,20,21
 418 43 418 43 418 33 c 0,22,23
 418 19 418 19 391 7 c 0,24,25
 362 -7 362 -7 322 -20 c 1,26,27
 281 -36 281 -36 224.5 -78.5 c 128,-1,28
 168 -121 168 -121 119 -188 c 0,29,30
 113 -197 113 -197 98 -197 c 0,31,32
 84 -197 84 -197 76 -190 c 1,33,34
 66 -183 66 -183 66 -173 c 2,35,-1
 66 -172 l 2,36,37
 66 -171 66 -171 66.5 -169.5 c 128,-1,38
 67 -168 67 -168 67.5 -165.5 c 128,-1,39
 68 -163 68 -163 68 -161 c 0,40,41
 72 -135 72 -135 72 -133 c 0,42,43
 74 -110 74 -110 74 -94 c 0,44,45
 74 -30 74 -30 56 25 c 1,46,47
 35 84 35 84 19 108 c 0,48,49
 0 137 0 137 0 142 c 0,6,7
EndSplineSet
Validated: 33
EndChar

StartChar: uniE134
Encoding: 57652 57652 32
Width: 347
GlyphClass: 2
Flags: W
LayerCount: 2
Fore
SplineSet
55 -173 m 0,0,1
 55 -168 55 -168 57 -160 c 0,2,3
 57 -157 57 -157 58.5 -147.5 c 128,-1,4
 60 -138 60 -138 60 -133 c 0,5,6
 62 -108 62 -108 62 -93 c 0,7,8
 62 -32 62 -32 47 22 c 1,9,10
 30 79 30 79 16 105 c 0,11,12
 0 135 0 135 0 140 c 0,13,14
 0 151 0 151 7 157 c 0,15,16
 15 165 15 165 25 165 c 0,17,18
 30 165 30 165 55 148 c 0,19,20
 95 121 95 121 112 111 c 1,21,22
 145 90 145 90 203 74 c 1,23,24
 260 56 260 56 324 57 c 0,25,26
 334 57 334 57 341 49 c 1,27,28
 348 43 348 43 348 32 c 0,29,30
 348 18 348 18 334 10 c 1,31,32
 329 8 329 8 311 -1 c 128,-1,33
 293 -10 293 -10 279 -16 c 0,34,35
 242 -34 242 -34 200 -69 c 0,36,37
 166 -98 166 -98 146 -122 c 0,38,39
 122 -151 122 -151 116 -163 c 0,40,41
 110 -176 110 -176 100 -188 c 1,42,43
 90 -198 90 -198 80 -197 c 0,44,45
 66 -197 66 -197 62 -189 c 1,46,47
 54 -185 54 -185 55 -173 c 0,0,1
EndSplineSet
Validated: 33
EndChar

StartChar: uniE135
Encoding: 57653 57653 33
Width: 347
GlyphClass: 2
Flags: W
LayerCount: 2
Fore
SplineSet
55 -173 m 0,0,1
 55 -168 55 -168 57 -160 c 0,2,3
 57 -157 57 -157 58.5 -147.5 c 128,-1,4
 60 -138 60 -138 60 -133 c 0,5,6
 62 -108 62 -108 62 -93 c 0,7,8
 62 -32 62 -32 47 22 c 1,9,10
 30 79 30 79 16 105 c 0,11,12
 0 135 0 135 0 140 c 0,13,14
 0 151 0 151 7 157 c 0,15,16
 15 165 15 165 25 165 c 0,17,18
 30 165 30 165 55 148 c 0,19,20
 95 121 95 121 112 111 c 1,21,22
 145 90 145 90 203 74 c 1,23,24
 260 56 260 56 324 57 c 0,25,26
 334 57 334 57 341 49 c 1,27,28
 348 43 348 43 348 32 c 0,29,30
 348 18 348 18 334 10 c 1,31,32
 329 8 329 8 311 -1 c 128,-1,33
 293 -10 293 -10 279 -16 c 0,34,35
 242 -34 242 -34 200 -69 c 0,36,37
 166 -98 166 -98 146 -122 c 0,38,39
 122 -151 122 -151 116 -163 c 0,40,41
 110 -176 110 -176 100 -188 c 1,42,43
 90 -198 90 -198 80 -197 c 0,44,45
 66 -197 66 -197 62 -189 c 1,46,47
 54 -185 54 -185 55 -173 c 0,0,1
EndSplineSet
Validated: 33
EndChar

StartChar: uniE136
Encoding: 57654 57654 34
Width: 754
GlyphClass: 2
Flags: W
LayerCount: 2
Fore
SplineSet
117 -193 m 1,0,-1
 401 -193 l 1,1,-1
 637 193 l 1,2,-1
 352 193 l 1,3,-1
 117 -193 l 1,0,-1
10 -263 m 2,4,5
 0 -263 0 -263 0 -252 c 0,6,7
 0 -248 0 -248 1 -247 c 2,8,-1
 310 258 l 2,9,10
 313 263 313 263 319 263 c 2,11,-1
 744 263 l 2,12,13
 754 263 754 263 754 252 c 1,14,-1
 753 250 l 2,15,16
 752 248 752 248 752 247 c 2,17,-1
 444 -258 l 2,18,19
 441 -263 441 -263 435 -263 c 2,20,-1
 10 -263 l 2,4,5
EndSplineSet
Validated: 1
EndChar

StartChar: uniE137
Encoding: 57655 57655 35
Width: 586
GlyphClass: 2
Flags: W
LayerCount: 2
Fore
SplineSet
117 -193 m 1,0,-1
 234 -193 l 1,1,-1
 469 193 l 1,2,-1
 352 193 l 1,3,-1
 117 -193 l 1,0,-1
10 -263 m 2,4,5
 0 -263 0 -263 0 -252 c 0,6,7
 0 -248 0 -248 1 -247 c 2,8,-1
 310 258 l 2,9,10
 313 263 313 263 319 263 c 2,11,-1
 576 263 l 2,12,13
 586 263 586 263 586 252 c 0,14,15
 586 248 586 248 585 247 c 2,16,-1
 276 -258 l 2,17,18
 273 -263 273 -263 267 -263 c 2,19,-1
 10 -263 l 2,4,5
EndSplineSet
Validated: 1
EndChar

StartChar: uniE138
Encoding: 57656 57656 36
Width: 428
GlyphClass: 2
Flags: W
LayerCount: 2
Fore
SplineSet
10 -263 m 2,0,1
 0 -263 0 -263 0 -252 c 0,2,3
 0 -248 0 -248 1 -247 c 2,4,-1
 310 258 l 2,5,6
 313 263 313 263 319 263 c 2,7,-1
 419 263 l 2,8,9
 429 263 429 263 429 252 c 1,10,-1
 428 250 l 2,11,12
 428 248 428 248 427 247 c 2,13,-1
 119 -258 l 2,14,15
 116 -263 116 -263 110 -263 c 2,16,-1
 10 -263 l 2,0,1
EndSplineSet
Validated: 1
EndChar

StartChar: uniE139
Encoding: 57657 57657 37
Width: 428
GlyphClass: 2
Flags: W
LayerCount: 2
Fore
SplineSet
223 44 m 2,0,1
 219 42 219 42 215 42 c 128,-1,2
 211 42 211 42 207 44 c 2,3,-1
 99 117 l 1,4,-1
 42 78 l 1,5,-1
 139 12 l 2,6,7
 147 6 147 6 146.5 0 c 128,-1,8
 146 -6 146 -6 139 -12 c 2,9,-1
 42 -78 l 1,10,-1
 99 -117 l 1,11,-1
 207 -44 l 2,12,13
 211 -42 211 -42 215 -42 c 128,-1,14
 219 -42 219 -42 223 -44 c 2,15,-1
 330 -117 l 1,16,-1
 387 -78 l 1,17,-1
 291 -12 l 2,18,19
 283 -6 283 -6 283 0 c 128,-1,20
 283 6 283 6 291 12 c 2,21,-1
 387 78 l 1,22,-1
 330 117 l 1,23,-1
 223 44 l 2,0,1
215 75 m 1,24,-1
 322 147 l 2,25,26
 325 150 325 150 330 150 c 0,27,28
 336 150 336 150 339 147 c 2,29,-1
 422 91 l 2,30,31
 429 87 429 87 429 78 c 0,32,33
 429 70 429 70 422 66 c 2,34,-1
 325 0 l 1,35,-1
 422 -66 l 2,36,37
 429 -70 429 -70 429 -78 c 0,38,39
 429 -87 429 -87 422 -91 c 2,40,-1
 339 -147 l 2,41,42
 336 -150 336 -150 330 -150 c 0,43,44
 325 -150 325 -150 322 -147 c 2,45,-1
 215 -75 l 1,46,-1
 107 -147 l 2,47,48
 104 -150 104 -150 98.5 -150 c 128,-1,49
 93 -150 93 -150 90 -147 c 2,50,-1
 7 -91 l 2,51,52
 0 -87 0 -87 0 -78 c 0,53,54
 0 -70 0 -70 7 -66 c 2,55,-1
 104 0 l 1,56,-1
 7 66 l 2,57,58
 0 70 0 70 0 78 c 0,59,60
 0 87 0 87 7 91 c 2,61,-1
 90 147 l 2,62,63
 93 150 93 150 99 150 c 0,64,65
 104 150 104 150 107 147 c 2,66,-1
 215 75 l 1,24,-1
EndSplineSet
Validated: 1
EndChar

StartChar: uniE13A
Encoding: 57658 57658 38
Width: 378
GlyphClass: 2
Flags: W
LayerCount: 2
Fore
SplineSet
198 35 m 2,0,1
 193 32 193 32 189.5 32 c 128,-1,2
 186 32 186 32 181 35 c 2,3,-1
 78 110 l 1,4,-1
 40 82 l 1,5,-1
 135 12 l 1,6,7
 141 6 141 6 141 0 c 128,-1,8
 141 -6 141 -6 135 -12 c 1,9,-1
 40 -82 l 1,10,-1
 78 -110 l 1,11,-1
 181 -35 l 2,12,13
 186 -32 186 -32 189.5 -32 c 128,-1,14
 193 -32 193 -32 198 -35 c 2,15,-1
 301 -110 l 1,16,-1
 339 -82 l 1,17,-1
 244 -12 l 1,18,19
 238 -6 238 -6 238 0 c 128,-1,20
 238 6 238 6 244 12 c 1,21,-1
 339 82 l 1,22,-1
 301 110 l 1,23,-1
 198 35 l 2,0,1
189 65 m 1,24,-1
 292 141 l 2,25,26
 297 144 297 144 301 144 c 128,-1,27
 305 144 305 144 310 141 c 2,28,-1
 373 94 l 2,29,30
 379 90 379 90 379 82 c 128,-1,31
 379 74 379 74 373 70 c 2,32,-1
 278 0 l 1,33,-1
 373 -70 l 2,34,35
 379 -74 379 -74 379 -82 c 128,-1,36
 379 -90 379 -90 373 -94 c 2,37,-1
 310 -141 l 2,38,39
 305 -144 305 -144 301 -144 c 128,-1,40
 297 -144 297 -144 292 -141 c 2,41,-1
 189 -65 l 1,42,-1
 87 -141 l 2,43,44
 82 -144 82 -144 78 -144 c 128,-1,45
 74 -144 74 -144 69 -141 c 2,46,-1
 6 -94 l 2,47,48
 0 -90 0 -90 0 -82 c 128,-1,49
 0 -74 0 -74 6 -70 c 2,50,-1
 101 0 l 1,51,-1
 6 70 l 2,52,53
 0 74 0 74 0 82 c 128,-1,54
 0 90 0 90 6 94 c 2,55,-1
 69 141 l 2,56,57
 74 144 74 144 78 144 c 128,-1,58
 82 144 82 144 87 141 c 2,59,-1
 189 65 l 1,24,-1
EndSplineSet
Validated: 1
EndChar

StartChar: uniE13B
Encoding: 57659 57659 39
Width: 328
GlyphClass: 2
Flags: W
LayerCount: 2
Fore
SplineSet
165 36 m 1,0,-1
 285 134 l 2,1,2
 290 138 290 138 294 138 c 0,3,4
 299 138 299 138 304 134 c 2,5,-1
 324 118 l 2,6,7
 329 113 329 113 329 106 c 0,8,9
 329 101 329 101 324 95 c 1,10,-1
 208 0 l 1,11,-1
 324 -95 l 2,12,13
 329 -100 329 -100 329 -106.5 c 128,-1,14
 329 -113 329 -113 324 -118 c 2,15,-1
 304 -134 l 2,16,17
 299 -138 299 -138 294 -138 c 0,18,19
 290 -138 290 -138 285 -134 c 2,20,-1
 165 -36 l 1,21,-1
 44 -134 l 2,22,23
 39 -138 39 -138 35 -138 c 0,24,25
 30 -138 30 -138 25 -134 c 2,26,-1
 5 -118 l 2,27,28
 0 -113 0 -113 0 -106 c 0,29,30
 0 -101 0 -101 5 -95 c 1,31,-1
 121 0 l 1,32,-1
 5 95 l 2,33,34
 0 100 0 100 0 106.5 c 128,-1,35
 0 113 0 113 5 118 c 2,36,-1
 25 134 l 2,37,38
 30 138 30 138 35 138 c 0,39,40
 39 138 39 138 44 134 c 2,41,-1
 165 36 l 1,0,-1
EndSplineSet
Validated: 1
EndChar

StartChar: uniE13C
Encoding: 57660 57660 40
Width: 390
GlyphClass: 2
Flags: W
LayerCount: 2
Fore
SplineSet
196 173 m 256,0,1
 277 173 277 173 334 123 c 1,2,3
 391 71 391 71 391 0 c 128,-1,4
 391 -71 391 -71 334 -123 c 1,5,6
 275 -173 275 -173 196 -173 c 0,7,8
 115 -173 115 -173 58 -123 c 1,9,10
 0 -71 0 -71 0 0 c 128,-1,11
 0 71 0 71 58 123 c 1,12,13
 115 173 115 173 196 173 c 256,0,1
196 24 m 1,14,-1
 292 108 l 1,15,16
 249 135 249 135 196.5 135.5 c 128,-1,17
 144 136 144 136 99 108 c 1,18,-1
 196 24 l 1,14,-1
168 0 m 1,19,-1
 71 85 l 1,20,21
 36 47 36 47 36 0 c 128,-1,22
 36 -47 36 -47 71 -85 c 1,23,-1
 168 0 l 1,19,-1
223 0 m 1,24,-1
 321 -85 l 1,25,26
 355 -48 355 -48 355 0 c 128,-1,27
 355 48 355 48 321 85 c 1,28,-1
 223 0 l 1,24,-1
196 -24 m 1,29,-1
 99 -108 l 1,30,31
 144 -135 144 -135 196 -136 c 0,32,33
 250 -136 250 -136 292 -108 c 1,34,-1
 196 -24 l 1,29,-1
EndSplineSet
Validated: 33
EndChar

StartChar: uniE13D
Encoding: 57661 57661 41
Width: 494
GlyphClass: 2
Flags: W
LayerCount: 2
Fore
SplineSet
84 -69 m 1,0,-1
 411 -69 l 1,1,-1
 248 63 l 1,2,-1
 84 -69 l 1,0,-1
22 -112 m 2,3,4
 13 -112 13 -112 7 -105 c 0,5,6
 0 -99 0 -99 0 -91 c 0,7,8
 0 -80 0 -80 8 -74 c 2,9,-1
 234 108 l 2,10,11
 238 112 238 112 248 112 c 0,12,13
 257 112 257 112 261 108 c 2,14,-1
 487 -74 l 2,15,16
 495 -80 495 -80 495 -91 c 0,17,18
 495 -100 495 -100 488 -105 c 1,19,20
 482 -112 482 -112 473 -112 c 2,21,-1
 22 -112 l 2,3,4
EndSplineSet
Validated: 1
EndChar

StartChar: uniE13E
Encoding: 57662 57662 42
Width: 346
GlyphClass: 2
Flags: W
LayerCount: 2
Fore
SplineSet
69 -69 m 1,0,-1
 279 -69 l 1,1,-1
 174 57 l 1,2,-1
 69 -69 l 1,0,-1
22 -112 m 2,3,4
 13 -112 13 -112 7 -105 c 0,5,6
 0 -99 0 -99 0 -91 c 0,7,8
 0 -85 0 -85 5 -77 c 1,9,-1
 157 105 l 2,10,11
 163 113 163 113 174 113 c 0,12,13
 184 113 184 113 191 105 c 1,14,-1
 342 -77 l 1,15,16
 347 -85 347 -85 347 -91 c 0,17,18
 347 -100 347 -100 341 -105 c 0,19,20
 335 -112 335 -112 326 -112 c 2,21,-1
 22 -112 l 2,3,4
EndSplineSet
Validated: 1
EndChar

StartChar: uniE13F
Encoding: 57663 57663 43
Width: 346
GlyphClass: 2
Flags: W
LayerCount: 2
Fore
SplineSet
69 -69 m 1,0,-1
 279 -69 l 1,1,-1
 174 57 l 1,2,-1
 69 -69 l 1,0,-1
22 -112 m 2,3,4
 13 -112 13 -112 7 -105 c 0,5,6
 0 -99 0 -99 0 -91 c 0,7,8
 0 -85 0 -85 5 -77 c 1,9,-1
 157 105 l 2,10,11
 163 113 163 113 174 113 c 0,12,13
 184 113 184 113 191 105 c 1,14,-1
 342 -77 l 1,15,16
 347 -85 347 -85 347 -91 c 0,17,18
 347 -100 347 -100 341 -105 c 0,19,20
 335 -112 335 -112 326 -112 c 2,21,-1
 22 -112 l 2,3,4
EndSplineSet
Validated: 1
EndChar

StartChar: uniE140
Encoding: 57664 57664 44
Width: 328
GlyphClass: 2
Flags: W
LayerCount: 2
Fore
SplineSet
22 -112 m 2,0,1
 13 -112 13 -112 7 -105 c 0,2,3
 0 -99 0 -99 0 -91 c 0,4,5
 0 -84 0 -84 5 -77 c 2,6,-1
 147 104 l 2,7,8
 154 114 154 114 165 113.5 c 128,-1,9
 176 113 176 113 183 104 c 2,10,-1
 324 -77 l 2,11,12
 329 -84 329 -84 329 -91 c 0,13,14
 329 -100 329 -100 322 -105 c 1,15,16
 316 -112 316 -112 307 -112 c 2,17,-1
 22 -112 l 2,0,1
EndSplineSet
Validated: 1
EndChar

StartChar: uniE141
Encoding: 57665 57665 45
Width: 328
GlyphClass: 2
Flags: W
LayerCount: 2
Fore
SplineSet
22 -112 m 2,0,1
 13 -112 13 -112 7 -105 c 0,2,3
 0 -99 0 -99 0 -91 c 0,4,5
 0 -84 0 -84 5 -77 c 2,6,-1
 147 104 l 2,7,8
 154 114 154 114 165 113.5 c 128,-1,9
 176 113 176 113 183 104 c 2,10,-1
 324 -77 l 2,11,12
 329 -84 329 -84 329 -91 c 0,13,14
 329 -100 329 -100 322 -105 c 1,15,16
 316 -112 316 -112 307 -112 c 2,17,-1
 22 -112 l 2,0,1
EndSplineSet
Validated: 1
EndChar

StartChar: uniE142
Encoding: 57666 57666 46
Width: 494
GlyphClass: 2
Flags: W
LayerCount: 2
Fore
SplineSet
44 69 m 1,0,-1
 44 36 l 2,1,2
 44 -69 44 -69 248 -69 c 0,3,4
 451 -69 451 -69 451 36 c 2,5,-1
 451 69 l 1,6,-1
 44 69 l 1,0,-1
0 91 m 2,7,8
 0 100 0 100 6 105 c 0,9,10
 13 112 13 112 22 112 c 2,11,-1
 473 112 l 2,12,13
 482 112 482 112 488 105 c 0,14,15
 495 99 495 99 495 91 c 2,16,-1
 495 36 l 2,17,18
 495 -39 495 -39 422 -75 c 1,19,20
 350 -112 350 -112 248 -112 c 0,21,22
 147 -112 147 -112 73 -75 c 0,23,24
 0 -39 0 -39 0 36 c 2,25,-1
 0 91 l 2,7,8
EndSplineSet
Validated: 1
EndChar

StartChar: uniE143
Encoding: 57667 57667 47
Width: 346
GlyphClass: 2
Flags: W
LayerCount: 2
Fore
SplineSet
44 69 m 1,0,-1
 44 36 l 2,1,2
 44 -10 44 -10 82 -39 c 0,3,4
 121 -69 121 -69 174 -69 c 128,-1,5
 227 -69 227 -69 266 -39 c 0,6,7
 304 -10 304 -10 304 36 c 2,8,-1
 304 69 l 1,9,-1
 44 69 l 1,0,-1
0 91 m 2,10,11
 0 100 0 100 6 105 c 0,12,13
 13 112 13 112 22 112 c 2,14,-1
 326 112 l 2,15,16
 335 112 335 112 341 105 c 0,17,18
 347 99 347 99 347 91 c 2,19,-1
 347 36 l 2,20,21
 347 -28 347 -28 296 -70 c 128,-1,22
 245 -112 245 -112 174 -112 c 128,-1,23
 103 -112 103 -112 51 -70 c 1,24,25
 0 -27 0 -27 0 36 c 2,26,-1
 0 91 l 2,10,11
EndSplineSet
Validated: 1
EndChar

StartChar: uniE144
Encoding: 57668 57668 48
Width: 346
GlyphClass: 2
Flags: W
LayerCount: 2
Fore
SplineSet
44 69 m 1,0,-1
 44 36 l 2,1,2
 44 -10 44 -10 82 -39 c 0,3,4
 121 -69 121 -69 174 -69 c 128,-1,5
 227 -69 227 -69 266 -39 c 0,6,7
 304 -10 304 -10 304 36 c 2,8,-1
 304 69 l 1,9,-1
 44 69 l 1,0,-1
0 91 m 2,10,11
 0 100 0 100 6 105 c 0,12,13
 13 112 13 112 22 112 c 2,14,-1
 326 112 l 2,15,16
 335 112 335 112 341 105 c 0,17,18
 347 99 347 99 347 91 c 2,19,-1
 347 36 l 2,20,21
 347 -28 347 -28 296 -70 c 128,-1,22
 245 -112 245 -112 174 -112 c 128,-1,23
 103 -112 103 -112 51 -70 c 1,24,25
 0 -27 0 -27 0 36 c 2,26,-1
 0 91 l 2,10,11
EndSplineSet
Validated: 1
EndChar

StartChar: uniE145
Encoding: 57669 57669 49
Width: 328
GlyphClass: 2
Flags: W
LayerCount: 2
Fore
SplineSet
0 91 m 2,0,1
 0 100 0 100 6 105 c 0,2,3
 13 112 13 112 22 112 c 2,4,-1
 307 112 l 2,5,6
 316 112 316 112 322 105 c 0,7,8
 329 99 329 99 329 91 c 2,9,-1
 329 36 l 2,10,11
 329 -26 329 -26 281 -70 c 1,12,13
 230 -112 230 -112 165 -112 c 0,14,15
 99 -112 99 -112 49 -70 c 1,16,17
 0 -26 0 -26 0 36 c 2,18,-1
 0 91 l 2,0,1
EndSplineSet
Validated: 1
EndChar

StartChar: uniE146
Encoding: 57670 57670 50
Width: 328
GlyphClass: 2
Flags: W
LayerCount: 2
Fore
SplineSet
0 91 m 2,0,1
 0 100 0 100 6 105 c 0,2,3
 13 112 13 112 22 112 c 2,4,-1
 307 112 l 2,5,6
 316 112 316 112 322 105 c 0,7,8
 329 99 329 99 329 91 c 2,9,-1
 329 36 l 2,10,11
 329 -26 329 -26 281 -70 c 1,12,13
 230 -112 230 -112 165 -112 c 0,14,15
 99 -112 99 -112 49 -70 c 1,16,17
 0 -26 0 -26 0 36 c 2,18,-1
 0 91 l 2,0,1
EndSplineSet
Validated: 1
EndChar

StartChar: uniE147
Encoding: 57671 57671 51
Width: 494
GlyphClass: 2
Flags: W
LayerCount: 2
Fore
SplineSet
95 6 m 1,0,-1
 262 -61 l 1,1,-1
 400 -6 l 1,2,-1
 233 61 l 1,3,-1
 95 6 l 1,0,-1
14 -20 m 2,4,5
 0 -15 0 -15 0 0 c 128,-1,6
 0 15 0 15 14 20 c 2,7,-1
 239 111 l 2,8,9
 241 112 241 112 248 112 c 0,10,11
 254 112 254 112 256 111 c 2,12,-1
 481 20 l 2,13,14
 495 15 495 15 495 0 c 128,-1,15
 495 -15 495 -15 481 -20 c 2,16,-1
 256 -111 l 2,17,18
 254 -112 254 -112 248 -112 c 0,19,20
 241 -112 241 -112 239 -111 c 2,21,-1
 14 -20 l 2,4,5
EndSplineSet
Validated: 1
EndChar

StartChar: uniE148
Encoding: 57672 57672 52
Width: 328
GlyphClass: 2
Flags: W
LayerCount: 2
Fore
SplineSet
73 6 m 1,0,-1
 175 -58 l 1,1,-1
 256 -6 l 1,2,-1
 154 58 l 1,3,-1
 73 6 l 1,0,-1
10 -18 m 2,4,5
 0 -11 0 -11 0 0 c 128,-1,6
 0 11 0 11 10 18 c 2,7,-1
 153 109 l 2,8,9
 159 112 159 112 165 112 c 0,10,11
 170 112 170 112 176 109 c 2,12,-1
 319 18 l 2,13,14
 329 11 329 11 329 0 c 128,-1,15
 329 -11 329 -11 319 -18 c 2,16,-1
 176 -109 l 2,17,18
 170 -112 170 -112 165 -112 c 0,19,20
 159 -112 159 -112 153 -109 c 2,21,-1
 10 -18 l 2,4,5
EndSplineSet
Validated: 1
EndChar

StartChar: uniE149
Encoding: 57673 57673 53
Width: 328
GlyphClass: 2
Flags: W
LayerCount: 2
Fore
SplineSet
10 -18 m 2,0,1
 0 -11 0 -11 0 0 c 128,-1,2
 0 11 0 11 10 18 c 2,3,-1
 153 109 l 2,4,5
 159 112 159 112 165 112 c 0,6,7
 170 112 170 112 176 109 c 2,8,-1
 319 18 l 2,9,10
 329 11 329 11 329 0 c 128,-1,11
 329 -11 329 -11 319 -18 c 2,12,-1
 176 -109 l 2,13,14
 170 -112 170 -112 165 -112 c 0,15,16
 159 -112 159 -112 153 -109 c 2,17,-1
 10 -18 l 2,0,1
EndSplineSet
Validated: 1
EndChar

StartChar: uniE14A
Encoding: 57674 57674 54
Width: 494
GlyphClass: 2
Flags: W
LayerCount: 2
Fore
SplineSet
135 69 m 1,0,-1
 451 -58 l 1,1,-1
 451 69 l 1,2,-1
 135 69 l 1,0,-1
0 91 m 0,3,4
 0 100 0 100 6 105 c 0,5,6
 13 112 13 112 22 112 c 2,7,-1
 473 112 l 2,8,9
 482 112 482 112 488 105 c 0,10,11
 495 99 495 99 495 91 c 2,12,-1
 495 -91 l 2,13,14
 495 -100 495 -100 488 -105 c 1,15,16
 482 -112 482 -112 473 -112 c 0,17,18
 467 -112 467 -112 465 -111 c 2,19,-1
 14 70 l 2,20,21
 0 75 0 75 0 91 c 0,3,4
EndSplineSet
Validated: 1
EndChar

StartChar: uniE14B
Encoding: 57675 57675 55
Width: 494
GlyphClass: 2
Flags: W
LayerCount: 2
Fore
SplineSet
360 -69 m 1,0,-1
 44 58 l 1,1,-1
 44 -69 l 1,2,-1
 360 -69 l 1,0,-1
495 -91 m 0,3,4
 495 -100 495 -100 488 -105 c 1,5,6
 482 -112 482 -112 473 -112 c 2,7,-1
 22 -112 l 2,8,9
 13 -112 13 -112 7 -105 c 0,10,11
 0 -99 0 -99 0 -91 c 2,12,-1
 0 91 l 2,13,14
 0 100 0 100 6 105 c 0,15,16
 13 112 13 112 22 112 c 0,17,18
 28 112 28 112 30 111 c 2,19,-1
 481 -70 l 2,20,21
 495 -75 495 -75 495 -91 c 0,3,4
EndSplineSet
Validated: 1
EndChar

StartChar: uniE14C
Encoding: 57676 57676 56
Width: 346
GlyphClass: 2
Flags: W
LayerCount: 2
Fore
SplineSet
101 69 m 1,0,-1
 304 -52 l 1,1,-1
 304 69 l 1,2,-1
 101 69 l 1,0,-1
0 91 m 0,3,4
 0 100 0 100 6 105 c 0,5,6
 13 112 13 112 22 112 c 2,7,-1
 326 112 l 2,8,9
 335 112 335 112 341 105 c 0,10,11
 347 99 347 99 347 91 c 2,12,-1
 347 -91 l 2,13,14
 347 -100 347 -100 341 -105 c 0,15,16
 335 -112 335 -112 326 -112 c 0,17,18
 318 -112 318 -112 314 -109 c 2,19,-1
 11 72 l 2,20,21
 0 78 0 78 0 91 c 0,3,4
EndSplineSet
Validated: 1
EndChar

StartChar: uniE14D
Encoding: 57677 57677 57
Width: 346
GlyphClass: 2
Flags: W
LayerCount: 2
Fore
SplineSet
246 -69 m 1,0,-1
 44 52 l 1,1,-1
 44 -69 l 1,2,-1
 246 -69 l 1,0,-1
347 -89 m 128,-1,4
 347 -100 347 -100 341 -105 c 0,5,6
 335 -112 335 -112 326 -112 c 2,7,-1
 22 -112 l 2,8,9
 13 -112 13 -112 7 -105 c 0,10,11
 0 -99 0 -99 0 -91 c 2,12,-1
 0 91 l 2,13,14
 0 100 0 100 6 105 c 0,15,16
 13 112 13 112 22 112 c 0,17,18
 28 112 28 112 39 105 c 2,19,-1
 332 -69 l 2,20,3
 347 -78 347 -78 347 -89 c 128,-1,4
EndSplineSet
Validated: 1
EndChar

StartChar: uniE14E
Encoding: 57678 57678 58
Width: 328
GlyphClass: 2
Flags: W
LayerCount: 2
Fore
SplineSet
0 91 m 0,0,1
 0 100 0 100 6 105 c 0,2,3
 13 112 13 112 22 112 c 2,4,-1
 307 112 l 2,5,6
 316 112 316 112 322 105 c 0,7,8
 329 99 329 99 329 91 c 2,9,-1
 329 -91 l 2,10,11
 329 -100 329 -100 322 -105 c 1,12,13
 316 -112 316 -112 307 -112 c 0,14,15
 301 -112 301 -112 295 -109 c 2,16,-1
 10 72 l 2,17,18
 0 79 0 79 0 91 c 0,0,1
EndSplineSet
Validated: 1
EndChar

StartChar: uniE14F
Encoding: 57679 57679 59
Width: 328
GlyphClass: 2
Flags: W
LayerCount: 2
Fore
SplineSet
329 -91 m 0,0,1
 329 -100 329 -100 322 -105 c 1,2,3
 316 -112 316 -112 307 -112 c 2,4,-1
 22 -112 l 2,5,6
 13 -112 13 -112 7 -105 c 0,7,8
 0 -99 0 -99 0 -91 c 2,9,-1
 0 91 l 2,10,11
 0 100 0 100 6 105 c 0,12,13
 13 112 13 112 22 112 c 0,14,15
 28 112 28 112 34 109 c 2,16,-1
 319 -72 l 2,17,18
 329 -79 329 -79 329 -91 c 0,0,1
EndSplineSet
Validated: 1
EndChar

StartChar: uniE150
Encoding: 57680 57680 60
Width: 494
GlyphClass: 2
Flags: W
LayerCount: 2
Fore
SplineSet
44 69 m 1,0,-1
 44 -69 l 1,1,-1
 451 -69 l 1,2,-1
 451 69 l 1,3,-1
 44 69 l 1,0,-1
22 112 m 2,4,-1
 473 112 l 2,5,6
 482 112 482 112 488 105 c 0,7,8
 495 99 495 99 495 91 c 2,9,-1
 495 -91 l 2,10,11
 495 -100 495 -100 488 -105 c 1,12,13
 482 -112 482 -112 473 -112 c 2,14,-1
 22 -112 l 2,15,16
 13 -112 13 -112 7 -105 c 0,17,18
 0 -99 0 -99 0 -91 c 2,19,-1
 0 91 l 2,20,21
 0 100 0 100 7 105 c 0,22,23
 13 112 13 112 22 112 c 2,4,-1
EndSplineSet
Validated: 1
EndChar

StartChar: uniE151
Encoding: 57681 57681 61
Width: 346
GlyphClass: 2
Flags: W
LayerCount: 2
Fore
SplineSet
44 69 m 1,0,-1
 44 -69 l 1,1,-1
 304 -69 l 1,2,-1
 304 69 l 1,3,-1
 44 69 l 1,0,-1
22 112 m 2,4,-1
 326 112 l 2,5,6
 335 112 335 112 341 105 c 0,7,8
 347 99 347 99 347 91 c 2,9,-1
 347 -91 l 2,10,11
 347 -100 347 -100 341 -105 c 0,12,13
 335 -112 335 -112 326 -112 c 2,14,-1
 22 -112 l 2,15,16
 13 -112 13 -112 7 -105 c 0,17,18
 0 -99 0 -99 0 -91 c 2,19,-1
 0 91 l 2,20,21
 0 100 0 100 7 105 c 0,22,23
 13 112 13 112 22 112 c 2,4,-1
EndSplineSet
Validated: 1
EndChar

StartChar: uniE152
Encoding: 57682 57682 62
Width: 328
GlyphClass: 2
Flags: W
LayerCount: 2
Fore
SplineSet
22 112 m 2,0,-1
 307 112 l 2,1,2
 316 112 316 112 322 105 c 0,3,4
 329 99 329 99 329 91 c 2,5,-1
 329 -91 l 2,6,7
 329 -100 329 -100 322 -105 c 1,8,9
 316 -112 316 -112 307 -112 c 2,10,-1
 22 -112 l 2,11,12
 13 -112 13 -112 7 -105 c 0,13,14
 0 -99 0 -99 0 -91 c 2,15,-1
 0 91 l 2,16,17
 0 100 0 100 7 105 c 0,18,19
 13 112 13 112 22 112 c 2,0,-1
EndSplineSet
Validated: 1
EndChar

StartChar: uniE153
Encoding: 57683 57683 63
Width: 494
GlyphClass: 2
Flags: W
LayerCount: 2
Fore
SplineSet
248 -66 m 1,0,-1
 427 26 l 1,1,2
 339 69 339 69 248 69 c 0,3,4
 156 69 156 69 68 26 c 1,5,-1
 248 -66 l 1,0,-1
0 25 m 0,6,7
 0 49 0 49 82 82 c 0,8,9
 164 113 164 113 248 113 c 0,10,11
 374 113 374 113 483 45 c 0,12,13
 495 37 495 37 495 25 c 0,14,15
 495 11 495 11 483 6 c 2,16,-1
 258 -110 l 2,17,18
 254 -112 254 -112 248 -112 c 128,-1,19
 242 -112 242 -112 238 -110 c 2,20,-1
 12 6 l 2,21,22
 0 11 0 11 0 25 c 0,6,7
EndSplineSet
Validated: 1
EndChar

StartChar: uniE154
Encoding: 57684 57684 64
Width: 346
GlyphClass: 2
Flags: W
LayerCount: 2
Fore
SplineSet
174 -63 m 1,0,-1
 292 27 l 1,1,2
 241 69 241 69 173.5 69 c 128,-1,3
 106 69 106 69 56 27 c 1,4,-1
 174 -63 l 1,0,-1
174 112 m 128,-1,6
 222 112 222 112 262 94 c 1,7,8
 303 77 303 77 326 56 c 0,9,10
 347 35 347 35 348 24 c 0,11,12
 348 15 348 15 339 8 c 2,13,-1
 187 -108 l 2,14,15
 183 -112 183 -112 174 -112 c 0,16,17
 164 -112 164 -112 160 -108 c 2,18,-1
 9 8 l 2,19,20
 0 16 0 16 0 24 c 0,21,22
 0 36 0 36 21 57 c 1,23,24
 44 77 44 77 86 94 c 1,25,5
 126 112 126 112 174 112 c 128,-1,6
EndSplineSet
Validated: 1
EndChar

StartChar: uniE155
Encoding: 57685 57685 65
Width: 346
GlyphClass: 2
Flags: W
LayerCount: 2
Fore
SplineSet
174 -63 m 1,0,-1
 292 27 l 1,1,2
 241 69 241 69 173.5 69 c 128,-1,3
 106 69 106 69 56 27 c 1,4,-1
 174 -63 l 1,0,-1
174 112 m 128,-1,6
 222 112 222 112 262 94 c 1,7,8
 303 77 303 77 326 56 c 0,9,10
 347 35 347 35 348 24 c 0,11,12
 348 15 348 15 339 8 c 2,13,-1
 187 -108 l 2,14,15
 183 -112 183 -112 174 -112 c 0,16,17
 164 -112 164 -112 160 -108 c 2,18,-1
 9 8 l 2,19,20
 0 16 0 16 0 24 c 0,21,22
 0 36 0 36 21 57 c 1,23,24
 44 77 44 77 86 94 c 1,25,5
 126 112 126 112 174 112 c 128,-1,6
EndSplineSet
Validated: 1
EndChar

StartChar: uniE156
Encoding: 57686 57686 66
Width: 328
GlyphClass: 2
Flags: W
LayerCount: 2
Fore
SplineSet
165 112 m 0,0,1
 198 112 198 112 232 102 c 1,2,3
 265 90 265 90 285 74 c 0,4,5
 306 56 306 56 316 45 c 1,6,7
 329 32 329 32 329 24 c 0,8,9
 329 15 329 15 321 8 c 1,10,-1
 178 -108 l 2,11,12
 174 -112 174 -112 165 -112 c 0,13,14
 155 -112 155 -112 151 -108 c 2,15,-1
 8 8 l 2,16,17
 0 14 0 14 0 24 c 0,18,19
 0 34 0 34 20 56 c 1,20,21
 41 77 41 77 80 94 c 0,22,23
 120 112 120 112 165 112 c 0,0,1
EndSplineSet
Validated: 1
EndChar

StartChar: uniE157
Encoding: 57687 57687 67
Width: 328
GlyphClass: 2
Flags: W
LayerCount: 2
Fore
SplineSet
165 112 m 0,0,1
 198 112 198 112 232 102 c 1,2,3
 265 90 265 90 285 74 c 0,4,5
 306 56 306 56 316 45 c 1,6,7
 329 32 329 32 329 24 c 0,8,9
 329 15 329 15 321 8 c 1,10,-1
 178 -108 l 2,11,12
 174 -112 174 -112 165 -112 c 0,13,14
 155 -112 155 -112 151 -108 c 2,15,-1
 8 8 l 2,16,17
 0 14 0 14 0 24 c 0,18,19
 0 34 0 34 20 56 c 1,20,21
 41 77 41 77 80 94 c 0,22,23
 120 112 120 112 165 112 c 0,0,1
EndSplineSet
Validated: 1
EndChar

StartChar: uniE158
Encoding: 57688 57688 68
Width: 662
GlyphClass: 2
Flags: W
LayerCount: 2
Fore
SplineSet
265 67.5 m 128,-1,1
 265 96 265 96 284.5 115.5 c 128,-1,2
 304 135 304 135 332 135 c 128,-1,3
 360 135 360 135 379.5 115.5 c 128,-1,4
 399 96 399 96 399 67.5 c 128,-1,5
 399 39 399 39 379.5 19.5 c 128,-1,6
 360 0 360 0 332 0 c 128,-1,7
 304 0 304 0 284.5 19.5 c 128,-1,0
 265 39 265 39 265 67.5 c 128,-1,1
332.5 381 m 128,-1,9
 395 381 395 381 445 355 c 1,10,11
 501 330 501 330 533 292 c 1,12,13
 569 251 569 251 595 209 c 0,14,15
 621 166 621 166 636 122 c 0,16,17
 649 86 649 86 657 52 c 0,18,19
 664 26 664 26 664 15 c 0,20,21
 664 10 664 10 658 4 c 1,22,23
 650 0 650 0 646 0 c 0,24,25
 631 0 631 0 626 18 c 1,26,27
 607 128 607 128 524 205 c 1,28,29
 441 279 441 279 332 279 c 128,-1,30
 223 279 223 279 140 205 c 1,31,32
 57 128 57 128 38 18 c 0,33,34
 35 0 35 0 19 0 c 0,35,36
 14 0 14 0 6 4 c 1,37,38
 0 10 0 10 0 15 c 0,39,40
 0 26 0 26 7 52 c 0,41,42
 16 86 16 86 28 122 c 0,43,44
 43 166 43 166 69 209 c 0,45,46
 94 251 94 251 131 292 c 0,47,48
 165 332 165 332 219 355 c 1,49,8
 270 381 270 381 332.5 381 c 128,-1,9
EndSplineSet
Validated: 1
EndChar

StartChar: uniE159
Encoding: 57689 57689 69
Width: 662
GlyphClass: 2
Flags: W
LayerCount: 2
Fore
SplineSet
265 -67.5 m 128,-1,1
 265 -39 265 -39 284.5 -19.5 c 128,-1,2
 304 0 304 0 332 0 c 128,-1,3
 360 0 360 0 379.5 -19.5 c 128,-1,4
 399 -39 399 -39 399 -67.5 c 128,-1,5
 399 -96 399 -96 379.5 -115.5 c 128,-1,6
 360 -135 360 -135 332 -135 c 128,-1,7
 304 -135 304 -135 284.5 -115.5 c 128,-1,0
 265 -96 265 -96 265 -67.5 c 128,-1,1
332.5 -381 m 128,-1,9
 270 -381 270 -381 219 -355 c 1,10,11
 165 -332 165 -332 131 -292 c 0,12,13
 95 -251 95 -251 69 -209 c 0,14,15
 43 -166 43 -166 28 -122 c 0,16,17
 15 -86 15 -86 7 -52 c 0,18,19
 0 -26 0 -26 0 -15 c 0,20,21
 0 -10 0 -10 6 -4 c 1,22,23
 14 0 14 0 19 0 c 0,24,25
 34 0 34 0 38 -18 c 1,26,27
 57 -128 57 -128 140 -205 c 1,28,29
 223 -279 223 -279 332 -279 c 128,-1,30
 441 -279 441 -279 524 -205 c 1,31,32
 607 -128 607 -128 626 -18 c 0,33,34
 629 0 629 0 646 0 c 0,35,36
 651 0 651 0 658 -4 c 1,37,38
 664 -10 664 -10 664 -15 c 0,39,40
 664 -26 664 -26 657 -52 c 0,41,42
 648 -86 648 -86 636 -122 c 0,43,44
 621 -166 621 -166 595 -209 c 0,45,46
 570 -251 570 -251 533 -292 c 1,47,48
 501 -330 501 -330 445 -355 c 1,49,8
 395 -381 395 -381 332.5 -381 c 128,-1,9
EndSplineSet
Validated: 1
EndChar

StartChar: uniE15A
Encoding: 57690 57690 70
Width: 500
GlyphClass: 2
Flags: W
LayerCount: 2
Fore
SplineSet
159 66.5 m 128,-1,1
 159 94 159 94 178.5 113.5 c 128,-1,2
 198 133 198 133 225.5 133 c 128,-1,3
 253 133 253 133 272.5 113.5 c 128,-1,4
 292 94 292 94 292 66.5 c 128,-1,5
 292 39 292 39 272.5 19.5 c 128,-1,6
 253 0 253 0 225.5 0 c 128,-1,7
 198 0 198 0 178.5 19.5 c 128,-1,0
 159 39 159 39 159 66.5 c 128,-1,1
19 0 m 0,8,9
 12 0 12 0 6 6 c 128,-1,10
 0 12 0 12 0 19 c 0,11,12
 0 23 0 23 5 34 c 2,13,-1
 233 539 l 2,14,15
 238 550 238 550 250 550 c 128,-1,16
 262 550 262 550 267 539 c 2,17,-1
 495 33 l 2,18,19
 499 26 499 26 499 17.5 c 128,-1,20
 499 9 499 9 494 4 c 0,21,22
 490 0 490 0 481 0 c 2,23,-1
 432 0 l 2,24,25
 420 0 420 0 415 11 c 2,26,-1
 225 429 l 1,27,-1
 36 11 l 2,28,29
 32 0 32 0 19 0 c 0,8,9
EndSplineSet
Validated: 1
EndChar

StartChar: uniE15B
Encoding: 57691 57691 71
Width: 500
GlyphClass: 2
Flags: W
LayerCount: 2
Fore
SplineSet
341 -66 m 0,0,1
 341 -94 341 -94 322 -113 c 0,2,3
 302 -133 302 -133 275 -133 c 0,4,5
 246 -133 246 -133 228 -113 c 1,6,7
 208 -95 208 -95 208 -66 c 0,8,9
 208 -39 208 -39 227.5 -19.5 c 128,-1,10
 247 0 247 0 275 0 c 0,11,12
 300 0 300 0 322 -20 c 1,13,14
 341 -40 341 -40 341 -66 c 0,0,1
481 0 m 0,15,16
 490 0 490 0 494 -6 c 1,17,18
 500 -10 500 -10 500 -19 c 2,19,-1
 500 -20 l 1,20,21
 499 -21 499 -21 498.5 -22.5 c 128,-1,22
 498 -24 498 -24 498 -26 c 2,23,-1
 267 -539 l 2,24,25
 262 -550 262 -550 250 -550 c 128,-1,26
 238 -550 238 -550 233 -539 c 2,27,-1
 2 -26 l 1,28,-1
 0 -19 l 1,29,30
 0 -10 0 -10 6 -6 c 1,31,32
 10 0 10 0 19 0 c 2,33,-1
 68 0 l 2,34,35
 80 0 80 0 85 -11 c 2,36,-1
 275 -429 l 1,37,-1
 464 -11 l 2,38,39
 469 0 469 0 481 0 c 0,15,16
EndSplineSet
Validated: 1
EndChar

StartChar: uniE15C
Encoding: 57692 57692 72
Width: 623
GlyphClass: 2
Flags: W
LayerCount: 2
Fore
SplineSet
244 67.5 m 128,-1,1
 244 96 244 96 263.5 115.5 c 128,-1,2
 283 135 283 135 311.5 135 c 128,-1,3
 340 135 340 135 359.5 115.5 c 128,-1,4
 379 96 379 96 379 67.5 c 128,-1,5
 379 39 379 39 359.5 19.5 c 128,-1,6
 340 0 340 0 311.5 0 c 128,-1,7
 283 0 283 0 263.5 19.5 c 128,-1,0
 244 39 244 39 244 67.5 c 128,-1,1
10 375 m 2,8,-1
 614 375 l 2,9,10
 625 375 625 375 625 365 c 2,11,-1
 625 19 l 2,12,13
 625 12 625 12 619 6 c 128,-1,14
 613 0 613 0 605.5 0 c 128,-1,15
 598 0 598 0 592 6 c 1,16,17
 587 13 587 13 587 19 c 2,18,-1
 587 275 l 1,19,-1
 36 275 l 1,20,-1
 36 19 l 2,21,22
 36 13 36 13 31 6 c 1,23,24
 25 0 25 0 18 0 c 256,25,26
 10 0 10 0 6 6 c 1,27,28
 0 10 0 10 0 19 c 2,29,-1
 0 365 l 2,30,31
 0 375 0 375 10 375 c 2,8,-1
EndSplineSet
Validated: 1
EndChar

StartChar: uniE15D
Encoding: 57693 57693 73
Width: 623
GlyphClass: 2
Flags: W
LayerCount: 2
Fore
SplineSet
244 -67.5 m 128,-1,1
 244 -39 244 -39 263.5 -19.5 c 128,-1,2
 283 0 283 0 311.5 0 c 128,-1,3
 340 0 340 0 359.5 -19.5 c 128,-1,4
 379 -39 379 -39 379 -67.5 c 128,-1,5
 379 -96 379 -96 359.5 -115.5 c 128,-1,6
 340 -135 340 -135 311.5 -135 c 128,-1,7
 283 -135 283 -135 263.5 -115.5 c 128,-1,0
 244 -96 244 -96 244 -67.5 c 128,-1,1
10 -375 m 2,8,9
 0 -375 0 -375 0 -365 c 2,10,-1
 0 -19 l 2,11,12
 0 -10 0 -10 6 -6 c 1,13,14
 10 0 10 0 18 0 c 256,15,16
 26 0 26 0 31 -6 c 1,17,18
 36 -13 36 -13 36 -19 c 2,19,-1
 36 -275 l 1,20,-1
 587 -275 l 1,21,-1
 587 -19 l 2,22,23
 587 -13 587 -13 592 -6 c 1,24,25
 598 0 598 0 605.5 0 c 128,-1,26
 613 0 613 0 619 -6 c 128,-1,27
 625 -12 625 -12 625 -19 c 2,28,-1
 625 -365 l 2,29,30
 625 -375 625 -375 614 -375 c 2,31,-1
 10 -375 l 2,8,9
EndSplineSet
Validated: 1
EndChar

StartChar: uniE15E
Encoding: 57694 57694 74
Width: 765
GlyphClass: 2
Flags: W
LayerCount: 2
Fore
SplineSet
331 59.5 m 128,-1,1
 331 84 331 84 348.5 101.5 c 128,-1,2
 366 119 366 119 390.5 119 c 128,-1,3
 415 119 415 119 432.5 101.5 c 128,-1,4
 450 84 450 84 450 59.5 c 128,-1,5
 450 35 450 35 432.5 17.5 c 128,-1,6
 415 0 415 0 390.5 0 c 128,-1,7
 366 0 366 0 348.5 17.5 c 128,-1,0
 331 35 331 35 331 59.5 c 128,-1,1
150 225 m 2,8,-1
 631 225 l 2,9,10
 641 225 641 225 641 215 c 2,11,-1
 641 19 l 2,12,13
 641 12 641 12 635 6 c 128,-1,14
 629 0 629 0 621 0 c 0,15,16
 614 0 614 0 608.5 6 c 128,-1,17
 603 12 603 12 603 19 c 2,18,-1
 603 150 l 1,19,-1
 179 150 l 1,20,-1
 179 19 l 2,21,22
 179 12 179 12 173 6 c 128,-1,23
 167 0 167 0 160 0 c 0,24,25
 152 0 152 0 146.5 6 c 128,-1,26
 141 12 141 12 141 19 c 2,27,-1
 141 215 l 2,28,29
 140 225 140 225 150 225 c 2,8,-1
25 400 m 2,30,-1
 756 400 l 2,31,32
 766 400 766 400 766 390 c 2,33,-1
 766 19 l 2,34,35
 766 12 766 12 760 6 c 1,36,37
 756 0 756 0 746 0 c 0,38,39
 738 0 738 0 732 6 c 1,40,41
 727 13 727 13 728 19 c 2,42,-1
 728 275 l 1,43,-1
 54 275 l 1,44,-1
 54 19 l 2,45,46
 54 13 54 13 49 6 c 1,47,48
 43 0 43 0 35 0 c 0,49,50
 26 0 26 0 21 6 c 0,51,52
 15 12 15 12 16 19 c 2,53,-1
 16 390 l 2,54,55
 15 400 15 400 25 400 c 2,30,-1
EndSplineSet
Validated: 1
EndChar

StartChar: uniE15F
Encoding: 57695 57695 75
Width: 765
GlyphClass: 2
Flags: W
LayerCount: 2
Fore
SplineSet
331 -59.5 m 128,-1,1
 331 -35 331 -35 348.5 -17.5 c 128,-1,2
 366 0 366 0 390.5 0 c 128,-1,3
 415 0 415 0 432.5 -17.5 c 128,-1,4
 450 -35 450 -35 450 -59.5 c 128,-1,5
 450 -84 450 -84 432.5 -101.5 c 128,-1,6
 415 -119 415 -119 390.5 -119 c 128,-1,7
 366 -119 366 -119 348.5 -101.5 c 128,-1,0
 331 -84 331 -84 331 -59.5 c 128,-1,1
150 -225 m 2,8,9
 140 -225 140 -225 141 -215 c 2,10,-1
 141 -19 l 2,11,12
 141 -12 141 -12 146.5 -6 c 128,-1,13
 152 0 152 0 160 0 c 0,14,15
 167 0 167 0 173 -6 c 128,-1,16
 179 -12 179 -12 179 -19 c 2,17,-1
 179 -150 l 1,18,-1
 603 -150 l 1,19,-1
 603 -19 l 2,20,21
 603 -12 603 -12 608.5 -6 c 128,-1,22
 614 0 614 0 621 0 c 0,23,24
 629 0 629 0 635 -6 c 128,-1,25
 641 -12 641 -12 641 -19 c 2,26,-1
 641 -215 l 2,27,28
 641 -225 641 -225 631 -225 c 2,29,-1
 150 -225 l 2,8,9
25 -400 m 2,30,31
 15 -400 15 -400 16 -390 c 2,32,-1
 16 -19 l 2,33,34
 16 -12 16 -12 21 -6 c 0,35,36
 26 0 26 0 35 0 c 0,37,38
 43 0 43 0 49 -6 c 1,39,40
 54 -13 54 -13 54 -19 c 2,41,-1
 54 -275 l 1,42,-1
 728 -275 l 1,43,-1
 728 -19 l 2,44,45
 728 -13 728 -13 732 -6 c 1,46,47
 738 0 738 0 746 0 c 0,48,49
 756 0 756 0 760 -6 c 1,50,51
 766 -12 766 -12 766 -19 c 2,52,-1
 766 -390 l 2,53,54
 766 -401 766 -401 756 -400 c 2,55,-1
 25 -400 l 2,30,31
EndSplineSet
Validated: 1
EndChar

StartChar: uniE160
Encoding: 57696 57696 76
Width: 198
GlyphClass: 2
Flags: W
LayerCount: 2
Fore
SplineSet
121 75 m 1,0,-1
 124 24 l 2,1,2
 125 14 125 14 117 7 c 0,3,4
 110 0 110 0 99.5 0 c 128,-1,5
 89 0 89 0 82 7 c 0,6,7
 74 15 74 15 75 24 c 2,8,-1
 78 75 l 1,9,-1
 78 77 l 1,10,11
 42 86 42 86 21 121 c 1,12,13
 0 155 0 155 0 200 c 0,14,15
 0 252 0 252 27 288 c 0,16,17
 55 325 55 325 99.5 325 c 128,-1,18
 144 325 144 325 172 288 c 0,19,20
 199 252 199 252 199 200 c 0,21,22
 199 155 199 155 178 121 c 0,23,24
 156 86 156 86 121 77 c 1,25,-1
 121 75 l 1,0,-1
147 200 m 128,-1,27
 147 295 147 295 100 295 c 0,28,29
 53 295 53 295 53 200 c 128,-1,30
 53 105 53 105 100 105 c 0,31,26
 147 105 147 105 147 200 c 128,-1,27
EndSplineSet
Validated: 1
EndChar

StartChar: uniE161
Encoding: 57697 57697 77
Width: 450
GlyphClass: 2
Flags: W
LayerCount: 2
Fore
SplineSet
451 128.5 m 128,-1,1
 451 110 451 110 433 110 c 1,2,-1
 21 4 l 2,3,4
 19 3 19 3 15 3 c 0,5,6
 2 3 2 3 2 22 c 0,7,8
 2 38 2 38 16 41 c 2,9,-1
 267 105 l 1,10,-1
 406 129 l 1,11,-1
 267 152 l 1,12,-1
 16 217 l 2,13,14
 2 220 2 220 2 235 c 0,15,16
 2 255 2 255 15 255 c 0,17,18
 19 255 19 255 21 254 c 2,19,-1
 433 147 l 1,20,0
 451 147 451 147 451 128.5 c 128,-1,1
EndSplineSet
Validated: 1
EndChar

StartChar: uniE162
Encoding: 57698 57698 78
Width: 474
GlyphClass: 2
Flags: W
LayerCount: 2
Fore
SplineSet
-475 0 m 128,-1,1
 -475 19 -475 19 -456 19 c 1,2,-1
 -53 124 l 2,3,4
 -50 125 -50 125 -45 125 c 0,5,6
 -30 125 -30 125 -30 104 c 0,7,8
 -30 93 -30 93 -44 88 c 1,9,-1
 -292 23 l 1,10,-1
 -434 0 l 1,11,-1
 -292 -23 l 1,12,-1
 -44 -88 l 1,13,14
 -30 -93 -30 -93 -30 -103 c 0,15,16
 -30 -125 -30 -125 -45 -125 c 2,17,-1
 -49 -125 l 1,18,-1
 -456 -19 l 1,19,0
 -475 -19 -475 -19 -475 0 c 128,-1,1
475 0 m 128,-1,21
 475 -19 475 -19 456 -19 c 1,22,-1
 49 -125 l 1,23,-1
 45 -125 l 2,24,25
 30 -125 30 -125 30 -103 c 0,26,27
 30 -93 30 -93 44 -88 c 1,28,-1
 292 -23 l 1,29,-1
 434 0 l 1,30,-1
 292 23 l 1,31,-1
 44 88 l 1,32,33
 30 93 30 93 30 104 c 0,34,35
 30 125 30 125 45 125 c 0,36,37
 50 125 50 125 53 124 c 2,38,-1
 456 19 l 1,39,20
 475 19 475 19 475 0 c 128,-1,21
EndSplineSet
Validated: 1
EndChar

StartChar: uniE163
Encoding: 57699 57699 79
Width: 97
GlyphClass: 2
Flags: W
LayerCount: 2
Fore
SplineSet
-1 48.5 m 128,-1,1
 -1 69 -1 69 13.5 84 c 128,-1,2
 28 99 28 99 48.5 99 c 128,-1,3
 69 99 69 99 84 84 c 128,-1,4
 99 69 99 69 99 48.5 c 128,-1,5
 99 28 99 28 84 13.5 c 128,-1,6
 69 -1 69 -1 48.5 -1 c 128,-1,7
 28 -1 28 -1 13.5 13.5 c 128,-1,0
 -1 28 -1 28 -1 48.5 c 128,-1,1
EndSplineSet
Validated: 1
EndChar

StartChar: uniE164
Encoding: 57700 57700 80
Width: 99
GlyphClass: 2
Flags: W
LayerCount: 2
Fore
SplineSet
38 13 m 1,0,-1
 0 220 l 1,1,2
 0 237 0 237 15 250 c 0,3,4
 29 263 29 263 51 263 c 128,-1,5
 73 263 73 263 87 250 c 0,6,7
 102 236 102 236 102 220 c 1,8,-1
 63 13 l 1,9,10
 62 0 62 0 50.5 0 c 128,-1,11
 39 0 39 0 38 13 c 1,0,-1
EndSplineSet
Validated: 1
EndChar

StartChar: uniE165
Encoding: 57701 57701 81
Width: 99
GlyphClass: 2
Flags: W
LayerCount: 2
Fore
SplineSet
38 -13 m 1,0,1
 39 0 39 0 50.5 0 c 128,-1,2
 62 0 62 0 63 -13 c 1,3,-1
 102 -220 l 1,4,5
 102 -237 102 -237 87 -250 c 0,6,7
 73 -263 73 -263 50.5 -263 c 128,-1,8
 28 -263 28 -263 15 -250 c 0,9,10
 0 -236 0 -236 0 -220 c 1,11,-1
 38 -13 l 1,0,1
EndSplineSet
Validated: 1
EndChar

StartChar: uniE166
Encoding: 57702 57702 82
Width: 298
GlyphClass: 2
Flags: W
LayerCount: 2
Fore
SplineSet
280 0 m 2,0,-1
 21 0 l 2,1,2
 14 0 14 0 6 6 c 1,3,4
 0 12 0 12 0 19.5 c 128,-1,5
 0 27 0 27 6 33 c 1,6,7
 14 39 14 39 21 39 c 2,8,-1
 280 39 l 2,9,10
 287 39 287 39 295 33 c 1,11,12
 301 27 301 27 301 19.5 c 128,-1,13
 301 12 301 12 295 6 c 1,14,15
 287 0 287 0 280 0 c 2,0,-1
EndSplineSet
Validated: 1
EndChar

StartChar: uniE167
Encoding: 57703 57703 83
Width: 300
GlyphClass: 2
Flags: W
LayerCount: 2
Fore
SplineSet
110 -40 m 128,-1,1
 110 -23 110 -23 122 -11.5 c 128,-1,2
 134 0 134 0 150.5 0 c 128,-1,3
 167 0 167 0 178.5 -11.5 c 128,-1,4
 190 -23 190 -23 190 -40 c 128,-1,5
 190 -57 190 -57 178.5 -68.5 c 128,-1,6
 167 -80 167 -80 150.5 -80 c 128,-1,7
 134 -80 134 -80 122 -68.5 c 128,-1,0
 110 -57 110 -57 110 -40 c 128,-1,1
282 -223 m 2,8,-1
 19 -223 l 2,9,10
 11 -223 11 -223 6 -218 c 0,11,12
 0 -213 0 -213 0 -205 c 128,-1,13
 0 -197 0 -197 6 -192 c 0,14,15
 11 -188 11 -188 19 -188 c 2,16,-1
 282 -188 l 2,17,18
 290 -188 290 -188 295 -192 c 0,19,20
 301 -197 301 -197 301 -205 c 128,-1,21
 301 -213 301 -213 295 -218 c 0,22,23
 290 -223 290 -223 282 -223 c 2,8,-1
EndSplineSet
Validated: 1
EndChar

StartChar: uniE168
Encoding: 57704 57704 84
Width: 300
GlyphClass: 2
Flags: W
LayerCount: 2
Fore
SplineSet
110 40 m 128,-1,1
 110 57 110 57 122 68.5 c 128,-1,2
 134 80 134 80 150.5 80 c 128,-1,3
 167 80 167 80 178.5 68.5 c 128,-1,4
 190 57 190 57 190 40 c 128,-1,5
 190 23 190 23 178.5 11.5 c 128,-1,6
 167 0 167 0 150.5 0 c 128,-1,7
 134 0 134 0 122 11.5 c 128,-1,0
 110 23 110 23 110 40 c 128,-1,1
282 223 m 2,8,9
 290 223 290 223 295 218 c 1,10,11
 301 214 301 214 301 205 c 0,12,13
 301 197 301 197 295 192 c 0,14,15
 290 188 290 188 282 188 c 2,16,-1
 19 188 l 2,17,18
 11 188 11 188 6 192 c 0,19,20
 0 197 0 197 0 205 c 128,-1,21
 0 213 0 213 6 218 c 0,22,23
 11 223 11 223 19 223 c 2,24,-1
 282 223 l 2,8,9
EndSplineSet
Validated: 1
EndChar

StartChar: uniE169
Encoding: 57705 57705 85
Width: 250
GlyphClass: 2
Flags: W
LayerCount: 2
Fore
SplineSet
13 0 m 0,0,1
 0 0 0 0 0 12 c 0,2,3
 0 17 0 17 1 18 c 2,4,-1
 114 268 l 2,5,6
 117 276 117 276 125 275 c 1,7,8
 133 273 133 273 136 268 c 2,9,-1
 249 18 l 2,10,11
 250 17 250 17 250 12 c 0,12,13
 250 0 250 0 237 0 c 2,14,-1
 171 0 l 2,15,16
 163 0 163 0 159 7 c 2,17,-1
 91 157 l 1,18,-1
 24 7 l 2,19,20
 21 0 21 0 13 0 c 0,0,1
EndSplineSet
Validated: 1
EndChar

StartChar: uniE16A
Encoding: 57706 57706 86
Width: 250
GlyphClass: 2
Flags: W
LayerCount: 2
Fore
SplineSet
237 0 m 0,0,1
 250 0 250 0 250 -12 c 0,2,3
 250 -17 250 -17 249 -18 c 2,4,-1
 136 -268 l 2,5,6
 133 -276 133 -276 125 -275.5 c 128,-1,7
 117 -275 117 -275 114 -268 c 2,8,-1
 1 -18 l 2,9,10
 0 -17 0 -17 0 -12 c 0,11,12
 0 0 0 0 13 0 c 2,13,-1
 79 0 l 2,14,15
 87 0 87 0 91 -7 c 2,16,-1
 159 -157 l 1,17,-1
 226 -7 l 2,18,19
 229 0 229 0 237 0 c 0,0,1
EndSplineSet
Validated: 1
EndChar

StartChar: uniE16B
Encoding: 57707 57707 87
Width: 199
GlyphClass: 2
Flags: W
LayerCount: 2
Fore
SplineSet
199 125 m 128,-1,1
 199 75 199 75 172 37 c 1,2,3
 143 0 143 0 100 0 c 128,-1,4
 57 0 57 0 27 37 c 1,5,6
 0 75 0 75 0 125 c 128,-1,7
 0 175 0 175 27 213 c 1,8,9
 56 250 56 250 99.5 250 c 128,-1,10
 143 250 143 250 172 213 c 1,11,0
 199 175 199 175 199 125 c 128,-1,1
156 125 m 128,-1,13
 156 164 156 164 143 191 c 1,14,15
 130 219 130 219 99.5 219.5 c 128,-1,16
 69 220 69 220 57 191 c 1,17,18
 43 164 43 164 43 125 c 128,-1,19
 43 86 43 86 57 59 c 1,20,21
 70 31 70 31 100 30.5 c 128,-1,22
 130 30 130 30 143 59 c 1,23,12
 156 86 156 86 156 125 c 128,-1,13
EndSplineSet
Validated: 33
EndChar

StartChar: uniE16C
Encoding: 57708 57708 88
Width: 275
GlyphClass: 2
Flags: W
LayerCount: 2
Fore
SplineSet
137.5 0 m 128,-1,1
 127 0 127 0 120 8 c 0,2,3
 112 16 112 16 112 25 c 2,4,-1
 112 112 l 1,5,-1
 25 112 l 2,6,7
 13 112 13 112 8 120 c 1,8,9
 0 127 0 127 0 137.5 c 128,-1,10
 0 148 0 148 8 155 c 0,11,12
 16 163 16 163 25 163 c 2,13,-1
 112 163 l 1,14,-1
 112 250 l 2,15,16
 112 262 112 262 120 268 c 1,17,18
 127 276 127 276 137.5 275.5 c 128,-1,19
 148 275 148 275 155 268 c 1,20,21
 163 262 163 262 163 250 c 2,22,-1
 163 163 l 1,23,-1
 250 163 l 2,24,25
 262 163 262 163 268 155 c 1,26,27
 276 148 276 148 275.5 137.5 c 128,-1,28
 275 127 275 127 268 120 c 1,29,30
 262 112 262 112 250 112 c 2,31,-1
 163 112 l 1,32,-1
 163 25 l 2,33,34
 163 13 163 13 155 8 c 1,35,0
 148 0 148 0 137.5 0 c 128,-1,1
EndSplineSet
Validated: 1
EndChar

StartChar: uniE16D
Encoding: 57709 57709 89
Width: 324
GlyphClass: 2
Flags: W
LayerCount: 2
Fore
SplineSet
163.5 0 m 128,-1,1
 146 0 146 0 146 18 c 1,2,-1
 1 498 l 2,3,4
 0 500 0 500 0 505 c 0,5,6
 0 520 0 520 19 520 c 0,7,8
 33 520 33 520 35 508 c 2,9,-1
 163 81 l 1,10,-1
 291 508 l 2,11,12
 294 520 294 520 308 520 c 0,13,14
 327 520 327 520 326 505 c 0,15,16
 326 500 326 500 325 498 c 2,17,-1
 181 18 l 1,18,0
 181 0 181 0 163.5 0 c 128,-1,1
EndSplineSet
Validated: 1
EndChar

StartChar: uniE16E
Encoding: 57710 57710 90
Width: 375
GlyphClass: 2
Flags: W
LayerCount: 2
Fore
SplineSet
11 333 m 2,0,-1
 366 333 l 2,1,2
 377 333 377 333 377 323 c 2,3,-1
 377 15 l 2,4,5
 377 9 377 9 372 4 c 0,6,7
 368 0 368 0 361 0 c 128,-1,8
 354 0 354 0 351 4 c 0,9,10
 346 9 346 9 346 15 c 2,11,-1
 346 200 l 1,12,-1
 31 200 l 1,13,-1
 31 15 l 2,14,15
 31 8 31 8 27 4 c 128,-1,16
 23 0 23 0 16.5 0 c 128,-1,17
 10 0 10 0 6 4 c 1,18,19
 0 8 0 8 0 15 c 2,20,-1
 0 323 l 2,21,22
 0 333 0 333 11 333 c 2,0,-1
EndSplineSet
Validated: 1
EndChar

StartChar: uniE16F
Encoding: 57711 57711 91
Width: 545
GlyphClass: 2
Flags: W
LayerCount: 2
Fore
SplineSet
412 264 m 0,0,1
 469 264 469 264 508 225 c 0,2,3
 547 187 547 187 547 132 c 0,4,5
 547 78 547 78 514 39 c 0,6,7
 482 0 482 0 433 0 c 0,8,9
 405 0 405 0 385 16 c 1,10,11
 364 31 364 31 364 53 c 0,12,13
 364 77 364 77 380 92 c 1,14,15
 397 106 397 106 418 105 c 0,16,17
 454 105 454 105 467 75 c 1,18,19
 489 78 489 78 502 94 c 1,20,21
 517 109 517 109 517 132 c 128,-1,22
 517 155 517 155 498 170 c 1,23,24
 481 186 481 186 455 186 c 0,25,26
 424 186 424 186 391 166 c 0,27,28
 355 145 355 145 330 120 c 0,29,30
 322 112 322 112 312.5 103 c 128,-1,31
 303 94 303 94 291 82.5 c 128,-1,32
 279 71 279 71 272 65 c 0,33,34
 245 39 245 39 207 20 c 0,35,36
 171 0 171 0 135 0 c 0,37,38
 78 0 78 0 39 39 c 0,39,40
 0 77 0 77 0 132 c 0,41,42
 0 186 0 186 33 225 c 0,43,44
 65 264 65 264 114 264 c 0,45,46
 142 264 142 264 162 248 c 1,47,48
 183 233 183 233 183 211 c 0,49,50
 183 187 183 187 167 172 c 1,51,52
 150 158 150 158 129 158 c 0,53,54
 93 158 93 158 80 188 c 1,55,56
 58 185 58 185 45 170 c 1,57,58
 30 155 30 155 30 131.5 c 128,-1,59
 30 108 30 108 49 94 c 1,60,61
 66 78 66 78 92 78 c 0,62,63
 123 78 123 78 156 98 c 0,64,65
 192 119 192 119 217 144 c 0,66,67
 225 152 225 152 234.5 161 c 128,-1,68
 244 170 244 170 256 181 c 128,-1,69
 268 192 268 192 274 198 c 0,70,71
 301 224 301 224 340 244 c 0,72,73
 376 264 376 264 412 264 c 0,0,1
EndSplineSet
Validated: 33
EndChar

StartChar: uniE170
Encoding: 57712 57712 92
Width: 545
GlyphClass: 2
Flags: W
LayerCount: 2
Fore
SplineSet
412 0 m 0,0,1
 376 0 376 0 340 20 c 0,2,3
 302 40 302 40 274 65 c 0,4,5
 273 66 273 66 250.5 87.5 c 128,-1,6
 228 109 228 109 217 120 c 0,7,8
 193 144 193 144 156 166 c 0,9,10
 122 186 122 186 92 186 c 0,11,12
 66 186 66 186 49 170 c 1,13,14
 30 155 30 155 30 131.5 c 128,-1,15
 30 108 30 108 45 94 c 1,16,17
 59 78 59 78 80 75 c 1,18,19
 93 105 93 105 129 105 c 0,20,21
 151 105 151 105 168 92 c 1,22,23
 183 77 183 77 183 53 c 0,24,25
 183 30 183 30 162.5 15 c 128,-1,26
 142 0 142 0 114 0 c 0,27,28
 65 0 65 0 33 39 c 0,29,30
 0 78 0 78 0 132 c 0,31,32
 0 187 0 187 39 225 c 0,33,34
 78 264 78 264 135 264 c 0,35,36
 171 264 171 264 207 244 c 0,37,38
 245 224 245 224 272 198 c 0,39,40
 273 197 273 197 296 175.5 c 128,-1,41
 319 154 319 154 330 144 c 0,42,43
 354 120 354 120 391 98 c 0,44,45
 425 78 425 78 455 78 c 0,46,47
 481 78 481 78 498 94 c 1,48,49
 517 109 517 109 517 132 c 128,-1,50
 517 155 517 155 502 170 c 1,51,52
 488 186 488 186 467 188 c 1,53,54
 454 158 454 158 418 158 c 0,55,56
 396 158 396 158 379 172 c 1,57,58
 364 187 364 187 364 211 c 0,59,60
 364 234 364 234 384.5 249 c 128,-1,61
 405 264 405 264 433 264 c 0,62,63
 482 264 482 264 514 225 c 0,64,65
 547 186 547 186 547 132 c 0,66,67
 547 77 547 77 508 39 c 0,68,69
 469 0 469 0 412 0 c 0,0,1
EndSplineSet
Validated: 1
EndChar

StartChar: uniE171
Encoding: 57713 57713 93
Width: 665
GlyphClass: 2
Flags: W
LayerCount: 2
Fore
SplineSet
0 223 m 0,0,1
 0 256 0 256 27 279 c 0,2,3
 53 302 53 302 96.5 302.5 c 128,-1,4
 140 303 140 303 179 278 c 1,5,-1
 225 510 l 1,6,7
 237 505 237 505 244 505 c 0,8,9
 274 505 274 505 312 540 c 1,10,-1
 259 274 l 1,11,-1
 323 310 l 1,12,13
 359 329 359 329 397 330 c 1,14,15
 444 330 444 330 461 302 c 1,16,17
 488 332 488 332 530 332 c 0,18,19
 559 332 559 332 580 314 c 1,20,21
 600 294 600 294 600 263 c 0,22,23
 600 229 600 229 580 200 c 0,24,25
 561 173 561 173 534 173 c 0,26,27
 516 173 516 173 506 187 c 0,28,29
 496 200 496 200 496 221 c 0,30,31
 496 255 496 255 516 270 c 1,32,33
 535 286 535 286 557 285 c 2,34,-1
 560 285 l 1,35,36
 549 305 549 305 521 305 c 0,37,38
 501 305 501 305 486 293 c 256,39,40
 470 281 470 281 466 262 c 2,41,-1
 412 -8 l 1,42,43
 395 3 395 3 374.5 3 c 128,-1,44
 354 3 354 3 331 -8 c 1,45,-1
 386 262 l 1,46,-1
 386 269 l 2,47,48
 386 295 386 295 356 295 c 0,49,50
 345 295 345 295 332 288 c 2,51,-1
 253 244 l 1,52,-1
 246 213 l 1,53,54
 296 155 296 155 296 104 c 0,55,56
 296 60 296 60 266.5 24.5 c 128,-1,57
 237 -11 237 -11 198 -11 c 0,58,59
 170 -11 170 -11 156 16 c 0,60,61
 142 43 142 43 143 80 c 0,62,63
 143 106 143 106 146 121 c 1,64,-1
 161 197 l 1,65,66
 99 172 99 172 61 172 c 0,67,68
 27 172 27 172 14 188 c 0,69,70
 0 204 0 204 0 223 c 0,0,1
25 227 m 0,71,72
 25 198 25 198 64 197 c 0,73,74
 106 197 106 197 167 225 c 1,75,-1
 172 249 l 1,76,77
 132 278 132 278 91 278 c 0,78,79
 58 278 58 278 41 262 c 0,80,81
 25 247 25 247 25 227 c 0,71,72
236.5 39 m 128,-1,83
 251 39 251 39 262 59 c 0,84,85
 272 78 272 78 271 100 c 0,86,87
 271 137 271 137 239 178 c 1,88,-1
 234 151 l 1,89,90
 221 94 221 94 222 68 c 0,91,82
 222 39 222 39 236.5 39 c 128,-1,83
EndSplineSet
Validated: 33
EndChar

StartChar: uniE172
Encoding: 57714 57714 94
Width: 250
GlyphClass: 2
Flags: W
LayerCount: 2
Fore
SplineSet
125 38 m 128,-1,1
 161 38 161 38 186.5 63.5 c 128,-1,2
 212 89 212 89 212 125 c 2,3,-1
 212 273 l 2,4,5
 212 280 212 280 217 287 c 1,6,7
 224 292 224 292 230 292 c 0,8,9
 239 292 239 292 244 287 c 0,10,11
 250 281 250 281 250 273 c 2,12,-1
 250 125 l 2,13,14
 250 71 250 71 213 37 c 1,15,16
 177 0 177 0 125 0 c 0,17,18
 71 0 71 0 37 37 c 1,19,20
 0 73 0 73 0 125 c 2,21,-1
 0 273 l 2,22,23
 0 281 0 281 6 287 c 0,24,25
 11 292 11 292 20 292 c 0,26,27
 27 292 27 292 33 287 c 1,28,29
 38 280 38 280 38 273 c 2,30,-1
 38 125 l 2,31,32
 38 89 38 89 63.5 63.5 c 128,-1,0
 89 38 89 38 125 38 c 128,-1,1
EndSplineSet
Validated: 1
EndChar

StartChar: uniE173
Encoding: 57715 57715 95
Width: 250
GlyphClass: 2
Flags: W
LayerCount: 2
Fore
SplineSet
125 254 m 128,-1,1
 89 254 89 254 63.5 228.5 c 128,-1,2
 38 203 38 203 38 167 c 2,3,-1
 38 19 l 2,4,5
 38 11 38 11 33 6 c 0,6,7
 27 0 27 0 20 0 c 0,8,9
 10 0 10 0 6 6 c 1,10,11
 0 10 0 10 0 19 c 2,12,-1
 0 167 l 2,13,14
 0 219 0 219 37 256 c 1,15,16
 75 292 75 292 125 292 c 0,17,18
 177 292 177 292 213 256 c 0,19,20
 250 219 250 219 250 167 c 2,21,-1
 250 19 l 2,22,23
 250 10 250 10 244 6 c 1,24,25
 240 0 240 0 230 0 c 0,26,27
 222 0 222 0 217 6 c 0,28,29
 212 11 212 11 212 19 c 2,30,-1
 212 167 l 2,31,32
 212 203 212 203 186.5 228.5 c 128,-1,0
 161 254 161 254 125 254 c 128,-1,1
EndSplineSet
Validated: 1
EndChar

StartChar: uniE174
Encoding: 57716 57716 96
Width: 250
GlyphClass: 2
Flags: W
LayerCount: 2
Fore
SplineSet
125 0 m 128,-1,1
 106 0 106 0 106 19 c 1,2,-1
 1 351 l 2,3,4
 0 352 0 352 0 356 c 0,5,6
 0 365 0 365 6 369 c 1,7,8
 10 375 10 375 19 375 c 0,9,10
 34 375 34 375 37 362 c 2,11,-1
 102 156 l 1,12,-1
 125 53 l 1,13,-1
 148 156 l 1,14,-1
 213 362 l 1,15,16
 216 375 216 375 231 375 c 0,17,18
 240 375 240 375 244 369 c 1,19,20
 250 365 250 365 250 356 c 0,21,22
 250 352 250 352 249 351 c 2,23,-1
 144 19 l 1,24,0
 144 0 144 0 125 0 c 128,-1,1
EndSplineSet
Validated: 1
EndChar

StartChar: uniE175
Encoding: 57717 57717 97
Width: 250
GlyphClass: 2
Flags: W
LayerCount: 2
Fore
SplineSet
125 175 m 128,-1,1
 144 175 144 175 144 156 c 1,2,-1
 249 -176 l 2,3,4
 250 -177 250 -177 250 -182 c 0,5,6
 250 -190 250 -190 244 -195 c 0,7,8
 239 -200 239 -200 231 -200 c 0,9,10
 215 -200 215 -200 213 -188 c 1,11,-1
 148 19 l 1,12,-1
 125 122 l 1,13,-1
 102 19 l 1,14,-1
 37 -188 l 1,15,16
 34 -201 34 -201 19 -200 c 0,17,18
 11 -200 11 -200 6 -195 c 0,19,20
 0 -189 0 -189 0 -182 c 0,21,22
 0 -178 0 -178 1 -176 c 2,23,-1
 106 156 l 1,24,0
 106 175 106 175 125 175 c 128,-1,1
EndSplineSet
Validated: 1
EndChar

StartChar: uniE176
Encoding: 57718 57718 98
Width: 265
GlyphClass: 2
Flags: W
LayerCount: 2
Fore
SplineSet
132.5 266 m 128,-1,1
 188 266 188 266 227 227 c 1,2,3
 266 189 266 189 266 133 c 128,-1,4
 266 77 266 77 227 39 c 1,5,6
 189 0 189 0 133 0 c 128,-1,7
 77 0 77 0 39 39 c 1,8,9
 0 77 0 77 0 132.5 c 128,-1,10
 0 188 0 188 39 227 c 1,11,0
 77 266 77 266 132.5 266 c 128,-1,1
133 246 m 128,-1,13
 86 246 86 246 53 213 c 128,-1,14
 20 180 20 180 20 133 c 128,-1,15
 20 86 20 86 53 53 c 128,-1,16
 86 20 86 20 133 20 c 128,-1,17
 180 20 180 20 213 53 c 128,-1,18
 246 86 246 86 246 133 c 128,-1,19
 246 180 246 180 213 213 c 128,-1,12
 180 246 180 246 133 246 c 128,-1,13
EndSplineSet
Validated: 1
EndChar

StartChar: uniE17A
Encoding: 57722 57722 99
Width: 125
GlyphClass: 2
Flags: W
LayerCount: 2
Fore
SplineSet
50 13 m 0,0,1
 50 53 50 53 33 82 c 1,2,3
 17 115 17 115 18 119 c 0,4,5
 18 134 18 134 28 146 c 1,6,7
 39 157 39 157 55 157 c 0,8,9
 82 157 82 157 98 124 c 0,10,11
 113 91 113 91 112 59 c 0,12,13
 112 -21 112 -21 25 -146 c 0,14,15
 21 -153 21 -153 12 -153 c 0,16,17
 -3 -153 -3 -153 -3 -138 c 0,18,19
 -3 -136 -3 -136 11 -113 c 0,20,21
 24 -93 24 -93 37 -59 c 0,22,23
 50 -24 50 -24 50 13 c 0,0,1
EndSplineSet
Validated: 33
EndChar

StartChar: uniE17B
Encoding: 57723 57723 100
Width: 0
GlyphClass: 2
Flags: W
LayerCount: 2
Fore
SplineSet
-50 -13 m 0,0,1
 -50 -53 -50 -53 -33 -82 c 1,2,3
 -17 -115 -17 -115 -18 -119 c 0,4,5
 -18 -134 -18 -134 -28 -146 c 1,6,7
 -39 -157 -39 -157 -55 -157 c 0,8,9
 -82 -157 -82 -157 -98 -124 c 0,10,11
 -113 -91 -113 -91 -112 -59 c 0,12,13
 -112 21 -112 21 -25 146 c 0,14,15
 -21 153 -21 153 -12 153 c 0,16,17
 3 153 3 153 3 138 c 0,18,19
 3 136 3 136 -11 113 c 0,20,21
 -24 93 -24 93 -37 59 c 0,22,23
 -50 24 -50 24 -50 -13 c 0,0,1
EndSplineSet
Validated: 33
EndChar

StartChar: uniE17C
Encoding: 57724 57724 101
Width: 60
GlyphClass: 2
Flags: W
LayerCount: 2
Fore
SplineSet
-63 -165 m 0,0,1
 -77 -165 -77 -165 -77 -150 c 0,2,3
 -77 -145 -77 -145 -76 -144 c 2,4,-1
 28 164 l 1,5,6
 35 188 35 188 62 188 c 0,7,8
 79 188 79 188 90 177 c 1,9,10
 101 164 101 164 101 150 c 0,11,12
 101 144 101 144 97 136 c 2,13,-1
 -49 -156 l 1,14,15
 -54 -165 -54 -165 -63 -165 c 0,0,1
EndSplineSet
Validated: 1
EndChar

StartChar: uniE17D
Encoding: 57725 57725 102
Width: 60
GlyphClass: 2
Flags: W
LayerCount: 2
Fore
SplineSet
63 165 m 0,0,1
 77 165 77 165 77 150 c 0,2,3
 77 145 77 145 76 144 c 2,4,-1
 -28 -164 l 1,5,6
 -35 -188 -35 -188 -62 -188 c 0,7,8
 -79 -188 -79 -188 -90 -177 c 1,9,10
 -101 -164 -101 -164 -101 -150 c 0,11,12
 -101 -144 -101 -144 -97 -136 c 2,13,-1
 49 156 l 1,14,15
 54 165 54 165 63 165 c 0,0,1
EndSplineSet
Validated: 1
EndChar

StartChar: uniE17E
Encoding: 57726 57726 103
Width: 250
GlyphClass: 2
Flags: W
LayerCount: 2
Fore
SplineSet
175 -1 m 0,0,1
 158 -1 158 -1 139 21 c 0,2,3
 114 51 114 51 96 66 c 1,4,5
 73 89 73 89 44 90 c 0,6,7
 17 90 17 90 -3 73 c 1,8,-1
 -28 42 l 2,9,10
 -33 36 -33 36 -40 36 c 0,11,12
 -46 36 -46 36 -51 41 c 128,-1,13
 -56 46 -56 46 -56 52 c 128,-1,14
 -56 58 -56 58 -52 62 c 2,15,-1
 55 190 l 2,16,17
 63 201 63 201 75 201 c 0,18,19
 92 201 92 201 111 179 c 0,20,21
 136 150 136 150 154 133 c 0,22,23
 178 111 178 111 205.5 110.5 c 128,-1,24
 233 110 233 110 253 127 c 1,25,-1
 278 158 l 2,26,27
 283 164 283 164 290 164 c 256,28,29
 297 164 297 164 301 160 c 0,30,31
 306 155 306 155 306 148.5 c 128,-1,32
 306 142 306 142 302 138 c 2,33,-1
 195 10 l 2,34,35
 187 -1 187 -1 175 -1 c 0,0,1
EndSplineSet
Validated: 33
EndChar

StartChar: uniE17F
Encoding: 57727 57727 104
Width: 250
GlyphClass: 2
Flags: W
LayerCount: 2
Fore
SplineSet
175 194 m 0,0,1
 158 194 158 194 139 217 c 0,2,3
 114 246 114 246 96 262 c 1,4,5
 73 285 73 285 44 285 c 0,6,7
 17 285 17 285 -3 269 c 1,8,-1
 -28 237 l 2,9,10
 -33 231 -33 231 -40 231 c 0,11,12
 -46 231 -46 231 -51 236 c 128,-1,13
 -56 241 -56 241 -56 247 c 128,-1,14
 -56 253 -56 253 -52 257 c 2,15,-1
 55 386 l 2,16,17
 63 397 63 397 75 396 c 0,18,19
 92 396 92 396 111 374 c 0,20,21
 136 345 136 345 154 328 c 0,22,23
 178 306 178 306 205.5 306 c 128,-1,24
 233 306 233 306 253 322 c 1,25,-1
 278 354 l 2,26,27
 283 360 283 360 290 359 c 256,28,29
 297 359 297 359 301 355 c 0,30,31
 306 350 306 350 306 343.5 c 128,-1,32
 306 337 306 337 302 333 c 2,33,-1
 195 205 l 2,34,35
 187 194 187 194 175 194 c 0,0,1
EndSplineSet
Validated: 1
EndChar

StartChar: uniE180
Encoding: 57728 57728 105
Width: 250
GlyphClass: 2
Flags: W
LayerCount: 2
Fore
SplineSet
-28 158 m 1,0,1
 -33 166 -33 166 -40 164 c 128,-1,2
 -47 162 -47 162 -52 158 c 0,3,4
 -55 156 -55 156 -56 148 c 0,5,6
 -57 144 -57 144 -52 139 c 2,7,-1
 40 51 l 1,8,9
 59 37 59 37 83 31 c 1,10,-1
 46 -47 l 2,11,12
 43 -51 43 -51 43 -55 c 0,13,14
 43 -62 43 -62 50 -61 c 0,15,16
 59 -59 59 -59 87 -29 c 0,17,18
 107 -8 107 -8 163 39 c 0,19,20
 213 80 213 80 247 94 c 1,21,22
 251 94 251 94 251 102 c 1,23,24
 250 104 250 104 248 105 c 1,25,26
 211 118 211 118 162 158 c 1,27,28
 111 204 111 204 88 229 c 0,29,30
 57 260 57 260 51 260 c 1,31,32
 46 259 46 259 43 256 c 1,33,34
 43 250 43 250 45 246 c 2,35,-1
 88 154 l 1,36,37
 84 152 84 152 72 141 c 0,38,39
 68 137 68 137 62 132.5 c 128,-1,40
 56 128 56 128 55 127 c 0,41,42
 49 121 49 121 41 117 c 0,43,44
 32 113 32 113 25 113 c 0,45,46
 8 113 8 113 -2 127 c 2,47,-1
 -28 158 l 1,0,1
EndSplineSet
Validated: 9
EndChar

StartChar: uniE181
Encoding: 57729 57729 106
Width: 250
GlyphClass: 2
Flags: W
LayerCount: 2
Fore
SplineSet
-26 41 m 2,0,1
 -32 35 -32 35 -40 35 c 0,2,3
 -47 35 -47 35 -52 41 c 0,4,5
 -56 45 -56 45 -56 51 c 0,6,7
 -56 56 -56 56 -50 62 c 2,8,-1
 42 148 l 2,9,10
 57 163 57 163 83 168 c 1,11,-1
 46 246 l 2,12,13
 43 251 43 251 44 254 c 1,14,15
 44 260 44 260 52 260 c 0,16,17
 58 260 58 260 87 229 c 256,18,19
 116 198 116 198 163 158 c 1,20,21
 209 118 209 118 249 105 c 0,22,23
 251 105 251 105 251 100 c 0,24,25
 251 96 251 96 249 94 c 1,26,27
 209 81 209 81 163 41 c 1,28,29
 116 2 116 2 87 -29 c 256,30,31
 58 -60 58 -60 52 -61 c 0,32,33
 45 -61 45 -61 44 -57 c 0,34,35
 44 -55 44 -55 46 -47 c 1,36,-1
 89 45 l 1,37,-1
 73 57 l 1,38,-1
 56 72 l 2,39,40
 55 73 55 73 50 76.5 c 128,-1,41
 45 80 45 80 42 82 c 0,42,43
 35 86 35 86 26 86 c 0,44,45
 10 86 10 86 -1 72 c 2,46,-1
 -26 41 l 2,0,1
EndSplineSet
Validated: 1
EndChar

StartChar: uniE182
Encoding: 57730 57730 107
Width: 208
GlyphClass: 2
Flags: W
LayerCount: 2
Fore
SplineSet
26 126 m 1,0,-1
 19 114 l 1,1,-1
 -15 136 l 1,2,-1
 56 241 l 2,3,4
 62 250 62 250 72 250 c 0,5,6
 81 250 81 250 88 243 c 2,7,-1
 187 124 l 1,8,-1
 194 136 l 1,9,-1
 228 114 l 1,10,-1
 157 9 l 2,11,12
 151 0 151 0 141 0 c 0,13,14
 132 0 132 0 125 7 c 2,15,-1
 26 126 l 1,0,-1
EndSplineSet
Validated: 1
EndChar

StartChar: uniE183
Encoding: 57731 57731 108
Width: 458
GlyphClass: 2
Flags: W
LayerCount: 2
Fore
SplineSet
466 171 m 2,0,1
 472 180 472 180 482 180 c 0,2,3
 490 180 490 180 496 174 c 128,-1,4
 502 168 502 168 502 160 c 0,5,6
 502 154 502 154 499 149 c 2,7,-1
 406 9 l 2,8,9
 400 0 400 0 389 0 c 0,10,11
 380 0 380 0 374 7 c 2,12,-1
 276 126 l 1,13,-1
 198 9 l 2,14,15
 192 0 192 0 181 0 c 0,16,17
 172 0 172 0 166 7 c 2,18,-1
 67 126 l 1,19,-1
 36 79 l 2,20,21
 30 70 30 70 20 70 c 0,22,23
 12 70 12 70 6 76 c 128,-1,24
 0 82 0 82 0 90 c 0,25,26
 0 97 0 97 3 101 c 2,27,-1
 96 241 l 2,28,29
 102 250 102 250 113 250 c 0,30,31
 122 250 122 250 128 243 c 2,32,-1
 226 124 l 1,33,-1
 304 241 l 2,34,35
 310 250 310 250 321 250 c 0,36,37
 330 250 330 250 336 243 c 2,38,-1
 435 124 l 1,39,-1
 466 171 l 2,0,1
EndSplineSet
Validated: 1
EndChar

StartChar: uniE184
Encoding: 57732 57732 109
Width: 458
GlyphClass: 2
Flags: W
LayerCount: 2
Fore
SplineSet
271 -24 m 2,0,1
 271 -32 271 -32 265 -38 c 128,-1,2
 259 -44 259 -44 251 -44 c 128,-1,3
 243 -44 243 -44 237 -38 c 128,-1,4
 231 -32 231 -32 231 -24 c 2,5,-1
 231 57 l 1,6,-1
 198 7 l 2,7,8
 192 -2 192 -2 181 -2 c 0,9,10
 172 -2 172 -2 166 5 c 2,11,-1
 67 124 l 1,12,-1
 36 77 l 2,13,14
 30 68 30 68 20 68 c 0,15,16
 12 68 12 68 6 74 c 128,-1,17
 0 80 0 80 0 88 c 0,18,19
 0 94 0 94 3 99 c 2,20,-1
 96 239 l 2,21,22
 102 248 102 248 113 248 c 0,23,24
 122 248 122 248 128 241 c 2,25,-1
 226 122 l 1,26,-1
 231 129 l 1,27,-1
 231 271 l 2,28,29
 231 279 231 279 237 284.5 c 128,-1,30
 243 290 243 290 251 290 c 128,-1,31
 259 290 259 290 265 284 c 128,-1,32
 271 278 271 278 271 271 c 2,33,-1
 271 189 l 1,34,-1
 304 239 l 2,35,36
 310 248 310 248 321 248 c 0,37,38
 330 248 330 248 336 241 c 2,39,-1
 435 122 l 1,40,-1
 466 169 l 2,41,42
 472 178 472 178 482 178 c 0,43,44
 490 178 490 178 496 172 c 128,-1,45
 502 166 502 166 502 158 c 0,46,47
 502 152 502 152 499 147 c 2,48,-1
 406 7 l 2,49,50
 400 -2 400 -2 389 -2 c 0,51,52
 380 -2 380 -2 374 5 c 2,53,-1
 276 124 l 1,54,-1
 271 117 l 1,55,-1
 271 -24 l 2,0,1
EndSplineSet
Validated: 1
EndChar

StartChar: uniE185
Encoding: 57733 57733 110
Width: 667
GlyphClass: 2
Flags: W
LayerCount: 2
Fore
SplineSet
676 171 m 2,0,1
 682 180 682 180 692 180 c 0,2,3
 699 180 699 180 707 174 c 1,4,5
 713 168 713 168 713 160 c 0,6,7
 713 156 713 156 708 149 c 2,8,-1
 615 9 l 2,9,10
 609 0 609 0 599.5 0 c 128,-1,11
 590 0 590 0 583 7 c 2,12,-1
 485 126 l 1,13,-1
 407 9 l 2,14,15
 401 0 401 0 391 0 c 0,16,17
 382 0 382 0 375 7 c 2,18,-1
 276 126 l 1,19,-1
 198 9 l 2,20,21
 192 0 192 0 182.5 0 c 128,-1,22
 173 0 173 0 166 7 c 2,23,-1
 68 126 l 1,24,-1
 37 79 l 2,25,26
 31 70 31 70 21 70 c 0,27,28
 14 70 14 70 6 76 c 1,29,30
 0 82 0 82 0 90 c 0,31,32
 0 94 0 94 5 101 c 2,33,-1
 98 241 l 2,34,35
 104 250 104 250 114 250 c 0,36,37
 123 250 123 250 130 243 c 2,38,-1
 228 124 l 1,39,-1
 306 241 l 2,40,41
 312 250 312 250 322 250 c 0,42,43
 331 250 331 250 338 243 c 2,44,-1
 437 124 l 1,45,-1
 515 241 l 2,46,47
 521 250 521 250 530.5 250 c 128,-1,48
 540 250 540 250 547 243 c 2,49,-1
 645 124 l 1,50,-1
 676 171 l 2,0,1
EndSplineSet
Validated: 1
EndChar

StartChar: uniE186
Encoding: 57734 57734 111
Width: 667
GlyphClass: 2
Flags: W
LayerCount: 2
Fore
SplineSet
480 -25 m 2,0,1
 480 -33 480 -33 474.5 -39 c 128,-1,2
 469 -45 469 -45 461 -45 c 0,3,4
 452 -45 452 -45 446 -39 c 128,-1,5
 440 -33 440 -33 440 -25 c 2,6,-1
 440 56 l 1,7,-1
 407 6 l 2,8,9
 401 -3 401 -3 391 -3 c 0,10,11
 382 -3 382 -3 375 4 c 2,12,-1
 276 123 l 1,13,-1
 198 6 l 2,14,15
 192 -3 192 -3 182.5 -3 c 128,-1,16
 173 -3 173 -3 166 4 c 2,17,-1
 68 123 l 1,18,-1
 37 76 l 2,19,20
 31 67 31 67 21 67 c 0,21,22
 14 67 14 67 6 73 c 1,23,24
 0 79 0 79 0 87 c 0,25,26
 0 91 0 91 5 98 c 2,27,-1
 98 238 l 2,28,29
 104 247 104 247 114 247 c 0,30,31
 123 247 123 247 130 240 c 2,32,-1
 228 121 l 1,33,-1
 306 238 l 2,34,35
 312 247 312 247 322 247 c 0,36,37
 331 247 331 247 338 240 c 2,38,-1
 437 121 l 1,39,-1
 440 128 l 1,40,-1
 440 270 l 2,41,42
 440 278 440 278 446 283.5 c 128,-1,43
 452 289 452 289 461 289 c 0,44,45
 469 289 469 289 474.5 283 c 128,-1,46
 480 277 480 277 480 270 c 2,47,-1
 480 188 l 1,48,-1
 515 238 l 2,49,50
 521 247 521 247 530.5 247 c 128,-1,51
 540 247 540 247 547 240 c 2,52,-1
 645 121 l 1,53,-1
 676 168 l 2,54,55
 682 177 682 177 692 177 c 0,56,57
 699 177 699 177 707 171 c 1,58,59
 713 165 713 165 713 157 c 0,60,61
 713 153 713 153 708 146 c 2,62,-1
 615 6 l 2,63,64
 609 -3 609 -3 599.5 -3 c 128,-1,65
 590 -3 590 -3 583 4 c 2,66,-1
 485 123 l 1,67,-1
 480 116 l 1,68,-1
 480 -25 l 2,0,1
EndSplineSet
Validated: 1
EndChar

StartChar: uniE187
Encoding: 57735 57735 112
Width: 704
GlyphClass: 2
Flags: W
LayerCount: 2
Fore
SplineSet
57 -180 m 0,0,1
 37 -180 37 -180 20 -131 c 1,2,3
 0 -85 0 -85 0 -35 c 0,4,5
 0 39 0 39 41 101 c 2,6,-1
 134 241 l 2,7,8
 140 250 140 250 150 250 c 0,9,10
 159 250 159 250 166 243 c 2,11,-1
 264 124 l 1,12,-1
 342 241 l 2,13,14
 348 250 348 250 358 250 c 0,15,16
 367 250 367 250 374 243 c 2,17,-1
 473 124 l 1,18,-1
 551 241 l 2,19,20
 557 250 557 250 566.5 250 c 128,-1,21
 576 250 576 250 583 243 c 2,22,-1
 681 124 l 1,23,-1
 712 171 l 2,24,25
 718 180 718 180 729 180 c 0,26,27
 737 180 737 180 742 174 c 0,28,29
 749 168 749 168 749 160 c 0,30,31
 749 156 749 156 744 149 c 2,32,-1
 651 9 l 2,33,34
 645 0 645 0 635.5 0 c 128,-1,35
 626 0 626 0 619 7 c 2,36,-1
 521 126 l 1,37,-1
 443 9 l 2,38,39
 437 0 437 0 427 0 c 0,40,41
 418 0 418 0 411 7 c 2,42,-1
 312 126 l 1,43,-1
 234 9 l 2,44,45
 228 0 228 0 218.5 0 c 128,-1,46
 209 0 209 0 202 7 c 2,47,-1
 104 126 l 1,48,-1
 73 79 l 2,49,50
 40 30 40 30 40 -35 c 0,51,52
 40 -69 40 -69 49 -95.5 c 128,-1,53
 58 -122 58 -122 67 -141 c 0,54,55
 76 -156 76 -156 76 -160 c 0,56,57
 76 -168 76 -168 70.5 -174 c 128,-1,58
 65 -180 65 -180 57 -180 c 0,0,1
EndSplineSet
Validated: 1
EndChar

StartChar: uniE188
Encoding: 57736 57736 113
Width: 704
GlyphClass: 2
Flags: W
LayerCount: 2
Fore
SplineSet
57 -180 m 0,0,1
 37 -180 37 -180 20 -131 c 1,2,3
 0 -85 0 -85 0 -35 c 0,4,5
 0 39 0 39 41 101 c 2,6,-1
 134 241 l 2,7,8
 140 250 140 250 150 250 c 0,9,10
 159 250 159 250 166 243 c 2,11,-1
 264 124 l 1,12,-1
 342 241 l 2,13,14
 348 250 348 250 358 250 c 0,15,16
 367 250 367 250 374 243 c 2,17,-1
 473 124 l 1,18,-1
 477 131 l 1,19,-1
 477 272 l 2,20,21
 477 280 477 280 482.5 286 c 128,-1,22
 488 292 488 292 496 292 c 0,23,24
 505 292 505 292 511 286 c 128,-1,25
 517 280 517 280 517 272 c 2,26,-1
 517 191 l 1,27,-1
 551 241 l 2,28,29
 557 250 557 250 566.5 250 c 128,-1,30
 576 250 576 250 583 243 c 2,31,-1
 681 124 l 1,32,-1
 712 171 l 2,33,34
 718 180 718 180 729 180 c 0,35,36
 737 180 737 180 742 174 c 0,37,38
 749 168 749 168 749 160 c 0,39,40
 749 156 749 156 744 149 c 2,41,-1
 651 9 l 2,42,43
 645 0 645 0 635.5 0 c 128,-1,44
 626 0 626 0 619 7 c 2,45,-1
 521 126 l 1,46,-1
 517 119 l 1,47,-1
 517 -22 l 2,48,49
 517 -30 517 -30 511 -36 c 128,-1,50
 505 -42 505 -42 496 -42 c 0,51,52
 488 -42 488 -42 482.5 -36 c 128,-1,53
 477 -30 477 -30 477 -22 c 2,54,-1
 477 59 l 1,55,-1
 443 9 l 2,56,57
 437 0 437 0 427 0 c 0,58,59
 418 0 418 0 411 7 c 2,60,-1
 312 126 l 1,61,-1
 234 9 l 2,62,63
 228 0 228 0 218.5 0 c 128,-1,64
 209 0 209 0 202 7 c 2,65,-1
 104 126 l 1,66,-1
 73 79 l 2,67,68
 40 30 40 30 40 -35 c 0,69,70
 40 -69 40 -69 49 -95.5 c 128,-1,71
 58 -122 58 -122 67 -141 c 0,72,73
 76 -156 76 -156 76 -160 c 0,74,75
 76 -168 76 -168 70.5 -174 c 128,-1,76
 65 -180 65 -180 57 -180 c 0,0,1
EndSplineSet
Validated: 1
EndChar

StartChar: uniE189
Encoding: 57737 57737 114
Width: 667
GlyphClass: 2
Flags: W
LayerCount: 2
Fore
SplineSet
692 -180 m 0,0,1
 684 -180 684 -180 678.5 -174 c 128,-1,2
 673 -168 673 -168 673 -160 c 0,3,4
 673 -156 673 -156 682 -141 c 1,5,6
 692 -120 692 -120 699 -96 c 1,7,8
 709 -71 709 -71 709 -35 c 0,9,10
 709 30 709 30 676 79 c 2,11,-1
 645 126 l 1,12,-1
 547 7 l 2,13,14
 541 0 541 0 531 0 c 0,15,16
 520 0 520 0 515 9 c 2,17,-1
 437 126 l 1,18,-1
 338 7 l 2,19,20
 332 0 332 0 322 0 c 0,21,22
 311 0 311 0 306 9 c 2,23,-1
 228 126 l 1,24,-1
 130 7 l 2,25,26
 124 0 124 0 113 0 c 0,27,28
 103 0 103 0 98 9 c 2,29,-1
 5 149 l 2,30,31
 3 152 3 152 0 160 c 1,32,33
 0 168 0 168 6 174 c 1,34,35
 14 180 14 180 21 180 c 0,36,37
 32 180 32 180 37 171 c 2,38,-1
 68 124 l 1,39,-1
 166 243 l 2,40,41
 172 250 172 250 182 250 c 0,42,43
 193 250 193 250 198 241 c 2,44,-1
 276 124 l 1,45,-1
 375 243 l 2,46,47
 381 250 381 250 391 250 c 0,48,49
 402 250 402 250 407 241 c 2,50,-1
 485 124 l 1,51,-1
 583 243 l 2,52,53
 589 250 589 250 599 250 c 0,54,55
 610 250 610 250 615 241 c 2,56,-1
 708 101 l 2,57,58
 749 39 749 39 749 -35 c 0,59,60
 749 -80 749 -80 730 -131 c 1,61,62
 710 -180 710 -180 692 -180 c 0,0,1
EndSplineSet
Validated: 1
EndChar

StartChar: uniE18A
Encoding: 57738 57738 115
Width: 704
GlyphClass: 2
Flags: W
LayerCount: 2
Fore
SplineSet
0 215 m 0,0,1
 0 262 0 262 20 312 c 0,2,3
 39 360 39 360 57 360 c 0,4,5
 69 360 69 360 74 350 c 0,6,7
 76 346 76 346 76 340 c 128,-1,8
 76 334 76 334 73 329 c 0,9,10
 40 280 40 280 40 215 c 0,11,12
 40 167 40 167 59 129 c 1,13,-1
 134 241 l 2,14,15
 140 250 140 250 150 250 c 0,16,17
 159 250 159 250 166 243 c 2,18,-1
 264 124 l 1,19,-1
 342 241 l 2,20,21
 348 250 348 250 358 250 c 0,22,23
 367 250 367 250 374 243 c 2,24,-1
 473 124 l 1,25,-1
 551 241 l 2,26,27
 557 250 557 250 566.5 250 c 128,-1,28
 576 250 576 250 583 243 c 2,29,-1
 681 124 l 1,30,-1
 712 171 l 2,31,32
 718 180 718 180 729 180 c 0,33,34
 737 180 737 180 742 174 c 0,35,36
 749 168 749 168 749 160 c 0,37,38
 749 156 749 156 744 149 c 2,39,-1
 651 9 l 2,40,41
 645 0 645 0 635.5 0 c 128,-1,42
 626 0 626 0 619 7 c 2,43,-1
 521 126 l 1,44,-1
 443 9 l 2,45,46
 437 0 437 0 427 0 c 0,47,48
 418 0 418 0 411 7 c 2,49,-1
 312 126 l 1,50,-1
 234 9 l 2,51,52
 228 0 228 0 218.5 0 c 128,-1,53
 209 0 209 0 202 7 c 2,54,-1
 104 126 l 1,55,-1
 73 79 l 2,56,57
 67 70 67 70 57 70 c 0,58,59
 38 70 38 70 19 119 c 0,60,61
 0 168 0 168 0 215 c 0,0,1
EndSplineSet
Validated: 1
EndChar

StartChar: uniE18B
Encoding: 57739 57739 116
Width: 704
GlyphClass: 2
Flags: W
LayerCount: 2
Fore
SplineSet
0 215 m 0,0,1
 0 262 0 262 20 312 c 0,2,3
 39 360 39 360 57 360 c 0,4,5
 69 360 69 360 74 350 c 0,6,7
 76 346 76 346 76 340 c 128,-1,8
 76 334 76 334 73 329 c 0,9,10
 40 280 40 280 40 215 c 0,11,12
 40 167 40 167 59 129 c 1,13,-1
 134 241 l 2,14,15
 140 250 140 250 150 250 c 0,16,17
 159 250 159 250 166 243 c 2,18,-1
 264 124 l 1,19,-1
 342 241 l 2,20,21
 348 250 348 250 358 250 c 0,22,23
 367 250 367 250 374 243 c 2,24,-1
 473 124 l 1,25,-1
 477 131 l 1,26,-1
 477 272 l 2,27,28
 477 280 477 280 482.5 286 c 128,-1,29
 488 292 488 292 496 292 c 0,30,31
 505 292 505 292 511 286 c 128,-1,32
 517 280 517 280 517 272 c 2,33,-1
 517 191 l 1,34,-1
 551 241 l 2,35,36
 557 250 557 250 566.5 250 c 128,-1,37
 576 250 576 250 583 243 c 2,38,-1
 681 124 l 1,39,-1
 712 171 l 2,40,41
 718 180 718 180 729 180 c 0,42,43
 737 180 737 180 742 174 c 0,44,45
 749 168 749 168 749 160 c 0,46,47
 749 156 749 156 744 149 c 2,48,-1
 651 9 l 2,49,50
 645 0 645 0 635.5 0 c 128,-1,51
 626 0 626 0 619 7 c 2,52,-1
 521 126 l 1,53,-1
 517 119 l 1,54,-1
 517 -22 l 2,55,56
 517 -30 517 -30 511 -36 c 128,-1,57
 505 -42 505 -42 496 -42 c 0,58,59
 488 -42 488 -42 482.5 -36 c 128,-1,60
 477 -30 477 -30 477 -22 c 2,61,-1
 477 59 l 1,62,-1
 443 9 l 2,63,64
 437 0 437 0 427 0 c 0,65,66
 418 0 418 0 411 7 c 2,67,-1
 312 126 l 1,68,-1
 234 9 l 2,69,70
 228 0 228 0 218.5 0 c 128,-1,71
 209 0 209 0 202 7 c 2,72,-1
 104 126 l 1,73,-1
 73 79 l 2,74,75
 67 70 67 70 57 70 c 0,76,77
 38 70 38 70 19 119 c 0,78,79
 0 168 0 168 0 215 c 0,0,1
EndSplineSet
Validated: 1
EndChar

StartChar: uniE18C
Encoding: 57740 57740 117
Width: 667
GlyphClass: 2
Flags: W
LayerCount: 2
Fore
SplineSet
749 215 m 0,0,1
 749 168 749 168 730 119 c 0,2,3
 712 70 712 70 692 70 c 0,4,5
 681 70 681 70 676 79 c 2,6,-1
 645 126 l 1,7,-1
 547 7 l 2,8,9
 541 0 541 0 531 0 c 0,10,11
 520 0 520 0 515 9 c 2,12,-1
 437 126 l 1,13,-1
 338 7 l 2,14,15
 332 0 332 0 322 0 c 0,16,17
 311 0 311 0 306 9 c 2,18,-1
 228 126 l 1,19,-1
 130 7 l 2,20,21
 124 0 124 0 113 0 c 0,22,23
 103 0 103 0 98 9 c 2,24,-1
 5 149 l 2,25,26
 3 152 3 152 0 160 c 1,27,28
 0 168 0 168 6 174 c 1,29,30
 14 180 14 180 21 180 c 0,31,32
 32 180 32 180 37 171 c 2,33,-1
 68 124 l 1,34,-1
 166 243 l 2,35,36
 172 250 172 250 182 250 c 0,37,38
 193 250 193 250 198 241 c 2,39,-1
 276 124 l 1,40,-1
 375 243 l 2,41,42
 381 250 381 250 391 250 c 0,43,44
 402 250 402 250 407 241 c 2,45,-1
 485 124 l 1,46,-1
 583 243 l 2,47,48
 589 250 589 250 599 250 c 0,49,50
 610 250 610 250 615 241 c 2,51,-1
 690 129 l 1,52,53
 709 167 709 167 709 215 c 0,54,55
 709 280 709 280 676 329 c 0,56,57
 673 334 673 334 673 340 c 128,-1,58
 673 346 673 346 676 350 c 1,59,60
 681 361 681 361 692 360 c 0,61,62
 711 360 711 360 729 312 c 0,63,64
 749 262 749 262 749 215 c 0,0,1
EndSplineSet
Validated: 1
EndChar

StartChar: uniE18D
Encoding: 57741 57741 118
Width: 667
GlyphClass: 2
Flags: W
LayerCount: 2
Fore
SplineSet
676 171 m 2,0,1
 682 180 682 180 692 180 c 0,2,3
 699 180 699 180 707 174 c 1,4,5
 713 168 713 168 713 160 c 0,6,7
 713 156 713 156 708 149 c 2,8,-1
 615 9 l 2,9,10
 609 0 609 0 599 0 c 0,11,12
 590 0 590 0 583 7 c 2,13,-1
 485 126 l 1,14,-1
 407 9 l 2,15,16
 401 0 401 0 391 0 c 0,17,18
 382 0 382 0 375 7 c 2,19,-1
 276 126 l 1,20,-1
 198 9 l 2,21,22
 192 0 192 0 182.5 0 c 128,-1,23
 173 0 173 0 166 7 c 2,24,-1
 68 126 l 1,25,-1
 37 79 l 2,26,27
 31 70 31 70 21 70 c 0,28,29
 14 70 14 70 6 76 c 1,30,31
 0 82 0 82 0 90 c 2,32,-1
 0 590 l 2,33,34
 0 598 0 598 6 604 c 0,35,36
 13 611 13 611 20.5 610.5 c 128,-1,37
 28 610 28 610 34 604 c 0,38,39
 40 598 40 598 40 590 c 2,40,-1
 40 156 l 1,41,-1
 98 241 l 2,42,43
 104 250 104 250 114 250 c 0,44,45
 123 250 123 250 130 243 c 2,46,-1
 228 124 l 1,47,-1
 306 241 l 2,48,49
 312 250 312 250 322 250 c 0,50,51
 331 250 331 250 338 243 c 2,52,-1
 437 124 l 1,53,-1
 515 241 l 2,54,55
 521 250 521 250 530.5 250 c 128,-1,56
 540 250 540 250 547 243 c 2,57,-1
 645 124 l 1,58,-1
 676 171 l 2,0,1
EndSplineSet
Validated: 1
EndChar

StartChar: uniE18E
Encoding: 57742 57742 119
Width: 500
GlyphClass: 2
Flags: W
LayerCount: 2
Fore
SplineSet
282 313 m 0,0,1
 295 313 295 313 305 304 c 1,2,3
 314 293 314 293 313 281 c 0,4,5
 313 246 313 246 307 199 c 0,6,7
 298 140 298 140 270 39 c 0,8,9
 240 -69 240 -69 186 -189 c 0,10,11
 181 -200 181 -200 169 -200 c 0,12,13
 158 -200 158 -200 154 -191 c 0,14,15
 150 -183 150 -183 150 -180.5 c 128,-1,16
 150 -178 150 -178 152 -174 c 0,17,18
 228 -4 228 -4 251 283 c 0,19,20
 253 297 253 297 262 305 c 0,21,22
 270 313 270 313 282 313 c 0,0,1
19 -200 m 0,23,24
 10 -200 10 -200 6 -194 c 1,25,26
 0 -188 0 -188 0 -181 c 0,27,28
 0 -177 0 -177 8 -158 c 0,29,30
 22 -127 22 -127 29 -104 c 0,31,32
 43 -66 43 -66 56 -18 c 0,33,34
 69 31 69 31 82 111 c 1,35,36
 94 189 94 189 101 283 c 0,37,38
 103 297 103 297 111 305 c 0,39,40
 120 314 120 314 132 313 c 0,41,42
 145 313 145 313 154 304 c 1,43,44
 163 293 163 293 163 281 c 0,45,46
 163 254 163 254 156 199 c 0,47,48
 150 151 150 151 119 39 c 0,49,50
 90 -66 90 -66 36 -189 c 1,51,52
 31 -200 31 -200 19 -200 c 0,23,24
EndSplineSet
Validated: 1
EndChar

StartChar: uniE18F
Encoding: 57743 57743 120
Width: 500
GlyphClass: 2
Flags: W
LayerCount: 2
Fore
SplineSet
149 -182 m 2,0,-1
 381 282 l 2,1,2
 389 300 389 300 410 300 c 2,3,-1
 442 300 l 2,4,5
 454 300 454 300 454 288 c 0,6,7
 454 283 454 283 453 282 c 2,8,-1
 221 -182 l 1,9,10
 214 -199 214 -199 192 -200 c 1,11,-1
 160 -200 l 2,12,13
 153 -200 153 -200 150 -194 c 0,14,15
 148 -190 148 -190 148 -187 c 0,16,17
 148 -184 148 -184 149 -182 c 2,0,-1
9 -182 m 2,18,-1
 241 282 l 2,19,20
 249 300 249 300 270 300 c 2,21,-1
 302 300 l 2,22,23
 313 300 313 300 314 288 c 0,24,25
 314 283 314 283 313 282 c 2,26,-1
 81 -182 l 1,27,28
 74 -199 74 -199 52 -200 c 1,29,-1
 20 -200 l 2,30,31
 8 -200 8 -200 8 -188 c 0,32,33
 8 -183 8 -183 9 -182 c 2,18,-1
EndSplineSet
Validated: 1
EndChar

StartChar: uniE190
Encoding: 57744 57744 121
Width: 240
GlyphClass: 2
Flags: W
LayerCount: 2
Fore
SplineSet
0 -250 m 1,0,-1
 0 0 l 1,1,-1
 31 0 l 1,2,3
 31 -56 31 -56 53 -111 c 0,4,5
 76 -172 76 -172 104 -217 c 0,6,7
 125 -249 125 -249 166 -315 c 0,8,9
 197 -366 197 -366 218.5 -422 c 128,-1,10
 240 -478 240 -478 240 -533 c 0,11,12
 240 -635 240 -635 198 -740 c 1,13,14
 191 -752 191 -752 180 -752 c 0,15,16
 170 -752 170 -752 162 -744 c 0,17,18
 156 -738 156 -738 156 -729 c 2,19,-1
 156 -725 l 1,20,21
 198 -628 198 -628 198 -533 c 0,22,23
 198 -484 198 -484 169 -428 c 0,24,25
 140 -370 140 -370 109 -336 c 0,26,27
 75 -296 75 -296 31 -250 c 1,28,-1
 0 -250 l 1,0,-1
EndSplineSet
Validated: 1
EndChar

StartChar: uniE191
Encoding: 57745 57745 122
Width: 240
GlyphClass: 2
Flags: W
LayerCount: 2
Fore
SplineSet
31 0 m 1,0,1
 31 -50 31 -50 53 -100 c 0,2,3
 74 -149 74 -149 104 -192 c 2,4,-1
 162 -278 l 1,5,6
 191 -318 191 -318 213 -371 c 1,7,8
 234 -420 234 -420 234 -470 c 0,9,10
 234 -516 234 -516 211 -565 c 1,11,12
 240 -625 240 -625 240 -682 c 0,13,14
 240 -772 240 -772 198 -865 c 1,15,16
 191 -877 191 -877 180 -877 c 0,17,18
 170 -877 170 -877 162 -869 c 0,19,20
 156 -863 156 -863 156 -854 c 2,21,-1
 156 -850 l 1,22,23
 198 -767 198 -767 198 -682 c 0,24,25
 198 -644 198 -644 184 -611 c 0,26,27
 166 -573 166 -573 141 -541 c 0,28,29
 109 -499 109 -499 90 -480 c 0,30,31
 65 -455 65 -455 31 -425 c 1,32,-1
 31 -500 l 1,33,-1
 0 -500 l 1,34,-1
 0 0 l 1,35,-1
 31 0 l 1,0,1
185 -517 m 1,36,37
 192 -496 192 -496 191 -470 c 0,38,39
 191 -436 191 -436 178 -400 c 0,40,41
 163 -365 163 -365 137 -329 c 1,42,43
 113 -299 113 -299 87 -270 c 0,44,45
 67 -249 67 -249 31 -213 c 1,46,47
 31 -253 31 -253 48 -298 c 1,48,49
 66 -340 66 -340 84 -371 c 1,50,51
 105 -404 105 -404 136.5 -446.5 c 128,-1,52
 168 -489 168 -489 185 -517 c 1,36,37
EndSplineSet
Validated: 33
EndChar

StartChar: uniE192
Encoding: 57746 57746 123
Width: 240
GlyphClass: 2
Flags: W
LayerCount: 2
Fore
SplineSet
31 -212 m 1,0,-1
 31 -217 l 2,1,2
 31 -260 31 -260 47 -298 c 0,3,4
 66 -346 66 -346 80 -367 c 0,5,6
 105 -405 105 -405 131 -439 c 1,7,8
 163 -486 163 -486 178 -507 c 1,9,10
 182 -494 182 -494 182 -474 c 0,11,12
 182 -431 182 -431 154 -377 c 0,13,14
 126 -321 126 -321 101 -291 c 0,15,16
 65 -248 65 -248 31 -212 c 1,0,-1
31 0 m 1,17,18
 31 -50 31 -50 51 -100 c 0,19,20
 70 -147 70 -147 100 -193 c 2,21,-1
 156 -281 l 2,22,23
 185 -325 185 -325 205 -375 c 0,24,25
 225 -426 225 -426 225 -474 c 0,26,27
 225 -514 225 -514 205 -556 c 1,28,29
 234 -616 234 -616 234 -669 c 0,30,31
 234 -721 234 -721 210 -773 c 1,32,33
 240 -830 240 -830 240 -887 c 0,34,35
 240 -974 240 -974 198 -1062 c 0,36,37
 191 -1075 191 -1075 180 -1074 c 0,38,39
 170 -1074 170 -1074 162 -1066 c 1,40,41
 156 -1058 156 -1058 156 -1051 c 2,42,-1
 156 -1047 l 1,43,44
 198 -967 198 -967 198 -887 c 0,45,46
 198 -825 198 -825 151 -767 c 0,47,48
 103 -707 103 -707 31 -647 c 1,49,-1
 31 -750 l 1,50,-1
 0 -750 l 1,51,-1
 0 0 l 1,52,-1
 31 0 l 1,17,18
31 -430 m 1,53,-1
 31 -435 l 2,54,55
 31 -473 31 -473 48 -517 c 0,56,57
 66 -562 66 -562 82 -586 c 0,58,59
 93 -602 93 -602 135 -658 c 0,60,61
 170 -706 170 -706 183 -725 c 1,62,63
 192 -698 192 -698 191 -669 c 0,64,65
 191 -627 191 -627 163 -578 c 0,66,67
 138 -533 138 -533 105 -500 c 0,68,69
 74 -467 74 -467 31 -430 c 1,53,-1
EndSplineSet
Validated: 33
EndChar

StartChar: uniE193
Encoding: 57747 57747 124
Width: 240
GlyphClass: 2
Flags: W
LayerCount: 2
Fore
SplineSet
31 -212 m 1,0,-1
 31 -225 l 2,1,2
 31 -269 31 -269 47 -307 c 0,3,4
 66 -354 66 -354 80 -377 c 0,5,6
 104 -416 104 -416 131 -451 c 1,7,8
 163 -498 163 -498 178 -519 c 1,9,10
 182 -504 182 -504 182 -482 c 0,11,12
 182 -448 182 -448 168 -410 c 0,13,14
 155 -374 155 -374 129 -336 c 0,15,16
 98 -290 98 -290 83 -272 c 0,17,18
 46 -229 46 -229 31 -212 c 1,0,-1
31 0 m 1,19,20
 31 -51 31 -51 51 -101 c 0,21,22
 74 -160 74 -160 100 -197 c 2,23,-1
 156 -285 l 2,24,25
 185 -330 185 -330 205 -381 c 0,26,27
 225 -434 225 -434 225 -482 c 0,28,29
 225 -524 225 -524 205 -569 c 1,30,31
 234 -629 234 -629 234 -684 c 0,32,33
 234 -740 234 -740 205 -795 c 1,34,35
 234 -856 234 -856 234 -909 c 0,36,37
 234 -955 234 -955 199 -998 c 1,38,39
 240 -1070 240 -1070 240 -1134 c 0,40,41
 240 -1224 240 -1224 198 -1313 c 1,42,43
 190 -1324 190 -1324 180 -1324 c 0,44,45
 170 -1324 170 -1324 162 -1316 c 1,46,47
 156 -1308 156 -1308 156 -1301 c 2,48,-1
 156 -1297 l 1,49,50
 198 -1216 198 -1216 198 -1134 c 0,51,52
 198 -1098 198 -1098 184 -1065 c 0,53,54
 166 -1029 166 -1029 141 -998 c 0,55,56
 114 -964 114 -964 89 -940 c 0,57,58
 76 -927 76 -927 31 -887 c 1,59,-1
 31 -1000 l 1,60,-1
 0 -1000 l 1,61,-1
 0 0 l 1,62,-1
 31 0 l 1,19,20
31 -437 m 1,63,-1
 31 -450 l 2,64,65
 31 -495 31 -495 47 -533 c 0,66,67
 62 -571 62 -571 82 -604 c 0,68,69
 106 -643 106 -643 133 -679 c 1,70,71
 162 -721 162 -721 180 -748 c 1,72,73
 192 -717 192 -717 191 -684 c 0,74,75
 191 -622 191 -622 146 -562 c 0,76,77
 98 -499 98 -499 31 -437 c 1,63,-1
31 -662 m 1,78,-1
 31 -675 l 2,79,80
 31 -718 31 -718 47 -756 c 0,81,82
 63 -795 63 -795 80 -823 c 0,83,84
 96 -847 96 -847 130 -896 c 0,85,86
 170 -953 170 -953 176 -961 c 1,87,88
 190 -939 190 -939 191 -909 c 1,89,90
 191 -847 191 -847 146 -787 c 0,91,92
 98 -724 98 -724 31 -662 c 1,78,-1
EndSplineSet
Validated: 33
EndChar

StartChar: uniE194
Encoding: 57748 57748 125
Width: 299
GlyphClass: 2
Flags: W
LayerCount: 2
Fore
SplineSet
228 724 m 0,0,1
 250 724 250 724 275 650 c 0,2,3
 299 578 299 578 300 513 c 0,4,5
 300 457 300 457 272 402 c 0,6,7
 244 343 244 343 205 301 c 2,8,-1
 125 211 l 2,9,10
 88 168 88 168 59 111 c 0,11,12
 32 56 32 56 31 0 c 1,13,-1
 0 0 l 1,14,-1
 0 250 l 1,15,-1
 31 250 l 1,16,17
 57 267 57 267 109 303 c 1,18,19
 132 321 132 321 180 361 c 1,20,21
 218 396 218 396 237 434 c 0,22,23
 258 473 258 473 258 513 c 0,24,25
 258 606 258 606 204 697 c 1,26,-1
 204 701 l 2,27,28
 204 710 204 710 210 716 c 0,29,30
 218 724 218 724 228 724 c 0,0,1
EndSplineSet
Validated: 1
EndChar

StartChar: uniE195
Encoding: 57749 57749 126
Width: 207
GlyphClass: 2
Flags: W
LayerCount: 2
Fore
SplineSet
-166 -521 m 2,0,-1
 194 -231 l 2,1,2
 201 -226 201 -226 209 -226 c 1,3,4
 218 -226 218 -226 227 -232 c 1,5,6
 234 -240 234 -240 233 -250 c 0,7,8
 233 -263 233 -263 224 -269 c 1,9,-1
 -135 -559 l 1,10,11
 -143 -564 -143 -564 -150 -564 c 1,12,13
 -161 -564 -161 -564 -168 -557 c 1,14,15
 -175 -551 -175 -551 -175 -540 c 0,16,17
 -175 -527 -175 -527 -166 -521 c 2,0,-1
EndSplineSet
Validated: 1
EndChar

StartChar: uniE196
Encoding: 57750 57750 127
Width: 268
GlyphClass: 2
Flags: W
LayerCount: 2
Fore
SplineSet
-206 492 m 2,0,1
 -218 498 -218 498 -218 513 c 0,2,3
 -218 524 -218 524 -211 529 c 1,4,5
 -204 537 -204 537 -193 537 c 0,6,7
 -189 537 -189 537 -182 534 c 1,8,-1
 281 269 l 2,9,10
 294 262 294 262 294 248 c 0,11,12
 294 237 294 237 287 230 c 0,13,14
 279 222 279 222 269 223 c 0,15,16
 263 223 263 223 257 226 c 2,17,-1
 -206 492 l 2,0,1
EndSplineSet
Validated: 1
EndChar

StartChar: uniE197
Encoding: 57751 57751 128
Width: 299
GlyphClass: 2
Flags: W
LayerCount: 2
Fore
SplineSet
31 200 m 1,0,1
 70 222 70 222 105 246 c 1,2,3
 142 272 142 272 172 299 c 0,4,5
 207 331 207 331 226 365 c 0,6,7
 246 402 246 402 245 438 c 0,8,9
 245 472 245 472 231 508 c 1,10,11
 220 494 220 494 168 445 c 0,12,13
 128 408 128 408 100 378 c 0,14,15
 75 351 75 351 53 310 c 0,16,17
 32 268 32 268 31 225 c 2,18,-1
 31 200 l 1,0,1
300 663 m 0,19,20
 300 604 300 604 263 547 c 1,21,22
 287 495 287 495 287 438 c 0,23,24
 287 390 287 390 261 342 c 0,25,26
 233 289 233 289 197 256 c 2,27,-1
 121 182 l 1,28,29
 83 143 83 143 58 97 c 0,30,31
 32 50 32 50 31 0 c 1,32,-1
 0 0 l 1,33,-1
 0 500 l 1,34,-1
 31 500 l 1,35,-1
 31 425 l 1,36,37
 258 543 258 543 258 663 c 0,38,39
 258 689 258 689 244 725 c 1,40,-1
 244 729 l 2,41,42
 244 738 244 738 250 744 c 0,43,44
 258 752 258 752 268 752 c 256,45,46
 278 752 278 752 285 740 c 1,47,48
 294 724 294 724 295 710 c 0,49,50
 296 703 296 703 297 692 c 2,51,-1
 299 682 l 2,52,53
 300 675 300 675 300 663 c 0,19,20
EndSplineSet
Validated: 33
EndChar

StartChar: uniE198
Encoding: 57752 57752 129
Width: 299
GlyphClass: 2
Flags: W
LayerCount: 2
Fore
SplineSet
31 210 m 1,0,1
 72 238 72 238 102 260 c 0,2,3
 133 283 133 283 166 315 c 0,4,5
 200 347 200 347 218.5 383.5 c 128,-1,6
 237 420 237 420 237 457 c 0,7,8
 237 482 237 482 227 509 c 1,9,10
 206 484 206 484 165 445 c 0,11,12
 114 396 114 396 98 379 c 0,13,14
 74 352 74 352 53 310 c 0,15,16
 32 268 32 268 31 225 c 2,17,-1
 31 210 l 1,0,1
300 886 m 0,18,19
 300 828 300 828 263 771 c 1,20,21
 292 716 292 716 292 660 c 0,22,23
 292 604 292 604 255 547 c 1,24,25
 279 502 279 502 279 457 c 0,26,27
 279 408 279 408 254 357 c 0,28,29
 230 308 230 308 191 268 c 2,30,-1
 119 189 l 2,31,32
 81 148 81 148 57 100 c 0,33,34
 32 51 32 51 31 0 c 1,35,-1
 0 0 l 1,36,-1
 0 750 l 1,37,-1
 31 750 l 1,38,-1
 31 660 l 1,39,40
 258 766 258 766 258 886 c 0,41,42
 258 912 258 912 244 947 c 1,43,-1
 244 951 l 2,44,45
 244 960 244 960 250 966 c 0,46,47
 258 974 258 974 268 974 c 0,48,49
 300 974 300 974 300 886 c 0,18,19
31 435 m 1,50,51
 250 545 250 545 250 661 c 0,52,53
 250 696 250 696 232 734 c 1,54,55
 211 708 211 708 169 670 c 0,56,57
 125 630 125 630 100 604 c 0,58,59
 77 581 77 581 53 535 c 0,60,61
 32 493 32 493 31 450 c 2,62,-1
 31 435 l 1,50,51
EndSplineSet
Validated: 1
EndChar

StartChar: uniE199
Encoding: 57753 57753 130
Width: 299
GlyphClass: 2
Flags: W
LayerCount: 2
Fore
SplineSet
300 1026 m 0,0,1
 300 987 300 987 281 954 c 1,2,3
 292 909 292 909 292 871 c 0,4,5
 292 827 292 827 273 790 c 1,6,7
 284 734 284 734 284 688 c 0,8,9
 284 635 284 635 259 587 c 1,10,11
 261 555 261 555 263 490 c 1,12,13
 263 436 263 436 238 387 c 0,14,15
 211 331 211 331 181 291 c 0,16,17
 159 263 159 263 113 204 c 0,18,19
 80 161 80 161 55 108 c 0,20,21
 32 57 32 57 31 5 c 2,22,-1
 31 0 l 1,23,-1
 0 0 l 1,24,-1
 0 1000 l 1,25,-1
 31 1000 l 1,26,-1
 31 875 l 1,27,28
 83 883 83 883 135 900 c 0,29,30
 183 916 183 916 221 950 c 0,31,32
 258 984 258 984 258 1026 c 0,33,34
 258 1043 258 1043 255 1059 c 0,35,36
 252 1077 l 0,37,38
 252 1088 252 1088 260 1093 c 1,39,40
 266 1099 266 1099 275 1099 c 0,41,42
 291 1099 291 1099 295 1084 c 0,43,44
 300 1066 300 1066 300 1026 c 0,0,1
31 205 m 1,45,46
 73 243 73 243 96 268 c 1,47,48
 122 294 122 294 154 332 c 1,49,50
 187 373 187 373 203 411 c 0,51,52
 220 452 220 452 220 490 c 2,53,-1
 220 526 l 1,54,55
 203 504 203 504 160 457 c 0,56,57
 113 407 113 407 96 385 c 1,58,59
 73 360 73 360 52 312 c 1,60,61
 31 268 31 268 31 225 c 2,62,-1
 31 205 l 1,45,46
31 425 m 1,63,64
 67 449 67 449 104 479 c 1,65,66
 132 500 132 500 170 538 c 1,67,68
 206 576 206 576 223 611 c 1,69,70
 243 649 243 649 242 688 c 0,71,72
 242 708 242 708 238 738 c 1,73,74
 220 717 220 717 174 672 c 0,75,76
 129 630 129 630 105 605 c 1,77,78
 76 577 76 577 55 536 c 1,79,80
 32 494 32 494 31 450 c 2,81,-1
 31 425 l 1,63,64
31 650 m 1,82,83
 250 757 250 757 250 871 c 0,84,85
 250 895 250 895 246 912 c 1,86,87
 230 896 230 896 181 860 c 0,88,89
 164 848 164 848 139 830.5 c 128,-1,90
 114 813 114 813 107 809 c 0,91,92
 77 787 77 787 55 752 c 0,93,94
 32 715 32 715 31 675 c 2,95,-1
 31 650 l 1,82,83
EndSplineSet
Validated: 33
EndChar

StartChar: uniE1AD
Encoding: 57773 57773 131
Width: 455
GlyphClass: 2
Flags: W
LayerCount: 2
Fore
SplineSet
439 380 m 0,0,1
 444 380 444 380 451 375 c 1,2,3
 455 369 455 369 455 364 c 256,4,5
 455 359 455 359 452 355 c 0,6,7
 447 348 447 348 403 282 c 0,8,9
 375 239 375 239 348 199 c 0,10,11
 339 185 339 185 291 127 c 0,12,13
 254 83 254 83 224 59 c 1,14,15
 196 38 196 38 154 18 c 0,16,17
 115 0 115 0 73 0 c 2,18,-1
 0 0 l 1,19,-1
 0 85 l 2,20,21
 0 96 0 96 7 102.5 c 128,-1,22
 14 109 14 109 24 109 c 2,23,-1
 73 109 l 2,24,25
 131 109 131 109 180 131 c 0,26,27
 231 152 231 152 276 193 c 0,28,29
 315 228 315 228 355 275 c 1,30,31
 396 327 396 327 427 373 c 0,32,33
 430 380 430 380 439 380 c 0,0,1
EndSplineSet
Validated: 1
EndChar

StartChar: uniE1AE
Encoding: 57774 57774 132
Width: 455
GlyphClass: 2
Flags: W
LayerCount: 2
Fore
SplineSet
455 -364 m 256,0,1
 455 -369 455 -369 451 -375 c 1,2,3
 444 -380 444 -380 439 -380 c 0,4,5
 430 -380 430 -380 427 -373 c 0,6,7
 397 -327 397 -327 355 -275 c 1,8,9
 315 -228 315 -228 276 -193 c 0,10,11
 230 -152 230 -152 180 -131 c 0,12,13
 131 -110 131 -110 73 -109 c 2,14,-1
 24 -109 l 2,15,16
 13 -109 13 -109 6.5 -102.5 c 128,-1,17
 0 -96 0 -96 0 -85 c 2,18,-1
 0 0 l 1,19,-1
 73 0 l 2,20,21
 115 0 115 0 154 -18 c 0,22,23
 195 -38 195 -38 224 -59 c 1,24,25
 254 -83 254 -83 291 -127 c 0,26,27
 339 -186 339 -186 348 -199 c 0,28,29
 375 -239 375 -239 403 -282 c 0,30,31
 447 -348 447 -348 452 -355 c 0,32,33
 455 -359 455 -359 455 -364 c 256,0,1
EndSplineSet
Validated: 1
EndChar

StartChar: uniE1AF
Encoding: 57775 57775 133
Width: 390
GlyphClass: 2
Flags: W
LayerCount: 2
Fore
SplineSet
391 386 m 0,0,1
 391 225 391 225 276 113 c 1,2,3
 163 0 163 0 0 0 c 128,-1,4
 -163 0 -163 0 -276 113 c 0,5,6
 -390 226 -390 226 -391 386 c 0,7,8
 -391 546 -391 546 -275 660 c 0,9,10
 -160 773 -160 773 0 773 c 128,-1,11
 160 773 160 773 275 660 c 0,12,13
 391 546 391 546 391 386 c 0,0,1
333 250 m 1,14,-1
 -333 250 l 1,15,16
 -295 152 -295 152 -203 86 c 1,17,18
 -111 24 -111 24 0 23.5 c 128,-1,19
 111 23 111 23 203 86 c 1,20,21
 295 152 295 152 333 250 c 1,14,-1
341 273 m 1,22,23
 358 326 358 326 359 386 c 1,24,25
 359 448 359 448 341 500 c 1,26,-1
 -341 500 l 1,27,28
 -358 447 -358 447 -359 386 c 1,29,30
 -359 326 -359 326 -341 273 c 1,31,-1
 341 273 l 1,22,23
-333 523 m 1,32,-1
 333 523 l 1,33,34
 294 624 294 624 203 688 c 1,35,36
 111 750 111 750 0 750 c 128,-1,37
 -111 750 -111 750 -203 688 c 1,38,39
 -295 622 -295 622 -333 523 c 1,32,-1
EndSplineSet
Validated: 33
EndChar

StartChar: uniE1B0
Encoding: 57776 57776 134
Width: 60
GlyphClass: 2
Flags: W
LayerCount: 2
Fore
SplineSet
-62 0 m 128,-1,1
 -62 26 -62 26 -44 44 c 128,-1,2
 -26 62 -26 62 0 62 c 128,-1,3
 26 62 26 62 44 44 c 128,-1,4
 62 26 62 26 62 0 c 128,-1,5
 62 -26 62 -26 44 -44 c 128,-1,6
 26 -62 26 -62 0 -62 c 128,-1,7
 -26 -62 -26 -62 -44 -44 c 128,-1,0
 -62 -26 -62 -26 -62 0 c 128,-1,1
EndSplineSet
Validated: 1
EndChar

StartChar: uniE1B1
Encoding: 57777 57777 135
Width: 265
GlyphClass: 2
Flags: W
LayerCount: 2
Fore
SplineSet
266 260.5 m 128,-1,1
 266 151 266 151 188 76 c 1,2,3
 112 0 112 0 0.5 0 c 0,4,5
 -112 0 -112 0 -188 76 c 0,6,7
 -266 153 -266 153 -266 261 c 0,8,9
 -266 370 -266 370 -188 447 c 0,10,11
 -112 523 -112 523 -0.5 523 c 0,12,13
 112 523 112 523 188 447 c 0,14,0
 266 370 266 370 266 260.5 c 128,-1,1
233 250 m 1,15,-1
 -233 250 l 1,16,17
 -228 154 -228 154 -161 90 c 1,18,19
 -95 24 -95 24 0 23.5 c 128,-1,20
 95 23 95 23 161 90 c 1,21,22
 229 156 229 156 233 250 c 1,15,-1
-233 273 m 1,23,-1
 233 273 l 1,24,25
 228 369 228 369 161 434 c 1,26,27
 95 500 95 500 0 500 c 128,-1,28
 -95 500 -95 500 -161 434 c 1,29,30
 -229 367 -229 367 -233 273 c 1,23,-1
EndSplineSet
Validated: 33
EndChar

StartChar: uniE1B2
Encoding: 57778 57778 136
Width: 516
GlyphClass: 2
Flags: W
LayerCount: 2
Fore
SplineSet
516 512 m 0,0,1
 516 373 516 373 446 254 c 0,2,3
 378 136 378 136 258 68 c 1,4,5
 142 0 142 0 0 0 c 128,-1,6
 -142 0 -142 0 -258 68 c 1,7,8
 -378 135 -378 135 -446 254 c 0,9,10
 -515 373 -515 373 -516 512 c 0,11,12
 -516 650 -516 650 -446 768 c 1,13,14
 -379 885 -379 885 -258 955 c 0,15,16
 -139 1023 -139 1023 0 1023 c 128,-1,17
 139 1023 139 1023 258 955 c 0,18,19
 379 885 379 885 446 768 c 1,20,21
 516 650 516 650 516 512 c 0,0,1
409 250 m 1,22,-1
 -409 250 l 1,23,24
 -344 147 -344 147 -234 85 c 0,25,26
 -127 23 -127 23 0 23 c 128,-1,27
 127 23 127 23 234 85 c 0,28,29
 344 147 344 147 409 250 c 1,22,-1
422 273 m 1,30,31
 480 382 480 382 484 500 c 1,32,-1
 -484 500 l 1,33,34
 -481 381 -481 381 -422 273 c 1,35,-1
 422 273 l 1,30,31
-422 750 m 1,36,37
 -480 641 -480 641 -484 523 c 1,38,-1
 484 523 l 1,39,40
 481 642 481 642 422 750 c 1,41,-1
 -422 750 l 1,36,37
-409 773 m 1,42,-1
 409 773 l 1,43,44
 344 876 344 876 234 938 c 0,45,46
 127 1000 127 1000 0 1000 c 128,-1,47
 -127 1000 -127 1000 -234 938 c 0,48,49
 -344 876 -344 876 -409 773 c 1,42,-1
EndSplineSet
Validated: 1
EndChar

StartChar: uniE1B3
Encoding: 57779 57779 137
Width: 265
GlyphClass: 2
Flags: W
LayerCount: 2
Fore
SplineSet
250 783 m 2,0,1
 266 783 266 783 266 766 c 2,2,-1
 266 16 l 2,3,4
 266 0 266 0 250 0 c 2,5,-1
 -250 0 l 2,6,7
 -266 0 -266 0 -266 16 c 2,8,-1
 -266 766 l 2,9,10
 -266 784 -266 784 -250 783 c 2,11,-1
 250 783 l 2,0,1
234 750 m 1,12,-1
 -234 750 l 1,13,-1
 -234 533 l 1,14,-1
 234 533 l 1,15,-1
 234 750 l 1,12,-1
234 500 m 1,16,-1
 -234 500 l 1,17,-1
 -234 283 l 1,18,-1
 234 283 l 1,19,-1
 234 500 l 1,16,-1
234 250 m 1,20,-1
 -234 250 l 1,21,-1
 -234 33 l 1,22,-1
 234 33 l 1,23,-1
 234 250 l 1,20,-1
EndSplineSet
Validated: 1
EndChar

StartChar: uniE1B4
Encoding: 57780 57780 138
Width: 265
GlyphClass: 2
Flags: W
LayerCount: 2
Fore
SplineSet
-197 260.5 m 128,-1,1
 -197 279 -197 279 -184 295 c 1,2,3
 -168 309 -168 309 -150 309 c 0,4,5
 -118 309 -118 309 -106 280 c 1,6,-1
 -35 274 l 1,7,-1
 -34 277 l 1,8,-1
 -89 323 l 1,9,10
 -96 320 -96 320 -106 320 c 0,11,12
 -125 320 -125 320 -141 334 c 1,13,14
 -155 348 -155 348 -154 367 c 0,15,16
 -154 385 -154 385 -141 400 c 1,17,18
 -126 415 -126 415 -106 415 c 0,19,20
 -87 415 -87 415 -73 400 c 0,21,22
 -58 386 -58 386 -59 367 c 0,23,24
 -59 358 -59 358 -62 350 c 1,25,-1
 -16 295 l 1,26,-1
 -13 297 l 1,27,-1
 -19 368 l 1,28,29
 -47 380 -47 380 -47 411 c 0,30,31
 -47 430 -47 430 -33 445 c 1,32,33
 -17 459 -17 459 0.5 459 c 128,-1,34
 18 459 18 459 33 445 c 1,35,36
 47 429 47 429 47 411 c 0,37,38
 47 380 47 380 19 368 c 1,39,-1
 13 297 l 1,40,-1
 16 295 l 1,41,-1
 62 350 l 1,42,43
 59 359 59 359 59 367 c 0,44,45
 59 387 59 387 72 400 c 0,46,47
 87 415 87 415 106.5 415 c 128,-1,48
 126 415 126 415 141 400 c 1,49,50
 155 384 155 384 154 367 c 0,51,52
 154 347 154 347 141 334 c 1,53,54
 125 320 125 320 106 320 c 0,55,56
 95 320 95 320 89 323 c 1,57,-1
 34 277 l 1,58,-1
 35 274 l 1,59,-1
 106 280 l 1,60,61
 118 308 118 308 150 309 c 0,62,63
 170 309 170 309 184 295 c 0,64,65
 199 280 199 280 198 262 c 0,66,67
 198 241 198 241 184 229 c 1,68,69
 170 214 170 214 150 214 c 0,70,71
 118 214 118 214 106 243 c 1,72,-1
 35 248 l 1,73,-1
 34 246 l 1,74,-1
 89 199 l 1,75,76
 98 203 98 203 106 203 c 0,77,78
 126 203 126 203 141 188 c 1,79,80
 155 172 155 172 154.5 154 c 128,-1,81
 154 136 154 136 141 122 c 1,82,83
 125 108 125 108 105.5 108 c 128,-1,84
 86 108 86 108 72.5 122 c 128,-1,85
 59 136 59 136 59 155 c 0,86,87
 59 166 59 166 62 173 c 1,88,-1
 16 227 l 1,89,-1
 13 226 l 1,90,-1
 19 155 l 1,91,92
 47 143 47 143 47 111 c 0,93,94
 47 93 47 93 33 78 c 1,95,96
 19 64 19 64 -0.5 64 c 128,-1,97
 -20 64 -20 64 -33.5 78 c 128,-1,98
 -47 92 -47 92 -47 111 c 0,99,100
 -47 143 -47 143 -19 155 c 1,101,-1
 -13 226 l 1,102,-1
 -16 227 l 1,103,-1
 -62 173 l 1,104,105
 -59 166 -59 166 -59 155 c 0,106,107
 -59 136 -59 136 -72 123 c 0,108,109
 -86 108 -86 108 -105.5 108 c 128,-1,110
 -125 108 -125 108 -141 122 c 1,111,112
 -155 136 -155 136 -154.5 154.5 c 128,-1,113
 -154 173 -154 173 -141 188 c 1,114,115
 -126 203 -126 203 -106 203 c 0,116,117
 -97 203 -97 203 -89 199 c 1,118,-1
 -34 246 l 1,119,-1
 -35 248 l 1,120,-1
 -106 243 l 1,121,122
 -118 214 -118 214 -150 214 c 0,123,124
 -170 214 -170 214 -184 229 c 0,125,0
 -197 242 -197 242 -197 260.5 c 128,-1,1
234 261 m 0,126,127
 234 359 234 359 166 430 c 1,128,129
 96 500 96 500 0 500 c 128,-1,130
 -96 500 -96 500 -166 430 c 1,131,132
 -234 360 -234 360 -234 261 c 0,133,134
 -234 164 -234 164 -166 94 c 1,135,136
 -96 24 -96 24 0 23.5 c 128,-1,137
 96 23 96 23 166 94 c 1,138,139
 234 164 234 164 234 261 c 0,126,127
266 260.5 m 128,-1,141
 266 151 266 151 188 76 c 1,142,143
 112 0 112 0 0.5 0 c 0,144,145
 -112 0 -112 0 -188 76 c 0,146,147
 -266 153 -266 153 -266 261 c 0,148,149
 -266 370 -266 370 -188 447 c 0,150,151
 -112 523 -112 523 -0.5 523 c 0,152,153
 112 523 112 523 188 447 c 0,154,140
 266 370 266 370 266 260.5 c 128,-1,141
EndSplineSet
Validated: 33
EndChar

StartChar: uniE1B5
Encoding: 57781 57781 139
Width: 455
GlyphClass: 2
Flags: W
LayerCount: 2
Fore
SplineSet
16 380 m 0,0,1
 25 380 25 380 28 373 c 0,2,3
 58 327 58 327 100 275 c 1,4,5
 140 228 140 228 179 193 c 0,6,7
 223 153 223 153 275 131 c 0,8,9
 324 110 324 110 382 109 c 2,10,-1
 431 109 l 2,11,12
 442 109 442 109 448.5 102.5 c 128,-1,13
 455 96 455 96 455 85 c 2,14,-1
 455 0 l 1,15,-1
 382 0 l 2,16,17
 340 0 340 0 301 18 c 0,18,19
 260 38 260 38 231 59 c 1,20,21
 201 83 201 83 164 127 c 0,22,23
 116 186 116 186 107 199 c 0,24,25
 80 239 80 239 52 282 c 0,26,27
 7 350 7 350 3 355 c 0,28,29
 0 359 0 359 0 364 c 256,30,31
 0 369 0 369 4 375 c 1,32,33
 11 380 11 380 16 380 c 0,0,1
EndSplineSet
Validated: 1
EndChar

StartChar: uniE1B6
Encoding: 57782 57782 140
Width: 455
GlyphClass: 2
Flags: W
LayerCount: 2
Fore
SplineSet
0 -364 m 256,0,1
 0 -359 0 -359 3 -355 c 0,2,3
 7 -350 7 -350 52 -282 c 0,4,5
 80 -239 80 -239 107 -199 c 0,6,7
 116 -185 116 -185 164 -127 c 0,8,9
 201 -83 201 -83 231 -59 c 1,10,11
 259 -38 259 -38 301 -18 c 0,12,13
 340 0 340 0 382 0 c 2,14,-1
 455 0 l 1,15,-1
 455 -85 l 2,16,17
 455 -96 455 -96 448 -102.5 c 128,-1,18
 441 -109 441 -109 431 -109 c 2,19,-1
 382 -109 l 2,20,21
 324 -109 324 -109 275 -131 c 0,22,23
 224 -152 224 -152 179 -193 c 0,24,25
 140 -228 140 -228 100 -275 c 1,26,27
 59 -327 59 -327 28 -373 c 0,28,29
 24 -380 24 -380 16 -380 c 0,30,31
 11 -380 11 -380 4 -375 c 1,32,33
 0 -369 0 -369 0 -364 c 256,0,1
EndSplineSet
Validated: 1
EndChar

StartChar: uniE1B7
Encoding: 57783 57783 141
Width: 268
GlyphClass: 2
Flags: W
LayerCount: 2
Fore
SplineSet
269 1251 m 0,0,1
 269 1212 269 1212 250 1179 c 1,2,3
 261 1134 261 1134 261 1096 c 0,4,5
 261 1052 261 1052 242 1015 c 1,6,7
 253 959 253 959 253 913 c 0,8,9
 253 860 253 860 228 812 c 1,10,11
 230 780 230 780 231 715 c 1,12,13
 231 665 231 665 207 612 c 1,14,15
 210 566 210 566 210 519 c 0,16,17
 210 455 210 455 177 385 c 0,18,19
 143 316 143 316 105 264 c 1,20,21
 70 218 70 218 33 143 c 0,22,23
 0 76 0 76 0 9 c 2,24,-1
 0 0 l 1,25,-1
 -16 0 l 1,26,-1
 -16 1250 l 1,27,-1
 0 1250 l 1,28,-1
 0 1100 l 1,29,30
 52 1108 52 1108 104 1125 c 0,31,32
 152 1141 152 1141 189 1175 c 0,33,34
 226 1209 226 1209 227 1251 c 0,35,36
 227 1268 227 1268 224 1283 c 0,37,38
 221 1301 221 1301 221 1302 c 0,39,40
 221 1312 221 1312 229 1318 c 0,41,42
 235 1324 235 1324 244 1324 c 0,43,44
 260 1324 260 1324 264 1309 c 0,45,46
 269 1292 269 1292 269 1251 c 0,0,1
0 209 m 1,47,48
 58 277 58 277 78 305 c 1,49,50
 107 341 107 341 139 405 c 0,51,52
 168 467 168 467 168 519 c 2,53,-1
 168 530 l 1,54,55
 167 535 167 535 167 542 c 1,56,57
 155 523 155 523 114 470 c 0,58,59
 66 408 66 408 57 393 c 0,60,61
 38 368 38 368 18 318 c 0,62,63
 0 274 0 274 0 230 c 2,64,-1
 0 209 l 1,47,48
0 430 m 1,65,66
 42 468 42 468 64 492 c 1,67,68
 90 518 90 518 123 557 c 1,69,70
 156 598 156 598 172 636 c 0,71,72
 189 677 189 677 188 715 c 2,73,-1
 188 751 l 1,74,75
 171 729 171 729 129 682 c 0,76,77
 92 643 92 643 64 609 c 1,78,79
 42 584 42 584 21 538 c 0,80,81
 0 494 0 494 0 450 c 2,82,-1
 0 430 l 1,65,66
0 650 m 1,83,84
 44 680 44 680 72 703 c 0,85,86
 108 732 108 732 139 763 c 1,87,88
 175 801 175 801 191 836 c 1,89,90
 211 874 211 874 211 913 c 0,91,92
 211 933 211 933 207 963 c 1,93,94
 186 939 186 939 143 897 c 1,95,96
 84 840 84 840 74 830 c 1,97,98
 46 805 46 805 23 761 c 1,99,100
 0 719 0 719 0 675 c 2,101,-1
 0 650 l 1,83,84
0 875 m 1,102,103
 219 982 219 982 219 1096 c 0,104,105
 219 1120 219 1120 215 1137 c 1,106,107
 199 1121 199 1121 149 1085 c 0,108,109
 132 1073 132 1073 107.5 1055.5 c 128,-1,110
 83 1038 83 1038 76 1033 c 0,111,112
 46 1011 46 1011 23 977 c 0,113,114
 0 942 0 942 0 900 c 2,115,-1
 0 875 l 1,102,103
EndSplineSet
Validated: 33
EndChar

StartChar: uniE1B8
Encoding: 57784 57784 142
Width: 207
GlyphClass: 2
Flags: W
LayerCount: 2
Fore
SplineSet
0 -213 m 1,0,-1
 0 -232 l 2,1,2
 0 -273 0 -273 16 -314 c 0,3,4
 30 -351 30 -351 49 -383 c 0,5,6
 65 -409 65 -409 99 -456 c 0,7,8
 123 -490 123 -490 145 -523 c 1,9,10
 149 -507 149 -507 150 -478 c 1,11,12
 150 -435 150 -435 123 -381 c 128,-1,13
 96 -327 96 -327 70 -294 c 1,14,15
 38 -255 38 -255 0 -213 c 1,0,-1
0 0 m 1,16,17
 0 -47 0 -47 20 -100 c 1,18,19
 41 -151 41 -151 68 -195 c 2,20,-1
 125 -283 l 2,21,22
 154 -330 154 -330 174 -378 c 1,23,24
 194 -431 194 -431 193 -478 c 0,25,26
 193 -524 193 -524 174 -574 c 1,27,28
 203 -635 203 -635 203 -688 c 0,29,30
 203 -746 203 -746 174 -807 c 1,31,32
 203 -868 203 -868 203 -920 c 0,33,34
 203 -979 203 -979 174 -1039 c 1,35,36
 203 -1100 203 -1100 203 -1153 c 0,37,38
 203 -1203 203 -1203 168 -1250 c 1,39,40
 209 -1322 209 -1322 209 -1385 c 0,41,42
 209 -1474 209 -1474 167 -1563 c 1,43,44
 159 -1574 159 -1574 148 -1574 c 0,45,46
 138 -1574 138 -1574 131 -1566 c 0,47,48
 125 -1559 125 -1559 125 -1551 c 2,49,-1
 125 -1547 l 1,50,51
 167 -1467 167 -1467 167 -1385 c 0,52,53
 167 -1324 167 -1324 120 -1264 c 0,54,55
 75 -1207 75 -1207 0 -1142 c 1,56,-1
 0 -1250 l 1,57,-1
 -16 -1250 l 1,58,-1
 -16 0 l 1,59,-1
 0 0 l 1,16,17
0 -445 m 1,60,-1
 0 -465 l 2,61,62
 0 -506 0 -506 15.5 -547 c 128,-1,63
 31 -588 31 -588 50 -617 c 0,64,65
 64 -638 64 -638 100 -691 c 1,66,67
 129 -730 129 -730 147 -759 c 1,68,69
 160 -724 160 -724 160 -688 c 0,70,71
 160 -644 160 -644 132 -596 c 0,72,73
 104 -546 104 -546 74 -516 c 0,74,75
 43 -482 43 -482 0 -445 c 1,60,-1
0 -677 m 1,76,-1
 0 -697 l 2,77,78
 0 -738 0 -738 15.5 -779 c 128,-1,79
 31 -820 31 -820 50 -850 c 0,80,81
 68 -877 68 -877 100 -923 c 1,82,83
 122 -953 122 -953 147 -991 c 1,84,85
 160 -956 160 -956 160 -920 c 0,86,87
 160 -877 160 -877 132 -828 c 0,88,89
 104 -778 104 -778 74 -748 c 0,90,91
 37 -709 37 -709 0 -677 c 1,76,-1
0 -910 m 1,92,-1
 0 -930 l 2,93,94
 0 -970 0 -970 16 -1010 c 0,95,96
 31 -1047 31 -1047 47 -1076 c 0,97,98
 61 -1099 61 -1099 98 -1148 c 1,99,100
 142 -1209 142 -1209 144 -1212 c 1,101,102
 159 -1188 159 -1188 160 -1153 c 1,103,104
 160 -1109 160 -1109 132 -1061 c 0,105,106
 104 -1011 104 -1011 74 -980 c 0,107,108
 43 -947 43 -947 0 -910 c 1,92,-1
EndSplineSet
Validated: 33
EndChar

StartChar: uniE1B9
Encoding: 57785 57785 143
Width: 264
GlyphClass: 2
Flags: W
LayerCount: 2
Fore
SplineSet
148 133 m 2,0,1
 148 117 148 117 132.5 117 c 128,-1,2
 117 117 117 117 117 133 c 2,3,-1
 117 232 l 1,4,5
 82 226 82 226 57 198 c 0,6,7
 33 171 33 171 32 133 c 0,8,9
 32 91 32 91 61.5 61.5 c 128,-1,10
 91 32 91 32 133 32 c 128,-1,11
 175 32 175 32 204 61.5 c 128,-1,12
 233 91 233 91 233 133 c 0,13,14
 233 171 233 171 209 198 c 0,15,16
 184 226 184 226 148 232 c 1,17,-1
 148 133 l 2,0,1
117 265 m 1,18,-1
 117 333 l 2,19,20
 117 349 117 349 132.5 349 c 128,-1,21
 148 349 148 349 148 333 c 2,22,-1
 148 265 l 1,23,24
 197 259 197 259 232 221 c 1,25,26
 265 183 265 183 266 133 c 0,27,28
 266 77 266 77 227 39 c 1,29,30
 189 0 189 0 133 0 c 128,-1,31
 77 0 77 0 39 39 c 1,32,33
 0 77 0 77 0 133 c 0,34,35
 0 183 0 183 33 221 c 1,36,37
 68 259 68 259 117 265 c 1,18,-1
EndSplineSet
Validated: 1
EndChar

StartChar: uniE1BA
Encoding: 57786 57786 144
Width: 722
GlyphClass: 2
Flags: W
LayerCount: 2
Fore
SplineSet
698.5 -138 m 128,-1,1
 674 -138 674 -138 674 -112 c 2,2,-1
 674 112 l 2,3,4
 674 137 674 137 698.5 137.5 c 128,-1,5
 723 138 723 138 723 112 c 2,6,-1
 723 -112 l 2,7,0
 723 -138 723 -138 698.5 -138 c 128,-1,1
24.5 -138 m 128,-1,9
 0 -138 0 -138 0 -112 c 2,10,-1
 0 112 l 2,11,12
 0 137 0 137 24.5 137.5 c 128,-1,13
 49 138 49 138 49 112 c 2,14,-1
 49 -112 l 2,15,8
 49 -138 49 -138 24.5 -138 c 128,-1,9
362 138 m 0,16,17
 459 138 459 138 520 106 c 0,18,19
 582 75 582 75 600 39 c 1,20,-1
 600 112 l 2,21,22
 600 137 600 137 624 137.5 c 128,-1,23
 648 138 648 138 648 112 c 2,24,-1
 648 -112 l 2,25,26
 648 -137 648 -137 624 -137.5 c 128,-1,27
 600 -138 600 -138 600 -112 c 2,28,-1
 600 -39 l 1,29,30
 580 -76 580 -76 521 -106 c 0,31,32
 460 -137 460 -137 362.5 -137.5 c 128,-1,33
 265 -138 265 -138 204 -106 c 0,34,35
 142 -75 142 -75 124 -39 c 1,36,-1
 124 -112 l 2,37,38
 124 -137 124 -137 99.5 -137.5 c 128,-1,39
 75 -138 75 -138 75 -112 c 2,40,-1
 75 112 l 2,41,42
 75 137 75 137 99.5 137.5 c 128,-1,43
 124 138 124 138 124 112 c 2,44,-1
 124 39 l 1,45,46
 143 76 143 76 203 106 c 0,47,48
 263 138 263 138 362 138 c 0,16,17
329 112 m 1,49,50
 293 110 293 110 277 88 c 0,51,52
 260 64 260 64 261 24 c 0,53,54
 261 -22 261 -22 285 -55 c 1,55,56
 306 -86 306 -86 338 -100 c 0,57,58
 366 -113 366 -113 395 -112 c 0,59,60
 428 -112 428 -112 445.5 -87.5 c 128,-1,61
 463 -63 463 -63 463 -24 c 0,62,63
 463 22 463 22 438.5 55 c 128,-1,64
 414 88 414 88 385 100 c 1,65,66
 356 112 356 112 329 112 c 1,49,50
EndSplineSet
Validated: 33
EndChar

StartChar: uniE1C4
Encoding: 57796 57796 145
Width: 444
GlyphClass: 2
Flags: W
LayerCount: 2
Fore
SplineSet
396 128 m 1,0,-1
 396 951 l 2,1,2
 396 976 396 976 420 976.5 c 128,-1,3
 444 977 444 977 444 951 c 2,4,-1
 444 -200 l 2,5,6
 444 -225 444 -225 420 -225.5 c 128,-1,7
 396 -226 396 -226 396 -200 c 2,8,-1
 396 -128 l 1,9,-1
 49 -128 l 1,10,-1
 49 -200 l 2,11,12
 49 -225 49 -225 24.5 -225.5 c 128,-1,13
 0 -226 0 -226 0 -200 c 2,14,-1
 0 200 l 2,15,16
 0 225 0 225 24.5 225.5 c 128,-1,17
 49 226 49 226 49 200 c 2,18,-1
 49 128 l 1,19,-1
 396 128 l 1,0,-1
49 50 m 1,20,-1
 49 -50 l 1,21,-1
 396 -50 l 1,22,-1
 396 50 l 1,23,-1
 49 50 l 1,20,-1
EndSplineSet
Validated: 33
EndChar

StartChar: uniE1C5
Encoding: 57797 57797 146
Width: 444
GlyphClass: 2
Flags: W
LayerCount: 2
Fore
SplineSet
396 128 m 1,0,-1
 396 200 l 2,1,2
 396 225 396 225 420 225.5 c 128,-1,3
 444 226 444 226 444 200 c 2,4,-1
 444 -200 l 2,5,6
 444 -225 444 -225 420 -225.5 c 128,-1,7
 396 -226 396 -226 396 -200 c 2,8,-1
 396 -128 l 1,9,-1
 49 -128 l 1,10,-1
 49 -951 l 2,11,12
 49 -976 49 -976 24.5 -976.5 c 128,-1,13
 0 -977 0 -977 0 -951 c 2,14,-1
 0 200 l 2,15,16
 0 225 0 225 24.5 225.5 c 128,-1,17
 49 226 49 226 49 200 c 2,18,-1
 49 128 l 1,19,-1
 396 128 l 1,0,-1
49 50 m 1,20,-1
 49 -50 l 1,21,-1
 396 -50 l 1,22,-1
 396 50 l 1,23,-1
 49 50 l 1,20,-1
EndSplineSet
Validated: 33
EndChar

StartChar: uniE1C7
Encoding: 57799 57799 147
Width: 338
GlyphClass: 2
Flags: W
LayerCount: 2
Fore
SplineSet
308 63 m 0,0,1
 308 80 308 80 295 92 c 0,2,3
 281 104 281 104 267 104 c 0,4,5
 258 104 258 104 255 103 c 0,6,7
 230 96 230 96 144 40 c 0,8,9
 59 -15 59 -15 42 -36 c 0,10,11
 31 -50 31 -50 31 -63 c 0,12,13
 31 -80 31 -80 44 -92 c 128,-1,14
 57 -104 57 -104 72 -104 c 0,15,16
 81 -104 81 -104 84 -103 c 0,17,18
 114 -94 114 -94 196 -40 c 0,19,20
 281 15 281 15 298 36 c 1,21,22
 308 45 308 45 308 63 c 0,0,1
258 134 m 0,23,24
 296 134 296 134 316 116 c 1,25,26
 338 99 338 99 339 63 c 0,27,28
 339 38 339 38 329 9 c 0,29,30
 307 -57 307 -57 266 -85 c 0,31,32
 192 -135 192 -135 82 -135 c 0,33,34
 45 -135 45 -135 23 -117 c 0,35,36
 0 -97 0 -97 0 -63 c 0,37,38
 0 -43 0 -43 11 -9 c 1,39,40
 33 57 33 57 73 85 c 0,41,42
 148 134 148 134 258 134 c 0,23,24
EndSplineSet
Validated: 1
EndChar

StartChar: uniE1C8
Encoding: 57800 57800 148
Width: 338
GlyphClass: 2
Flags: W
LayerCount: 2
Fore
SplineSet
308 63 m 0,0,1
 308 80 308 80 295 92 c 0,2,3
 281 104 281 104 267 104 c 0,4,5
 258 104 258 104 255 103 c 0,6,7
 230 96 230 96 144 40 c 0,8,9
 59 -15 59 -15 42 -36 c 0,10,11
 31 -50 31 -50 31 -63 c 0,12,13
 31 -80 31 -80 44 -92 c 128,-1,14
 57 -104 57 -104 72 -104 c 0,15,16
 81 -104 81 -104 84 -103 c 0,17,18
 114 -94 114 -94 196 -40 c 0,19,20
 281 15 281 15 298 36 c 1,21,22
 308 45 308 45 308 63 c 0,0,1
258 134 m 0,23,24
 296 134 296 134 316 116 c 1,25,26
 338 99 338 99 339 63 c 0,27,28
 339 38 339 38 329 9 c 0,29,30
 307 -57 307 -57 266 -85 c 0,31,32
 192 -135 192 -135 82 -135 c 0,33,34
 45 -135 45 -135 23 -117 c 0,35,36
 0 -97 0 -97 0 -63 c 0,37,38
 0 -43 0 -43 11 -9 c 1,39,40
 33 57 33 57 73 85 c 0,41,42
 148 134 148 134 258 134 c 0,23,24
EndSplineSet
Validated: 1
EndChar

StartChar: uniE1C9
Encoding: 57801 57801 149
Width: 338
GlyphClass: 2
Flags: W
LayerCount: 2
Fore
SplineSet
258 134 m 0,0,1
 296 134 296 134 316 116 c 1,2,3
 338 99 338 99 339 63 c 0,4,5
 339 38 339 38 329 9 c 0,6,7
 307 -57 307 -57 266 -85 c 0,8,9
 192 -135 192 -135 82 -135 c 0,10,11
 45 -135 45 -135 23 -117 c 0,12,13
 0 -97 0 -97 0 -63 c 0,14,15
 0 -43 0 -43 11 -9 c 1,16,17
 33 57 33 57 73 85 c 0,18,19
 148 134 148 134 258 134 c 0,0,1
EndSplineSet
Validated: 1
EndChar

StartChar: uniE1CA
Encoding: 57802 57802 150
Width: 0
GlyphClass: 2
Flags: W
LayerCount: 2
Fore
SplineSet
0 281 m 0,0,1
 0 275 0 275 -4 271 c 2,2,-1
 -191 8 l 2,3,4
 -197 0 -197 0 -206 0 c 128,-1,5
 -215 0 -215 0 -219 6 c 1,6,7
 -225 10 -225 10 -225 19 c 0,8,9
 -225 25 -225 25 -221 29 c 2,10,-1
 -41 281 l 1,11,-1
 -221 532 l 2,12,13
 -225 537 -225 537 -225 543 c 0,14,15
 -225 551 -225 551 -219 557 c 0,16,17
 -214 562 -214 562 -206 562 c 0,18,19
 -197 562 -197 562 -191 554 c 2,20,-1
 -4 291 l 2,21,22
 0 286 0 286 0 281 c 0,0,1
EndSplineSet
Validated: 1
EndChar

StartChar: uniE1CD
Encoding: 57805 57805 151
Width: 458
GlyphClass: 2
Flags: W
LayerCount: 2
Fore
SplineSet
562 349 m 0,0,1
 536 212 536 212 486 126 c 1,2,-1
 407 9 l 2,3,4
 401 0 401 0 391 0 c 0,5,6
 381 0 381 0 375 7 c 2,7,-1
 277 126 l 1,8,-1
 199 9 l 2,9,10
 193 0 193 0 183 0 c 0,11,12
 173 0 173 0 167 7 c 2,13,-1
 68 126 l 1,14,-1
 37 79 l 2,15,16
 31 70 31 70 21 70 c 0,17,18
 12 70 12 70 6.5 76 c 128,-1,19
 1 82 1 82 1 89 c 256,20,21
 1 96 1 96 4 101 c 2,22,-1
 97 241 l 2,23,24
 103 250 103 250 113 250 c 0,25,26
 123 250 123 250 129 243 c 2,27,-1
 227 124 l 1,28,-1
 305 241 l 2,29,30
 311 250 311 250 321 250 c 0,31,32
 331 250 331 250 337 243 c 2,33,-1
 436 124 l 1,34,35
 496 217 496 217 530 383 c 0,36,37
 547 457 547 457 598 508 c 0,38,39
 636 546 636 546 748 546 c 0,40,41
 761 546 761 546 761 535 c 128,-1,42
 761 524 761 524 748 524 c 0,43,44
 656 524 656 524 617 485 c 0,45,46
 581 449 581 449 562 349 c 0,0,1
EndSplineSet
Validated: 1
EndChar

StartChar: uniE1D1
Encoding: 57809 57809 152
Width: 444
GlyphClass: 2
Flags: W
LayerCount: 2
Fore
SplineSet
396 128 m 1,0,-1
 396 200 l 2,1,2
 396 225 396 225 420 225.5 c 128,-1,3
 444 226 444 226 444 200 c 2,4,-1
 444 -200 l 2,5,6
 444 -225 444 -225 420 -225.5 c 128,-1,7
 396 -226 396 -226 396 -200 c 2,8,-1
 396 -128 l 1,9,-1
 49 -128 l 1,10,-1
 49 -200 l 2,11,12
 49 -225 49 -225 24.5 -225.5 c 128,-1,13
 0 -226 0 -226 0 -200 c 2,14,-1
 0 200 l 2,15,16
 0 225 0 225 24.5 225.5 c 128,-1,17
 49 226 49 226 49 200 c 2,18,-1
 49 128 l 1,19,-1
 396 128 l 1,0,-1
49 50 m 1,20,-1
 49 -50 l 1,21,-1
 396 -50 l 1,22,-1
 396 50 l 1,23,-1
 49 50 l 1,20,-1
EndSplineSet
Validated: 33
EndChar

StartChar: uniE1D2
Encoding: 57810 57810 153
Width: 494
GlyphClass: 2
Flags: W
HStem: 289 26<225.633 319.812> 539 26<175.014 271.685>
VStem: 0 146<376.223 485.012> 349 146<367.979 477.777>
LayerCount: 2
Fore
SplineSet
215 539 m 4,0,1
 180 539 180 539 164 515 c 5,2,3
 146 492 146 492 146 451 c 4,4,5
 146 405 146 405 171 372 c 4,6,7
 195 340 195 340 225 327 c 5,8,9
 251 314 251 314 280 315 c 4,10,11
 314 315 314 315 332 339 c 4,12,13
 349 363 349 363 349 403 c 4,14,15
 349 449 349 449 324 482 c 5,16,17
 300 513 300 513 271 527 c 4,18,19
 243 539 243 539 215 539 c 4,0,1
248 565 m 4,20,21
 353 565 353 565 424 524 c 132,-1,22
 495 483 495 483 495 427 c 4,23,24
 495 367 495 367 422 329 c 5,25,26
 349 289 349 289 248 289 c 4,27,28
 144 289 144 289 72 330 c 260,29,30
 0 371 0 371 0 427 c 4,31,32
 0 487 0 487 74 525 c 5,33,34
 147 565 147 565 248 565 c 4,20,21
EndSplineSet
Validated: 33
EndChar

StartChar: uniE1D3
Encoding: 57811 57811 154
Width: 339
GlyphClass: 2
Flags: W
HStem: 284 31<40.6753 115.434>
VStem: 0 31<325.178 387.303> 290 49<566.952 1216.01> 308 31<449.637 510.624>
LayerCount: 2
Fore
SplineSet
308 482 m 0,0,1
 308 499 308 499 295 511 c 0,2,3
 281 523 281 523 267 523 c 0,4,5
 258 523 258 523 255 522 c 0,6,7
 230 515 230 515 144 459 c 0,8,9
 59 404 59 404 42 383 c 0,10,11
 31 369 31 369 31 356 c 0,12,13
 31 339 31 339 44 327 c 128,-1,14
 57 315 57 315 72 315 c 0,15,16
 81 315 81 315 84 316 c 0,17,18
 114 325 114 325 196 379 c 0,19,20
 281 434 281 434 298 455 c 1,21,22
 308 464 308 464 308 482 c 0,0,1
339 482 m 6,23,24
 339 459.844 339 459.844 329 428 c 0,25,26
 307 362 307 362 266 334 c 0,27,28
 192 284 192 284 82 284 c 0,29,30
 45 284 45 284 23 302 c 0,31,32
 0 322 0 322 0 356 c 0,33,34
 0 376 0 376 11 410 c 1,35,36
 35.5195 483.559 35.5195 483.559 73 504 c 0,37,38
 206.065 575.489 206.065 575.489 258 571 c 0,39,40
 289.16 568.171 289.16 568.171 290 566.952 c 1,41,42
 290 1190.99 l 2,43,44
 290 1219.9 290 1219.9 314.5 1216.5 c 128,-1,45
 338.999 1213.16 338.999 1213.16 338.999 1191 c 6,46,-1
 339 482 l 6,23,24
EndSplineSet
Validated: 33
EndChar

StartChar: uniE1D5
Encoding: 57813 57813 155
Width: 329
GlyphClass: 2
Flags: W
HStem: 288 276<125.737 225.276>
VStem: 280 48.999<550.992 1198.34>
LayerCount: 2
Fore
SplineSet
328.999 459.001 m 2,0,1
 328.999 399.782 328.999 399.782 260 333 c 0,2,3
 213.507 288 213.507 288 109 288 c 0,4,5
 62 288 62 288 30 313 c 1,6,7
 0 339 0 339 0 379 c 0,8,9
 0 446 0 446 70 505 c 1,10,11
 139 564 139 564 220 564 c 0,12,13
 253.902 564 253.902 564 280 550.992 c 1,14,-1
 280 1172.99 l 2,15,16
 280 1197.99 280 1197.99 304.5 1198.5 c 128,-1,17
 328.999 1199 328.999 1199 328.999 1173 c 2,18,-1
 328.999 459.001 l 2,0,1
EndSplineSet
Validated: 33
EndChar

StartChar: uniE1D7
Encoding: 57815 57815 156
Width: 538
GlyphClass: 2
Flags: W
HStem: 288 276<125.737 225.276>
VStem: 280 48.999<1069.01 1198.34> 454 42<428.195 498.825> 496 42<512.125 734.981>
LayerCount: 2
Fore
SplineSet
328.999 1173 m 1,0,1
 328.999 1199 328.999 1199 304.5 1198.5 c 128,-1,2
 280 1197.99 280 1197.99 280 1172.99 c 2,3,-1
 280 550.992 l 1,4,5
 253.902 564 253.902 564 220 564 c 0,6,7
 139 564 139 564 70 505 c 1,8,9
 0 446 0 446 0 379 c 0,10,11
 0 339 0 339 30 313 c 1,12,13
 62 288 62 288 109 288 c 0,14,15
 213.507 288 213.507 288 260 333 c 0,16,17
 328.997 400.13 328.997 400.13 328.999 459.001 c 2,18,-1
 329.015 929.972 l 1,19,20
 373.015 883.972 373.015 883.972 407.007 843.986 c 128,-1,21
 441 804 441 804 467 752 c 0,22,23
 496 696 496 696 496 647 c 0,24,25
 496 552 496 552 454 455 c 1,26,-1
 454 451 l 2,27,28
 454 442 454 442 460 436 c 0,29,30
 468 428 468 428 478 428 c 0,31,32
 489 428 489 428 496 440 c 1,33,34
 538 545 538 545 538 647 c 0,35,36
 538 702 538 702 516.5 758 c 128,-1,37
 495 814 495 814 464 865 c 0,38,39
 423 931 423 931 402 963 c 0,40,41
 376.068 1002.52 376.068 1002.52 351 1069 c 0,42,43
 328.999 1127.35 328.999 1127.35 328.999 1173 c 1,0,1
EndSplineSet
Validated: 41
EndChar

StartChar: uniE1D9
Encoding: 57817 57817 157
Width: 538
GlyphClass: 2
Flags: W
HStem: 288 276<122.882 225.276>
VStem: 280 48.999<552.992 823.992 940.672 1036 1149.01 1274.34> 454 42<372.195 436.075> 489 43<732.657 867.269> 496 42<449.457 651.263>
LayerCount: 2
Fore
SplineSet
328.997 823.992 m 5,0,1
 328.999 461.001 l 2,2,3
 328.999 398.612 328.999 398.612 260 333 c 0,4,5
 213.507 288 213.507 288 109 288 c 0,6,7
 62 288 62 288 30 313 c 1,8,9
 0 339 0 339 0 379 c 0,10,11
 0 446 0 446 70 505 c 1,12,13
 153.309 576.235 153.309 576.235 220 564 c 0,14,15
 250 558.496 250 558.496 280 552.992 c 1,16,-1
 280 1248.99 l 6,17,18
 280 1273.99 280 1273.99 304.5 1274.5 c 132,-1,19
 328.999 1275 328.999 1275 328.997 1249 c 5,20,21
 328.997 1199.01 328.997 1199.01 351 1149 c 4,22,23
 370.257 1104.07 370.257 1104.07 402 1057 c 6,24,-1
 460 971 l 5,25,26
 489 931 489 931 511 878 c 5,27,28
 532 829 532 829 532 779 c 4,29,30
 532 733 532 733 509 684 c 5,31,32
 538 624 538 624 538 567 c 4,33,34
 538 477 538 477 496 384 c 5,35,36
 489 372 489 372 478 372 c 4,37,38
 468 372 468 372 460 380 c 4,39,40
 454 386 454 386 454 395 c 6,41,-1
 454 399 l 5,42,43
 496 482 496 482 496 567 c 4,44,45
 496 608.444 496 608.444 482 638 c 4,46,47
 464 676 464 676 439 708 c 4,48,49
 407 750 407 750 388 769 c 4,50,51
 363.111 793.997 363.111 793.997 328.997 823.992 c 5,0,1
483 732 m 5,52,53
 490 753 490 753 489 779 c 4,54,55
 489 816.036 489 816.036 476 849 c 4,56,57
 463.638 880.349 463.638 880.349 435 920 c 5,58,59
 411 950 411 950 385 979 c 4,60,61
 365 1000 365 1000 329 1036 c 5,62,63
 329 996 329 996 346 951 c 5,64,65
 364 909 364 909 382 878 c 5,66,67
 403 845 403 845 434.5 802.5 c 132,-1,68
 466 760 466 760 483 732 c 5,52,53
EndSplineSet
Validated: 33
EndChar

StartChar: uniE4A0
Encoding: 58528 58528 158
Width: 449
GlyphClass: 2
Flags: W
LayerCount: 2
Fore
SplineSet
449 126 m 128,-1,1
 449 107 449 107 431 107 c 1,2,-1
 19 1 l 2,3,4
 17 0 17 0 13 0 c 0,5,6
 0 0 0 0 0 20 c 0,7,8
 0 36 0 36 14 38 c 2,9,-1
 265 103 l 1,10,-1
 404 126 l 1,11,-1
 265 149 l 1,12,-1
 14 214 l 2,13,14
 0 217 0 217 0 232 c 0,15,16
 0 252 0 252 13 252 c 0,17,18
 17 252 17 252 19 251 c 2,19,-1
 431 145 l 1,20,0
 449 145 449 145 449 126 c 128,-1,1
EndSplineSet
Validated: 1
EndChar

StartChar: uniE4A1
Encoding: 58529 58529 159
Width: 449
GlyphClass: 2
Flags: W
LayerCount: 2
Fore
SplineSet
449 -126 m 128,-1,1
 449 -145 449 -145 431 -145 c 1,2,-1
 19 -251 l 2,3,4
 17 -252 17 -252 13 -252 c 0,5,6
 0 -252 0 -252 0 -232 c 0,7,8
 0 -216 0 -216 14 -214 c 2,9,-1
 265 -149 l 1,10,-1
 404 -126 l 1,11,-1
 265 -103 l 1,12,-1
 14 -38 l 2,13,14
 0 -35 0 -35 0 -20 c 0,15,16
 0 0 0 0 13 0 c 0,17,18
 17 0 17 0 19 -1 c 2,19,-1
 431 -107 l 1,20,0
 449 -107 449 -107 449 -126 c 128,-1,1
EndSplineSet
Validated: 1
EndChar

StartChar: uniE4A2
Encoding: 58530 58530 160
Width: 99
GlyphClass: 2
Flags: W
LayerCount: 2
Fore
SplineSet
0 49.5 m 128,-1,1
 0 70 0 70 14.5 85 c 128,-1,2
 29 100 29 100 49.5 100 c 128,-1,3
 70 100 70 100 85 85 c 128,-1,4
 100 70 100 70 100 49.5 c 128,-1,5
 100 29 100 29 85 14.5 c 128,-1,6
 70 0 70 0 49.5 0 c 128,-1,7
 29 0 29 0 14.5 14.5 c 128,-1,0
 0 29 0 29 0 49.5 c 128,-1,1
EndSplineSet
Validated: 1
EndChar

StartChar: uniE4A3
Encoding: 58531 58531 161
Width: 99
GlyphClass: 2
Flags: W
LayerCount: 2
Fore
SplineSet
0 -49.5 m 128,-1,1
 0 -29 0 -29 14.5 -14.5 c 128,-1,2
 29 0 29 0 49.5 0 c 128,-1,3
 70 0 70 0 85 -14.5 c 128,-1,4
 100 -29 100 -29 100 -49.5 c 128,-1,5
 100 -70 100 -70 85 -85 c 128,-1,6
 70 -100 70 -100 49.5 -100 c 128,-1,7
 29 -100 29 -100 14.5 -85 c 128,-1,0
 0 -70 0 -70 0 -49.5 c 128,-1,1
EndSplineSet
Validated: 1
EndChar

StartChar: uniE4A4
Encoding: 58532 58532 162
Width: 300
GlyphClass: 2
Flags: W
LayerCount: 2
Fore
SplineSet
280 0 m 2,0,-1
 21 0 l 2,1,2
 14 0 14 0 6 6 c 1,3,4
 0 12 0 12 0 19.5 c 128,-1,5
 0 27 0 27 6 33 c 1,6,7
 14 39 14 39 21 39 c 2,8,-1
 280 39 l 2,9,10
 287 39 287 39 295 33 c 1,11,12
 301 27 301 27 301 19.5 c 128,-1,13
 301 12 301 12 295 6 c 1,14,15
 287 0 287 0 280 0 c 2,0,-1
EndSplineSet
Validated: 1
EndChar

StartChar: uniE4A5
Encoding: 58533 58533 163
Width: 300
GlyphClass: 2
Flags: W
LayerCount: 2
Fore
SplineSet
280 -39 m 2,0,-1
 21 -39 l 2,1,2
 14 -39 14 -39 6 -33 c 1,3,4
 0 -27 0 -27 0 -19.5 c 128,-1,5
 0 -12 0 -12 6 -6 c 1,6,7
 14 0 14 0 21 0 c 2,8,-1
 280 0 l 2,9,10
 287 0 287 0 295 -6 c 1,11,12
 301 -12 301 -12 301 -19.5 c 128,-1,13
 301 -27 301 -27 295 -33 c 1,14,15
 287 -39 287 -39 280 -39 c 2,0,-1
EndSplineSet
Validated: 1
EndChar

StartChar: uniE843
Encoding: 59459 59459 164
Width: 353
GlyphClass: 2
Flags: W
LayerCount: 2
Fore
SplineSet
351 332 m 0,0,1
 319 284 319 284 164 219 c 0,2,3
 142 209 142 209 104 194.5 c 128,-1,4
 66 180 66 180 62 178 c 1,5,6
 133 152 133 152 164 138 c 0,7,8
 318 73 318 73 351 24 c 0,9,10
 354 19 354 19 354 16 c 0,11,12
 354 8 354 8 347 3 c 0,13,14
 342 0 342 0 338 0 c 0,15,16
 329 0 329 0 325 7 c 0,17,18
 297 48 297 48 152 108 c 0,19,20
 119 122 119 122 84.5 135.5 c 128,-1,21
 50 149 50 149 31 156 c 128,-1,22
 12 163 12 163 11 163 c 0,23,24
 0 166 0 166 0 179 c 0,25,26
 0 191 0 191 11 193 c 0,27,28
 12 193 12 193 31 200 c 128,-1,29
 50 207 50 207 84.5 220.5 c 128,-1,30
 119 234 119 234 152 248 c 0,31,32
 297 309 297 309 325 350 c 0,33,34
 330 357 330 357 338 356 c 0,35,36
 342 356 342 356 347 354 c 0,37,38
 354 349 354 349 354 341 c 0,39,40
 354 336 354 336 351 332 c 0,0,1
EndSplineSet
Validated: 1
EndChar

StartChar: uniE844
Encoding: 59460 59460 165
Width: 353
GlyphClass: 2
Flags: W
LayerCount: 2
Fore
SplineSet
3 332 m 0,0,1
 0 336 0 336 0 341 c 0,2,3
 0 349 0 349 7 354 c 0,4,5
 12 357 12 357 16 356 c 0,6,7
 24 356 24 356 28 350 c 0,8,9
 56 309 56 309 201 248 c 0,10,11
 234 234 234 234 269 220.5 c 128,-1,12
 304 207 304 207 323 200 c 128,-1,13
 342 193 342 193 343 193 c 0,14,15
 354 190 354 190 354 179 c 0,16,17
 354 166 354 166 343 163 c 0,18,19
 342 163 342 163 323 156 c 128,-1,20
 304 149 304 149 269 135.5 c 128,-1,21
 234 122 234 122 201 108 c 0,22,23
 56 47 56 47 28 7 c 0,24,25
 24 0 24 0 16 0 c 0,26,27
 12 0 12 0 7 3 c 0,28,29
 0 8 0 8 0 16 c 0,30,31
 0 20 0 20 3 24 c 0,32,33
 35 72 35 72 189 138 c 0,34,35
 220 152 220 152 292 178 c 1,36,37
 288 180 288 180 250 194.5 c 128,-1,38
 212 209 212 209 189 219 c 0,39,40
 35 284 35 284 3 332 c 0,0,1
EndSplineSet
Validated: 1
EndChar

StartChar: uniE522
Encoding: 58658 58658 166
Width: 591
Flags: W
HStem: -235 51<-160.762 -64.75> 423 53<6.34253 106 319 427.749> 728 50<399.144 499.712>
VStem: -252 91<-182.883 -132.53> 500 91<672.524 727.269>
LayerCount: 2
Fore
SplineSet
305 423 m 5,0,-1
 225 165 l 6,1,2
 184 26 184 26 86 -104 c 4,3,4
 -13 -235 -13 -235 -116 -235 c 4,5,6
 -170 -235 -170 -235 -211 -207 c 132,-1,7
 -252 -179 -252 -179 -252 -134 c 4,8,9
 -252 -83 -252 -83 -230 -48 c 4,10,11
 -208 -14 -208 -14 -170 -12 c 4,12,13
 -141 -12 -141 -12 -121.5 -33 c 132,-1,14
 -102 -54 -102 -54 -102 -81 c 4,15,16
 -102 -105 -102 -105 -130 -126 c 4,17,18
 -160 -145 -160 -145 -161 -168 c 4,19,20
 -161 -184 -161 -184 -126 -184 c 6,21,-1
 -116 -184 l 6,22,23
 -108 -184 -108 -184 -92 -180 c 4,24,25
 -84 -178 -84 -178 -71 -169 c 4,26,27
 -55 -156 l 4,28,29
 -44 -142 -44 -142 -42 -136 c 4,30,31
 -36 -123 -36 -123 -33 -115 c 5,32,33
 -28 -109 -28 -109 -23 -88 c 4,34,35
 -21 -83 -21 -83 -19.5 -76.5 c 132,-1,36
 -18 -70 -18 -70 -16.5 -67.5 c 132,-1,37
 -15 -65 -15 -65 -15 -64 c 4,38,39
 -9 -38 -9 -38 -7 -33 c 4,40,41
 -1 -7 -1 -7 -1 -6 c 6,42,-1
 106 423 l 5,43,-1
 23 423 l 6,44,45
 12 423 12 423 6 431 c 5,46,47
 0 441 0 441 -0.5 450.5 c 4,48,49
 0 460 0 460 6 468 c 5,50,51
 17 476 17 476 23 476 c 6,52,-1
 121 476 l 5,53,54
 161 598 161 598 255 687 c 5,55,56
 348 778 348 778 455 778 c 4,57,58
 512 778 512 778 550 749 c 5,59,60
 590 722 590 722 591 677 c 4,61,62
 591 629 591 629 570 592 c 5,63,64
 546 558 546 558 510 556 c 4,65,66
 481 556 481 556 461 576.5 c 132,-1,67
 441 597 441 597 441 624 c 4,68,69
 441 648 441 648 471.5 667.5 c 132,-1,70
 502 687 502 687 500 711 c 4,71,72
 500 729 500 729 466 728 c 6,73,-1
 462 728 l 5,74,75
 459 726 459 726 455 727 c 4,76,77
 426 727 426 727 406 712 c 4,78,79
 387 699 387 699 370 666 c 4,80,81
 365 656 365 656 361.5 647.5 c 132,-1,82
 358 639 358 639 354 627.5 c 132,-1,83
 350 616 350 616 348 612 c 4,84,85
 346 604 346 604 341.5 580 c 4,86,87
 338 556 338 556 334 540 c 4,88,89
 323 490 323 490 319 476 c 5,90,-1
 409 476 l 6,91,92
 420 476 420 476 428 468.5 c 132,-1,93
 436 461 436 461 436 450 c 132,-1,94
 436 439 436 439 428 431 c 132,-1,95
 420 423 420 423 409 423 c 6,96,-1
 305 423 l 5,0,-1
EndSplineSet
Validated: 33
EndChar

StartChar: uniE520
Encoding: 58656 58656 167
Width: 629
Flags: W
HStem: -217 25<-122.938 14.3025 180.016 270.974> -209 20<-107.586 15.5156> 32 28<261 332> 378 77<134.25 197.594 385.656 474.317>
VStem: 480 149<216.943 374.203>
DStem2: 22 -168 174 -161 0.327111 0.944986<56.3357 266.959>
LayerCount: 2
Fore
SplineSet
441 378 m 0,0,1
 397 378 397 378 362 331 c 0,2,3
 325 282 325 282 305 222 c 0,4,5
 285 164 285 164 287 121 c 0,6,7
 287 60 287 60 332 60 c 0,8,9
 372 60 372 60 401 91 c 0,10,11
 434 125 434 125 456 208 c 0,12,13
 480 294 480 294 480 328 c 0,14,15
 478 378 478 378 441 378 c 0,0,1
198 455 m 0,16,17
 238 455 238 455 269 433.5 c 128,-1,18
 300 412 300 412 308 375 c 1,19,20
 340 411 340 411 384 433 c 128,-1,21
 428 455 428 455 467 455 c 0,22,23
 544 455 544 455 587 406 c 0,24,25
 629 356 629 356 629 279 c 0,26,27
 629 151 629 151 540 70 c 1,28,29
 457 1 457 1 391 1 c 0,30,31
 351 1 351 1 326 9 c 1,32,33
 294 17 294 17 284 24 c 0,34,35
 270 32 270 32 261 32 c 0,36,37
 240 32 240 32 233 16 c 2,38,-1
 174 -161 l 1,39,-1
 174 -169 l 2,40,41
 174 -185 174 -185 198 -187 c 0,42,43
 206 -189 206 -189 222.5 -190.5 c 128,-1,44
 239 -192 239 -192 247 -192 c 0,45,46
 271 -196 271 -196 271 -205 c 0,47,48
 271 -217 271 -217 259 -217 c 0,49,50
 117 -209 117 -209 75 -209 c 0,51,52
 30 -209 30 -209 -112 -217 c 0,53,54
 -125 -217 -125 -217 -123 -205 c 0,55,56
 -123 -195 -123 -195 -102 -191 c 0,57,58
 -92 -189 -92 -189 -18 -189 c 0,59,60
 16 -189 16 -189 22 -168 c 1,61,-1
 193 326 l 2,62,63
 197 340 197 340 198 350 c 0,64,65
 198 379 198 379 172 378 c 0,66,67
 135 378 135 378 95 331 c 0,68,69
 56 286 56 286 32 231 c 0,70,71
 26 217 26 217 12 216 c 0,72,73
 0 216 0 216 0 226 c 0,74,75
 0 239 0 239 8 250 c 1,76,77
 40 319 40 319 75 375 c 0,78,79
 97 407 97 407 130 430 c 1,80,81
 162 455 162 455 198 455 c 0,16,17
EndSplineSet
Validated: 33
EndChar

StartChar: uniE521
Encoding: 58657 58657 168
Width: 714
Flags: W
HStem: 0 21G<49 150.5 259 361> 354 94<133.004 150.725 323.628 342.824 513.75 534.684>
VStem: 472 138<40 93>
DStem2: 48 16 163 16 0.322138 0.946693<12.8286 327.45> 256 16 373 16 0.276924 0.960892<9.50559 323.589> 474 56 611 99 0.223998 0.97459<55.8105 275.487> 669 106 610 27 0.791782 0.610803<-55.0668 46.5189>
LayerCount: 2
Fore
SplineSet
0 216 m 2,0,-1
 0 219 l 1,1,2
 2 222 2 222 4.5 228 c 128,-1,3
 7 234 7 234 8 242 c 0,4,5
 30 306 30 306 75 367 c 1,6,7
 131 449 131 449 203 448 c 0,8,9
 233 448 233 448 250 424 c 1,10,11
 266 402 266 402 269 367 c 1,12,13
 322 449 322 449 389 448 c 0,14,15
 416 448 416 448 437 424 c 1,16,17
 456 397 456 397 459 363 c 1,18,19
 510 449 510 449 576 448 c 0,20,21
 611 448 611 448 640 417.5 c 128,-1,22
 669 387 669 387 667 347 c 0,23,24
 667 341 667 341 664 325 c 2,25,-1
 611 99 l 2,26,27
 609 97 609 97 610 93 c 0,28,29
 610 80 610 80 619 80 c 0,30,31
 635 80 635 80 669 106 c 2,32,-1
 704 133 l 1,33,34
 714 133 714 133 714 125 c 0,35,36
 714 119 714 119 709 114 c 0,37,38
 635 44 635 44 610 27 c 0,39,40
 564 -7 564 -7 522 -6 c 0,41,42
 496 -6 496 -6 487 8 c 1,43,44
 473 19 473 19 472 40 c 0,45,46
 472 48 472 48 474 56 c 2,47,-1
 531 304 l 2,48,49
 534 314 534 314 535 325 c 0,50,51
 535 354 535 354 519 354 c 0,52,53
 498 354 498 354 480 338 c 1,54,55
 459 322 459 322 456 304 c 2,56,-1
 373 16 l 2,57,58
 368 0 368 0 354 0 c 2,59,-1
 267 0 l 2,60,61
 251 0 251 0 256 16 c 2,62,-1
 338 304 l 2,63,64
 343 318 343 318 343 328 c 0,65,66
 343 354 343 354 323 354 c 0,67,68
 302 354 302 354 287 338 c 1,69,70
 269 325 269 325 261 304 c 2,71,-1
 163 16 l 2,72,73
 158 0 158 0 143 0 c 2,74,-1
 56 0 l 2,75,76
 42 0 42 0 48 16 c 2,77,-1
 146 304 l 2,78,79
 151 322 151 322 151 327 c 0,80,81
 151 354 151 354 128 354 c 0,82,83
 96 354 96 354 72 311 c 1,84,85
 45 271 45 271 31 221 c 0,86,87
 26 207 26 207 10 207 c 1,88,89
 0 210 0 210 0 216 c 2,0,-1
EndSplineSet
Validated: 33
EndChar

StartChar: uniE523
Encoding: 58659 58659 169
Width: 458
Flags: W
HStem: -0 21G<35.5 134> 389 65<277.883 387> 403 50<65.4675 155>
VStem: 0 26<326.088 361.016> 346 112<341.094 386.99>
DStem2: 31 16 146 16 0.252656 0.967556<7.09625 390.919>
LayerCount: 2
Fore
SplineSet
394 320 m 0,0,1
 370 320 370 320 360 331 c 0,2,3
 349 344 349 344 346 355 c 0,4,5
 343 369 343 369 336 377 c 0,6,7
 330 388 330 388 314 389 c 0,8,9
 290 389 290 389 258 366 c 0,10,11
 231 345 231 345 224 320 c 2,12,-1
 146 16 l 2,13,14
 141 0 141 0 127 -0 c 2,15,-1
 42 -0 l 2,16,17
 29 0 29 0 31 16 c 1,18,-1
 119 353 l 2,19,20
 121 361 121 361 120 373 c 0,21,22
 120 403 120 403 98 403 c 0,23,24
 80 403 80 403 55 381 c 0,25,26
 36 363 36 363 26 336 c 0,27,28
 21 326 21 326 11.5 326 c 128,-1,29
 2 326 2 326 0 337 c 1,30,31
 0 367 0 367 47 416 c 1,32,33
 84 453 84 453 139 453 c 0,34,35
 171 453 171 453 194 438 c 0,36,37
 218 422 218 422 229 400 c 1,38,39
 293 454 293 454 368 454 c 0,40,41
 406 454 406 454 434 437 c 0,42,43
 460 421 460 421 458 392 c 0,44,45
 458 363 458 363 439 344 c 1,46,47
 420 320 420 320 394 320 c 0,0,1
EndSplineSet
Validated: 33
EndChar

StartChar: uniE524
Encoding: 58660 58660 170
Width: 340
Flags: W
HStem: 0 24<75.0859 172.531> 423 19<199.218 253.108>
VStem: 0 63<36.1851 101> 66 91<277 368.087> 216 90<72.1079 156.371> 263 77<314.831 407.011>
LayerCount: 2
Fore
SplineSet
157 335 m 0,0,1
 157 311 157 311 180 293 c 0,2,3
 204 272 204 272 232 255 c 0,4,5
 259 239 259 239 284 210 c 0,6,7
 308 180 308 180 306 146 c 0,8,9
 306 80 306 80 253 40 c 0,10,11
 199 0 199 0 127 0 c 0,12,13
 76 0 76 0 38 23.5 c 128,-1,14
 0 47 0 47 0 88 c 0,15,16
 0 114 0 114 13 133 c 1,17,18
 27 151 27 151 47.5 151 c 128,-1,19
 68 151 68 151 82 136.5 c 128,-1,20
 96 122 96 122 96 101 c 0,21,22
 96 91 96 91 79 80 c 0,23,24
 63 67 63 67 63 59 c 0,25,26
 63 40 63 40 82 32 c 128,-1,27
 101 24 101 24 124 24 c 0,28,29
 158 24 158 24 188 45 c 1,30,31
 217 69 217 69 216 101 c 0,32,33
 216 131 216 131 192 159 c 0,34,35
 171 181 171 181 140 199.5 c 128,-1,36
 109 218 109 218 90 239 c 0,37,38
 66 263 66 263 66 291 c 0,39,40
 66 355 66 355 114 399 c 1,41,42
 159 442 159 442 229 442 c 0,43,44
 287 442 287 442 311 415 c 1,45,46
 340 386 340 386 340 351 c 0,47,48
 340 325 340 325 327 307 c 0,49,50
 313 288 313 288 292 291 c 0,51,52
 271 291 271 291 256.5 300 c 128,-1,53
 242 309 242 309 242 322 c 0,54,55
 242 325 242 325 253 346 c 0,56,57
 263 365 263 365 263 384 c 128,-1,58
 263 403 263 403 256 411 c 0,59,60
 246 422 246 422 234 423 c 0,61,62
 200 423 200 423 178.5 396 c 128,-1,63
 157 369 157 369 157 335 c 0,0,1
EndSplineSet
Validated: 33
EndChar

StartChar: uniE525
Encoding: 58661 58661 171
Width: 409
Flags: W
HStem: 1 113<170.04 369.569> 41 89<87.1506 188.94> 297 131<58.7393 156.357>
VStem: 385 24<127.528 198.797>
DStem2: -20 47 86 114 0.732794 0.680451<123.266 439.414>
LayerCount: 2
Fore
SplineSet
28 41 m 0,0,1
 15 41 15 41 1 33 c 0,2,3
 -12 25 -12 25 -13 25 c 0,4,5
 -24 25 -24 25 -24 36 c 0,6,7
 -24 42 -24 42 -20 47 c 2,8,-1
 302 346 l 1,9,10
 273 336 273 336 241 332 c 0,11,12
 236 330 236 330 168 321 c 0,13,14
 125 313 125 313 105 311 c 1,15,16
 35 297 35 297 27 297 c 0,17,18
 -2 296 -2 296 -0 322 c 0,19,20
 0 360 0 360 41 393 c 1,21,22
 81 427 81 427 126 428 c 0,23,24
 178 428 178 428 244 415 c 1,25,26
 305 401 305 401 337 401 c 0,27,28
 356 401 356 401 368 409 c 0,29,30
 382 418 382 418 384 418 c 0,31,32
 395 418 395 418 395 406 c 0,33,34
 395 403 395 403 392 396 c 1,35,-1
 86 114 l 1,36,37
 123 132 123 132 137 130 c 0,38,39
 172 130 172 130 232 124 c 1,40,41
 288 114 288 114 328 114 c 0,42,43
 386 114 386 114 385 159 c 0,44,45
 385 166 385 166 382 186 c 1,46,-1
 377 199 l 1,47,48
 377 210 377 210 390 210 c 0,49,50
 409 210 409 210 409 140 c 0,51,52
 409 82 409 82 384 42 c 1,53,54
 362 2 362 2 316 1 c 0,55,56
 287 1 287 1 201 17 c 0,57,58
 74 41 74 41 28 41 c 0,0,1
EndSplineSet
Validated: 33
EndChar

StartChar: uniE080
Encoding: 57472 57472 172
Width: 366
Flags: W
LayerCount: 2
Fore
SplineSet
184 221 m 128,-1,1
 141 221 141 221 127 166 c 0,2,3
 116 121 116 121 116 55 c 2,4,-1
 116 -55 l 2,5,6
 116 -121 116 -121 127 -166 c 0,7,8
 141 -221 141 -221 184 -221 c 128,-1,9
 227 -221 227 -221 240 -166 c 0,10,11
 251 -121 251 -121 251 -55 c 2,12,-1
 251 55 l 2,13,14
 251 121 251 121 240 166 c 0,15,0
 227 221 227 221 184 221 c 128,-1,1
184 250 m 128,-1,17
 267 250 267 250 316 176 c 0,18,19
 367 102 367 102 367 0 c 128,-1,20
 367 -102 367 -102 316 -176 c 0,21,22
 266 -250 266 -250 183.5 -250 c 128,-1,23
 101 -250 101 -250 51 -176 c 0,24,25
 0 -102 0 -102 0 0 c 128,-1,26
 0 102 0 102 51 176 c 0,27,16
 101 250 101 250 184 250 c 128,-1,17
EndSplineSet
Validated: 1
EndChar

StartChar: uniE081
Encoding: 57473 57473 173
Width: 317
Flags: W
LayerCount: 2
Fore
SplineSet
175 237 m 0,0,1
 189 237 189 237 203.5 244 c 128,-1,2
 218 251 218 251 221 251 c 0,3,4
 232 251 232 251 233 234 c 1,5,-1
 233 -133 l 2,6,7
 233 -171 233 -171 254 -199 c 1,8,9
 275 -226 275 -226 307 -227 c 0,10,11
 319 -227 319 -227 318.5 -238.5 c 128,-1,12
 318 -250 318 -250 307 -250 c 0,13,14
 279 -250 279 -250 240 -244 c 0,15,16
 198 -237 198 -237 176 -237 c 0,17,18
 152 -237 152 -237 109 -244 c 1,19,20
 65 -250 65 -250 44 -250 c 0,21,22
 32 -250 32 -250 32 -238.5 c 128,-1,23
 32 -227 32 -227 44 -227 c 0,24,25
 75 -227 75 -227 97 -199 c 1,26,27
 118 -171 118 -171 117 -133 c 2,28,-1
 117 112 l 2,29,30
 117 117 117 117 111 125 c 0,31,32
 107 131 107 131 100 131 c 0,33,34
 93 131 93 131 90 124 c 2,35,-1
 26 -12 l 2,36,37
 22 -22 22 -22 12 -21 c 0,38,39
 7 -21 7 -21 3 -18 c 0,40,41
 -2 -13 -2 -13 -2 -7 c 0,42,43
 -2 -6 -2 -6 0 0 c 2,44,-1
 117 250 l 2,45,46
 119 253 119 253 122 253 c 128,-1,47
 125 253 125 253 143.5 245 c 128,-1,48
 162 237 162 237 175 237 c 0,0,1
EndSplineSet
Validated: 33
EndChar

StartChar: uniE082
Encoding: 57474 57474 174
Width: 366
Flags: W
LayerCount: 2
Fore
SplineSet
229 -250 m 0,0,1
 200 -250 200 -250 176 -239.5 c 128,-1,2
 152 -229 152 -229 143 -217 c 0,3,4
 130 -202 130 -202 117 -194 c 0,5,6
 101 -183 101 -183 85 -184 c 0,7,8
 60 -184 60 -184 43 -199 c 1,9,10
 25 -214 25 -214 23 -239 c 1,11,12
 21 -250 21 -250 12 -250 c 0,13,14
 0 -250 0 -250 0 -239 c 0,15,16
 0 -201 0 -201 18 -171 c 0,17,18
 36 -140 36 -140 61 -119 c 0,19,20
 82 -100 82 -100 117 -74 c 0,21,22
 123 -69 123 -69 142 -53.5 c 128,-1,23
 161 -38 161 -38 174 -27 c 0,24,25
 199 -6 199 -6 218 29 c 0,26,27
 236 64 236 64 235 105 c 0,28,29
 235 155 235 155 219 191 c 1,30,31
 201 226 201 226 165 227 c 0,32,33
 143 227 143 227 129 217 c 0,34,35
 114 207 114 207 114 190 c 0,36,37
 114 176 114 176 131.5 156 c 128,-1,38
 149 136 149 136 149 122 c 0,39,40
 149 93 149 93 129 72 c 0,41,42
 109 52 109 52 81 53 c 0,43,44
 52 53 52 53 31 73 c 1,45,46
 11 94 11 94 12 122 c 0,47,48
 12 178 12 178 57 214 c 128,-1,49
 102 250 102 250 165 250 c 0,50,51
 240 250 240 250 296 209 c 1,52,53
 352 170 352 170 352 105 c 0,54,55
 352 61 352 61 336 30 c 1,56,57
 321 -3 321 -3 292 -21 c 0,58,59
 259 -42 259 -42 234 -55 c 0,60,61
 200 -71 200 -71 166 -84 c 0,62,63
 125 -101 125 -101 103 -115 c 1,64,65
 116 -112 116 -112 129 -112 c 0,66,67
 174 -112 174 -112 223 -142 c 0,68,69
 273 -171 273 -171 300 -171 c 0,70,71
 317 -171 317 -171 326 -165 c 256,72,73
 336 -159 336 -159 339 -152 c 0,74,75
 343 -142 343 -142 346 -139 c 0,76,77
 350 -133 350 -133 355 -133 c 0,78,79
 367 -133 367 -133 367 -145 c 0,80,81
 367 -172 367 -172 328 -211 c 0,82,83
 291 -250 291 -250 229 -250 c 0,0,1
EndSplineSet
Validated: 33
EndChar

StartChar: uniE083
Encoding: 57475 57475 175
Width: 332
Flags: W
LayerCount: 2
Fore
SplineSet
263 15 m 0,0,1
 263 5 263 5 273 -4 c 0,2,3
 289 -16 289 -16 298 -21 c 0,4,5
 310 -28 310 -28 322 -53 c 1,6,7
 333 -76 333 -76 333 -110 c 0,8,9
 333 -177 333 -177 283 -214 c 0,10,11
 232 -250 232 -250 154 -250 c 0,12,13
 91 -250 91 -250 47 -219 c 1,14,15
 0 -190 0 -190 0 -137 c 0,16,17
 0 -112 0 -112 20 -90 c 1,18,19
 41 -71 41 -71 66 -71 c 0,20,21
 93 -71 93 -71 111 -91 c 1,22,23
 131 -110 131 -110 131 -137 c 0,24,25
 131 -150 131 -150 111 -164 c 1,26,27
 90 -178 90 -178 91 -190 c 0,28,29
 91 -209 91 -209 109 -218 c 0,30,31
 129 -227 129 -227 154 -227 c 0,32,33
 188 -227 188 -227 203 -193 c 1,34,35
 217 -157 217 -157 217 -110 c 2,36,-1
 217 -94 l 2,37,38
 217 -66 217 -66 215 -44 c 0,39,40
 213 -27 213 -27 201 -14 c 0,41,42
 190 0 190 0 167 0 c 2,43,-1
 87 0 l 2,44,45
 73 0 73 0 73 15 c 0,46,47
 73 28 73 28 87 29 c 1,48,-1
 167 29 l 2,49,50
 194 29 194 29 206 47 c 0,51,52
 216 61 216 61 217 96 c 1,53,-1
 217 128 l 1,54,-1
 217 136 l 2,55,56
 217 227 217 227 150 227 c 0,57,58
 91 227 91 227 91 194 c 0,59,60
 91 183 91 183 109 171 c 0,61,62
 127 158 127 158 127 147 c 0,63,64
 127 123 127 123 109 105 c 0,65,66
 92 88 92 88 68 89 c 0,67,68
 45 89 45 89 28 105 c 1,69,70
 11 124 11 124 12 147 c 0,71,72
 12 193 12 193 53 223 c 1,73,74
 96 250 96 250 150 250 c 0,75,76
 223 250 223 250 271 222 c 0,77,78
 319 195 319 195 319 136 c 0,79,80
 319 94 319 94 311 72 c 0,81,82
 302 50 302 50 291 45 c 0,83,84
 279 40 279 40 271 33 c 0,85,86
 263 27 263 27 263 15 c 0,0,1
EndSplineSet
Validated: 33
EndChar

StartChar: uniE084
Encoding: 57476 57476 176
Width: 399
Flags: W
LayerCount: 2
Fore
SplineSet
225 237 m 0,0,1
 254 237 254 237 274.5 244 c 128,-1,2
 295 251 295 251 301 251 c 0,3,4
 308 251 308 251 312 247 c 0,5,6
 315 245 315 245 315 240 c 0,7,8
 315 238 315 238 313 234 c 1,9,-1
 29 -96 l 1,10,-1
 196 -96 l 1,11,-1
 196 35 l 2,12,13
 196 48 196 48 203 57 c 1,14,15
 215 67 215 67 223 68 c 1,16,17
 236 74 236 74 254 96 c 0,18,19
 270 114 270 114 291 157 c 0,20,21
 294 163 294 163 300 163 c 0,22,23
 312 163 312 163 313 149 c 1,24,-1
 313 -96 l 1,25,-1
 385 -96 l 2,26,27
 399 -96 399 -96 400 -110 c 1,28,29
 400 -125 400 -125 385 -125 c 2,30,-1
 313 -125 l 1,31,-1
 313 -133 l 2,32,33
 313 -172 313 -172 333 -199 c 1,34,35
 355 -226 355 -226 386 -227 c 0,36,37
 398 -227 398 -227 397.5 -238.5 c 128,-1,38
 397 -250 397 -250 386 -250 c 0,39,40
 365 -250 365 -250 319 -244 c 1,41,42
 277 -237 277 -237 254 -237 c 0,43,44
 230 -237 230 -237 188 -244 c 1,45,46
 144 -250 144 -250 123 -250 c 0,47,48
 111 -250 111 -250 111 -238.5 c 128,-1,49
 111 -227 111 -227 123 -227 c 0,50,51
 153 -227 153 -227 176 -199 c 1,52,53
 197 -172 197 -172 196 -133 c 2,54,-1
 196 -125 l 1,55,-1
 29 -125 l 2,56,57
 12 -125 12 -125 6 -117 c 1,58,59
 -2 -111 -2 -111 -2 -102 c 0,60,61
 -2 -99 -2 -99 13 -81 c 0,62,63
 30 -61 30 -61 48 -33 c 0,64,65
 69 0 69 0 89 35 c 0,66,67
 110 75 110 75 123 127 c 1,68,69
 138 180 138 180 138 234 c 0,70,71
 138 250 138 250 151 250 c 0,72,73
 154 250 154 250 164 247 c 0,74,75
 167 246 167 246 176.5 244 c 128,-1,76
 186 242 186 242 191 240 c 0,77,78
 209 237 209 237 225 237 c 0,0,1
EndSplineSet
Validated: 33
EndChar

StartChar: uniE085
Encoding: 57477 57477 177
Width: 336
Flags: W
LayerCount: 2
Fore
SplineSet
45 250 m 0,0,1
 53 250 53 250 62 247 c 1,2,-1
 107 242 l 2,3,4
 153 237 153 237 184 237 c 0,5,6
 224 237 224 237 266 242 c 0,7,8
 311 248 311 248 313 248 c 0,9,10
 327 250 327 250 328 250 c 0,11,12
 341 250 341 250 341 241 c 0,13,14
 341 237 341 237 338 234 c 0,15,16
 246 142 246 142 75 141 c 0,17,18
 68 141 68 141 62 136 c 1,19,20
 57 131 57 131 58 124 c 2,21,-1
 58 28 l 1,22,23
 101 71 101 71 163 71 c 0,24,25
 252 71 252 71 301 31 c 0,26,27
 349 -9 349 -9 349 -90 c 0,28,29
 349 -158 349 -158 294 -205 c 1,30,31
 238 -250 238 -250 163 -250 c 0,32,33
 96 -250 96 -250 49 -221 c 0,34,35
 0 -191 0 -191 0 -137 c 0,36,37
 0 -112 0 -112 20 -90 c 1,38,39
 41 -71 41 -71 66 -71 c 0,40,41
 93 -71 93 -71 111 -91 c 1,42,43
 131 -110 131 -110 131 -137 c 0,44,45
 131 -150 131 -150 111 -164 c 1,46,47
 90 -178 90 -178 91 -190 c 0,48,49
 91 -226 91 -226 163 -227 c 0,50,51
 233 -227 233 -227 233 -90 c 0,52,53
 233 42 233 42 163 42 c 0,54,55
 133 42 133 42 107 34 c 0,56,57
 85 27 85 27 74 17 c 1,58,59
 65 6 65 6 57 -1 c 1,60,61
 49 -9 49 -9 44 -9 c 0,62,63
 29 -9 29 -9 29 6 c 2,64,-1
 29 234 l 2,65,66
 29 250 29 250 45 250 c 0,0,1
EndSplineSet
Validated: 33
EndChar

StartChar: uniE086
Encoding: 57478 57478 178
Width: 339
Flags: W
LayerCount: 2
Fore
SplineSet
170 6 m 0,0,1
 133 6 133 6 124 -23 c 0,2,3
 117 -44 117 -44 117 -96 c 2,4,-1
 117 -125 l 2,5,6
 117 -176 117 -176 124 -197 c 0,7,8
 133 -226 133 -226 170 -227 c 0,9,10
 211 -227 211 -227 222 -192 c 0,11,12
 232 -160 232 -160 231 -110 c 0,13,14
 231 -52 231 -52 221 -23 c 0,15,16
 209 6 209 6 170 6 c 0,0,1
117 16 m 1,17,18
 146 28 146 28 170 29 c 1,19,20
 248 29 248 29 295 -6 c 1,21,22
 340 -42 340 -42 340 -109 c 0,23,24
 340 -177 340 -177 294 -215 c 1,25,26
 248 -250 248 -250 170 -250 c 0,27,28
 90 -250 90 -250 45 -176 c 128,-1,29
 0 -102 0 -102 0 0 c 0,30,31
 0 100 0 100 53 176 c 1,32,33
 107 250 107 250 190 250 c 0,34,35
 245 250 245 250 287 222 c 0,36,37
 328 194 328 194 328 147 c 0,38,39
 328 119 328 119 309 101 c 1,40,41
 291 81 291 81 263.5 81 c 128,-1,42
 236 81 236 81 216.5 100.5 c 128,-1,43
 197 120 197 120 197 147 c 0,44,45
 197 158 197 158 217 172 c 1,46,47
 237 184 237 184 236 196 c 0,48,49
 236 210 236 210 223 219 c 1,50,51
 207 227 207 227 190 227 c 0,52,53
 145 227 145 227 131 190 c 1,54,55
 115 155 115 155 115 88 c 0,56,57
 115 68 115 68 116 52 c 128,-1,58
 117 36 117 36 117 16 c 1,17,18
EndSplineSet
Validated: 33
EndChar

StartChar: uniE087
Encoding: 57479 57479 179
Width: 336
Flags: W
LayerCount: 2
Fore
SplineSet
67 160 m 0,0,1
 52 160 52 160 40.5 142.5 c 128,-1,2
 29 125 29 125 29 90 c 2,3,-1
 29 15 l 2,4,5
 29 0 29 0 14.5 0 c 128,-1,6
 0 0 0 0 0 15 c 2,7,-1
 0 235 l 2,8,9
 0 250 0 250 15 250 c 0,10,11
 28 250 28 250 29 235 c 1,12,-1
 29 221 l 2,13,14
 29 216 29 216 32 213 c 1,15,16
 35 207 35 207 39 206 c 128,-1,17
 43 205 43 205 44 206 c 0,18,19
 76 250 76 250 122 250 c 0,20,21
 158 250 158 250 193 223 c 1,22,23
 225 195 225 195 248.5 194.5 c 128,-1,24
 272 194 272 194 295 208 c 0,25,26
 314 220 314 220 328 236 c 0,27,28
 340 250 340 250 344 250 c 0,29,30
 351 250 351 250 355 246 c 0,31,32
 360 241 360 241 360 236 c 0,33,34
 360 233 360 233 335 194 c 0,35,36
 311 156 311 156 279 106 c 0,37,38
 247 54 247 54 225 -18 c 1,39,40
 200 -90 200 -90 199 -160 c 0,41,42
 199 -172 199 -172 201 -193 c 0,43,44
 203 -213 203 -213 205 -221 c 1,45,46
 205 -229 205 -229 207 -238 c 1,47,-1
 207 -241 l 2,48,49
 207 -247 207 -247 204 -250 c 128,-1,50
 201 -253 201 -253 194 -253 c 1,51,-1
 166 -245 l 2,52,53
 135 -237 135 -237 117 -237 c 0,54,55
 97 -237 97 -237 68 -245 c 0,56,57
 40 -253 40 -253 39 -253 c 0,58,59
 33 -253 33 -253 28 -248 c 0,60,61
 26 -245 26 -245 26 -241 c 0,62,63
 26 -238 26 -238 27 -236 c 0,64,65
 63 -151 63 -151 115 -68 c 1,66,67
 174 24 174 24 243 119 c 1,68,69
 216 104 216 104 184 103 c 1,70,71
 152 103 152 103 120 131 c 1,72,73
 89 160 89 160 67 160 c 0,0,1
EndSplineSet
Validated: 33
EndChar

StartChar: uniE088
Encoding: 57480 57480 180
Width: 366
Flags: W
LayerCount: 2
Fore
SplineSet
259 38 m 1,0,1
 308 92 308 92 308 140 c 0,2,3
 308 180 308 180 273 203 c 0,4,5
 240 226 240 226 191 227 c 0,6,7
 157 227 157 227 136.5 205.5 c 128,-1,8
 116 184 116 184 116 156 c 0,9,10
 116 122 116 122 146 104 c 2,11,-1
 259 38 l 1,0,1
289 21 m 1,12,13
 372 -27 372 -27 372 -106 c 0,14,15
 372 -166 372 -166 322 -207 c 1,16,17
 272 -250 272 -250 183 -250 c 0,18,19
 107 -250 107 -250 55 -211 c 1,20,21
 0 -172 0 -172 0 -110 c 0,22,23
 0 -88 0 -88 14 -62 c 0,24,25
 27 -40 27 -40 39 -27 c 1,26,27
 45 -19 45 -19 76 10 c 1,28,29
 15 53 15 53 15 116 c 0,30,31
 14 170 14 170 62 211 c 1,32,33
 110 250 110 250 191 250 c 0,34,35
 255 250 255 250 305 221 c 1,36,37
 352 192 352 192 352 140 c 1,38,39
 350 86 350 86 289 21 c 1,12,13
106 -8 m 1,40,41
 45 -62 45 -62 44 -110 c 1,42,43
 44 -160 44 -160 86 -193 c 1,44,45
 126 -226 126 -226 183 -227 c 0,46,47
 223 -227 223 -227 245 -201 c 1,48,49
 268 -178 268 -178 269 -144 c 0,50,51
 269 -102 269 -102 234 -82 c 2,52,-1
 106 -8 l 1,40,41
EndSplineSet
Validated: 33
EndChar

StartChar: uniE089
Encoding: 57481 57481 181
Width: 339
Flags: W
LayerCount: 2
Fore
SplineSet
170 -6 m 256,0,1
 207 -6 207 -6 216 23 c 0,2,3
 223 44 223 44 223 96 c 2,4,-1
 223 125 l 2,5,6
 223 176 223 176 216 197 c 0,7,8
 207 226 207 226 170 227 c 0,9,10
 126 227 126 227 117 192 c 0,11,12
 109 161 109 161 109 110 c 0,13,14
 109 49 109 49 120 23 c 0,15,16
 133 -6 133 -6 170 -6 c 256,0,1
223 -16 m 1,17,18
 190 -30 190 -30 170 -29 c 0,19,20
 92 -29 92 -29 45 6 c 1,21,22
 0 42 0 42 0 109 c 0,23,24
 0 177 0 177 46 215 c 1,25,26
 92 250 92 250 170 250 c 0,27,28
 250 250 250 250 295 176 c 128,-1,29
 340 102 340 102 340 0 c 0,30,31
 340 -100 340 -100 287 -176 c 0,32,33
 235 -250 235 -250 150 -250 c 0,34,35
 95 -250 95 -250 53 -222 c 1,36,37
 12 -194 12 -194 12 -147 c 0,38,39
 12 -119 12 -119 31 -101 c 1,40,41
 49 -81 49 -81 76.5 -81 c 128,-1,42
 104 -81 104 -81 123.5 -100.5 c 128,-1,43
 143 -120 143 -120 143 -147 c 0,44,45
 143 -158 143 -158 123 -172 c 1,46,47
 103 -184 103 -184 104 -196 c 0,48,49
 104 -210 104 -210 117 -219 c 1,50,51
 133 -227 133 -227 150 -227 c 0,52,53
 195 -227 195 -227 210 -190 c 256,54,55
 225 -154 225 -154 225 -88 c 0,56,57
 225 -68 225 -68 224 -52 c 128,-1,58
 223 -36 223 -36 223 -16 c 1,17,18
EndSplineSet
Validated: 33
EndChar

StartChar: uniE08A
Encoding: 57482 57482 182
Width: 424
Flags: W
LayerCount: 2
Fore
SplineSet
359 27 m 0,0,1
 334 27 334 27 309 47 c 0,2,3
 285 66 285 66 284 102 c 0,4,5
 284 132 284 132 305 155 c 0,6,7
 325 178 325 178 356 179 c 0,8,9
 367 179 367 179 370 178 c 1,10,11
 325 236 325 236 250 237 c 0,12,13
 219 237 219 237 197 229 c 0,14,15
 176 219 176 219 164 205 c 1,16,17
 154 191 154 191 146 164 c 0,18,19
 138 136 138 136 139 113 c 1,20,21
 137 97 137 97 137 51 c 2,22,-1
 137 0 l 1,23,-1
 137 -51 l 2,24,25
 137 -98 137 -98 139 -114 c 0,26,27
 141 -142 141 -142 146 -165 c 0,28,29
 154 -192 154 -192 164 -205 c 0,30,31
 176 -219 176 -219 197 -229 c 0,32,33
 218 -239 218 -239 250 -238 c 0,34,35
 309 -238 309 -238 350 -195 c 1,36,37
 392 -153 392 -153 408 -87 c 0,38,39
 411 -77 411 -77 420 -77 c 0,40,41
 433 -77 433 -77 433 -89 c 0,42,43
 433 -96 433 -96 427 -115 c 0,44,45
 421 -134 421 -134 406 -158 c 1,46,47
 394 -181 394 -181 373 -208 c 0,48,49
 353 -230 353 -230 320 -247 c 0,50,51
 289 -263 289 -263 250 -263 c 0,52,53
 206 -263 206 -263 160 -250 c 1,54,55
 115 -234 115 -234 81 -207 c 0,56,57
 43 -177 43 -177 21 -125 c 1,58,59
 0 -68 0 -68 0 0 c 0,60,61
 0 119 0 119 64 189 c 1,62,63
 126 261 126 261 250 262 c 0,64,65
 330 262 330 262 377 207 c 1,66,67
 426 152 426 152 426 99 c 0,68,69
 426 68 426 68 406 48 c 1,70,71
 388 27 388 27 359 27 c 0,0,1
EndSplineSet
Validated: 33
EndChar

StartChar: uniE08B
Encoding: 57483 57483 183
Width: 424
Flags: W
LayerCount: 2
Fore
SplineSet
359 27 m 0,0,1
 334 27 334 27 309 47 c 0,2,3
 285 66 285 66 284 102 c 0,4,5
 284 132 284 132 305 155 c 0,6,7
 325 178 325 178 356 179 c 0,8,9
 367 179 367 179 370 178 c 1,10,11
 325 236 325 236 250 237 c 1,12,-1
 237 237 l 1,13,-1
 237 -237 l 1,14,15
 240 -237 240 -237 244 -238 c 1,16,-1
 250 -238 l 2,17,18
 309 -238 309 -238 350 -195 c 1,19,20
 392 -153 392 -153 408 -87 c 0,21,22
 411 -77 411 -77 420 -77 c 0,23,24
 433 -77 433 -77 433 -89 c 0,25,26
 433 -96 433 -96 427 -115 c 0,27,28
 421 -134 421 -134 406 -158 c 1,29,30
 394 -181 394 -181 373 -208 c 0,31,32
 353 -230 353 -230 320 -247 c 0,33,34
 289 -263 289 -263 250 -263 c 0,35,36
 246 -263 246 -263 244 -262 c 1,37,-1
 237 -262 l 1,38,-1
 237 -340 l 2,39,40
 237 -350 237 -350 227 -350 c 2,41,-1
 210 -350 l 2,42,43
 200 -350 200 -350 200 -340 c 2,44,-1
 200 -259 l 1,45,46
 97 -242 97 -242 49 -172 c 1,47,48
 0 -100 0 -100 0 0 c 0,49,50
 0 103 0 103 49 172 c 1,51,52
 95 242 95 242 200 259 c 1,53,-1
 200 340 l 2,54,55
 200 350 200 350 210 350 c 2,56,-1
 227 350 l 2,57,58
 237 350 237 350 237 340 c 1,59,-1
 237 262 l 1,60,-1
 250 262 l 2,61,62
 330 262 330 262 377 207 c 1,63,64
 426 152 426 152 426 99 c 0,65,66
 426 68 426 68 406 48 c 1,67,68
 388 27 388 27 359 27 c 0,0,1
200 -230 m 1,69,-1
 200 230 l 1,70,71
 160 215 160 215 148 174 c 0,72,73
 136 131 136 131 137 51 c 2,74,-1
 137 0 l 1,75,-1
 137 -51 l 2,76,77
 137 -131 137 -131 148 -174 c 0,78,79
 160 -215 160 -215 200 -230 c 1,69,-1
EndSplineSet
Validated: 33
EndChar

StartChar: uniE08D
Encoding: 57485 57485 184
Width: 250
Flags: W
LayerCount: 2
Fore
SplineSet
125 -125 m 128,-1,1
 115 -125 115 -125 107.5 -117 c 128,-1,2
 100 -109 100 -109 100 -100 c 2,3,-1
 100 -25 l 1,4,-1
 25 -25 l 2,5,6
 15 -25 15 -25 7.5 -17.5 c 128,-1,7
 0 -10 0 -10 0 0 c 0,8,9
 0 11 0 11 7 18 c 0,10,11
 15 26 15 26 25 25 c 2,12,-1
 100 25 l 1,13,-1
 100 100 l 2,14,15
 100 110 100 110 107.5 117.5 c 128,-1,16
 115 125 115 125 125 125 c 128,-1,17
 135 125 135 125 142.5 117 c 128,-1,18
 150 109 150 109 150 100 c 2,19,-1
 150 25 l 1,20,-1
 225 25 l 2,21,22
 235 25 235 25 242.5 17.5 c 128,-1,23
 250 10 250 10 250 0 c 0,24,25
 250 -11 250 -11 243 -18 c 0,26,27
 235 -26 235 -26 225 -25 c 2,28,-1
 150 -25 l 1,29,-1
 150 -100 l 2,30,31
 150 -110 150 -110 142.5 -117.5 c 128,-1,0
 135 -125 135 -125 125 -125 c 128,-1,1
EndSplineSet
Validated: 1
EndChar

StartChar: uniE092
Encoding: 57490 57490 185
Width: 175
Flags: W
LayerCount: 2
Fore
SplineSet
139 -250 m 0,0,1
 139 -263 139 -263 126 -263 c 0,2,3
 117 -263 117 -263 94 -227 c 0,4,5
 69 -188 69 -188 48 -125 c 0,6,7
 26 -60 26 -60 25 0 c 0,8,9
 25 56 25 56 47 125 c 1,10,11
 71 193 71 193 94 227 c 0,12,13
 117 263 117 263 126 263 c 0,14,15
 139 263 139 263 139 250 c 0,16,17
 139 249 139 249 123 225 c 0,18,19
 108 204 108 204 92 143 c 0,20,21
 76 86 76 86 76 0 c 128,-1,22
 76 -86 76 -86 92 -143 c 0,23,24
 109 -203 109 -203 123 -225 c 0,25,26
 139 -249 139 -249 139 -250 c 0,0,1
EndSplineSet
Validated: 1
EndChar

StartChar: uniE093
Encoding: 57491 57491 186
Width: 175
Flags: W
LayerCount: 2
Fore
SplineSet
37 -250 m 0,0,1
 37 -249 37 -249 53 -225 c 0,2,3
 68 -203 68 -203 84 -143 c 0,4,5
 100 -86 100 -86 100 0 c 128,-1,6
 100 86 100 86 84 143 c 0,7,8
 67 204 67 204 53 225 c 0,9,10
 37 249 37 249 37 250 c 0,11,12
 37 263 37 263 50 263 c 0,13,14
 59 263 59 263 82 227 c 1,15,16
 107 190 107 190 129 125 c 1,17,18
 150 56 150 56 150 0 c 0,19,20
 150 -60 150 -60 128 -125 c 0,21,22
 107 -187 107 -187 82 -227 c 0,23,24
 59 -263 59 -263 50 -263 c 0,25,26
 37 -263 37 -263 37 -250 c 0,0,1
EndSplineSet
Validated: 1
EndChar

StartChar: uniE4E0
Encoding: 58592 58592 187
Width: 449
Flags: W
LayerCount: 2
Fore
SplineSet
440 -250 m 2,0,-1
 310 -250 l 2,1,2
 300 -250 300 -250 300 -240 c 2,3,-1
 300 240 l 2,4,5
 300 250 300 250 310 250 c 2,6,-1
 440 250 l 2,7,8
 450 250 450 250 450 240 c 2,9,-1
 450 -240 l 2,10,11
 450 -250 450 -250 440 -250 c 2,0,-1
140 -250 m 2,12,-1
 10 -250 l 2,13,14
 0 -250 0 -250 0 -240 c 2,15,-1
 0 240 l 2,16,17
 0 250 0 250 10 250 c 2,18,-1
 140 250 l 2,19,20
 151 250 151 250 150 240 c 2,21,-1
 150 -240 l 2,22,23
 151 -250 151 -250 140 -250 c 2,12,-1
EndSplineSet
Validated: 1
EndChar

StartChar: uniE4E1
Encoding: 58593 58593 188
Width: 148
Flags: W
LayerCount: 2
Fore
SplineSet
140 -250 m 2,0,-1
 10 -250 l 2,1,2
 0 -250 0 -250 0 -240 c 2,3,-1
 0 240 l 2,4,5
 0 250 0 250 10 250 c 2,6,-1
 140 250 l 2,7,8
 151 250 151 250 150 240 c 2,9,-1
 150 -240 l 2,10,11
 151 -250 151 -250 140 -250 c 2,0,-1
EndSplineSet
Validated: 1
EndChar

StartChar: uniE4E2
Encoding: 58594 58594 189
Width: 148
Flags: W
LayerCount: 2
Fore
SplineSet
140 0 m 2,0,-1
 10 0 l 2,1,2
 0 0 0 0 0 10 c 2,3,-1
 0 240 l 2,4,5
 0 250 0 250 10 250 c 2,6,-1
 140 250 l 2,7,8
 151 250 151 250 150 240 c 2,9,-1
 150 10 l 2,10,11
 151 0 151 0 140 0 c 2,0,-1
EndSplineSet
Validated: 1
EndChar

StartChar: uniE4E3
Encoding: 58595 58595 190
Width: 375
Flags: W
LayerCount: 2
Fore
SplineSet
365 0 m 2,0,-1
 10 0 l 2,1,2
 0 0 0 0 0 10 c 2,3,-1
 0 146 l 2,4,5
 0 156 0 156 10 156 c 2,6,-1
 365 156 l 2,7,8
 375 156 375 156 375 146 c 2,9,-1
 375 10 l 2,10,11
 375 0 375 0 365 0 c 2,0,-1
EndSplineSet
Validated: 1
EndChar

StartChar: uniE4E4
Encoding: 58596 58596 191
Width: 375
Flags: W
LayerCount: 2
Fore
SplineSet
365 -156 m 2,0,-1
 10 -156 l 2,1,2
 0 -156 0 -156 0 -146 c 2,3,-1
 0 -10 l 2,4,5
 0 0 0 0 10 0 c 2,6,-1
 365 0 l 2,7,8
 375 0 375 0 375 -10 c 2,9,-1
 375 -146 l 2,10,11
 375 -156 375 -156 365 -156 c 2,0,-1
EndSplineSet
Validated: 1
EndChar

StartChar: uniE4E5
Encoding: 58597 58597 192
Width: 236
Flags: W
LayerCount: 2
Fore
SplineSet
-6 78 m 0,0,1
 -6 96 -6 96 14 117 c 0,2,3
 29 133 29 133 57 154 c 1,4,5
 78 169 78 169 99 198 c 0,6,7
 119 226 119 226 118 260 c 0,8,9
 118 299 118 299 93 329 c 2,10,-1
 58 371 l 2,11,12
 54 375 54 375 54 381 c 128,-1,13
 54 387 54 387 60 392 c 0,14,15
 67 397 67 397 71 396 c 0,16,17
 78 396 78 396 82 391 c 2,18,-1
 233 211 l 2,19,20
 243 198 243 198 243 186 c 0,21,22
 243 168 243 168 224 146 c 0,23,24
 211 132 211 132 182 109 c 1,25,26
 160 95 160 95 139 65 c 0,27,28
 119 37 119 37 119 4 c 0,29,30
 119 -38 119 -38 143 -65 c 2,31,-1
 227 -164 l 2,32,33
 230 -167 230 -167 231 -174 c 1,34,35
 231 -181 231 -181 227 -186 c 1,36,37
 220 -191 220 -191 215 -190 c 0,38,39
 213 -190 213 -190 199 -180 c 0,40,41
 184 -168 184 -168 160 -157 c 1,42,43
 133 -146 133 -146 106 -146 c 0,44,45
 82 -146 82 -146 66 -160 c 1,46,47
 52 -174 52 -174 53 -213 c 0,48,49
 53 -273 53 -273 81 -307 c 0,50,51
 84 -311 84 -311 82 -316 c 0,52,53
 80 -320 80 -320 75 -320 c 0,54,55
 68 -320 68 -320 45 -285 c 0,56,57
 21 -248 21 -248 -1 -200 c 0,58,59
 -23 -149 -23 -149 -23 -116 c 0,60,61
 -23 -74 -23 -74 17 -74 c 0,62,63
 63 -74 63 -74 136 -105 c 1,64,-1
 4 53 l 2,65,66
 -6 65 -6 65 -6 78 c 0,0,1
EndSplineSet
Validated: 33
EndChar

StartChar: uniE4E6
Encoding: 58598 58598 193
Width: 250
Flags: W
LayerCount: 2
Fore
SplineSet
70 205 m 0,0,1
 98 205 98 205 113 189 c 1,2,3
 128 171 128 171 129 156 c 1,4,5
 131 141 131 141 139 123 c 1,6,7
 148 107 148 107 161 107 c 0,8,9
 172 107 172 107 193 132 c 0,10,11
 213 153 213 153 222 170 c 0,12,13
 227 180 227 180 235 180 c 2,14,-1
 236 180 l 1,15,16
 246 179 246 179 250 170 c 1,17,-1
 127 -250 l 1,18,19
 117 -260 117 -260 99.5 -260 c 128,-1,20
 82 -260 82 -260 72 -250 c 1,21,-1
 189 76 l 1,22,23
 127 54 127 54 84 54 c 0,24,25
 49 54 49 54 23 76 c 1,26,27
 -3 97 -3 97 -3 133 c 0,28,29
 -3 163 -3 163 19 184 c 0,30,31
 40 205 40 205 70 205 c 0,0,1
EndSplineSet
Validated: 1
EndChar

StartChar: uniE4E7
Encoding: 58599 58599 194
Width: 299
Flags: W
LayerCount: 2
Fore
SplineSet
125 205 m 0,0,1
 154 205 154 205 167 189 c 0,2,3
 181 172 181 172 184 156 c 1,4,5
 185 139 185 139 193 123 c 1,6,7
 199 107 199 107 215 107 c 0,8,9
 225 107 225 107 244 131 c 0,10,11
 266 158 266 158 272 170 c 0,12,13
 277 180 277 180 286 180 c 2,14,-1
 287 180 l 1,15,16
 296 179 296 179 300 170 c 1,17,-1
 121 -500 l 1,18,19
 111 -510 111 -510 93.5 -510 c 128,-1,20
 76 -510 76 -510 66 -500 c 1,21,-1
 167 -173 l 1,22,23
 102 -196 102 -196 61 -196 c 0,24,25
 26 -196 26 -196 0 -174 c 1,26,27
 -26 -153 -26 -153 -26 -117 c 0,28,29
 -26 -87 -26 -87 -6 -66 c 0,30,31
 15 -45 15 -45 46 -45 c 0,32,33
 75 -45 75 -45 88 -61 c 0,34,35
 103 -78 103 -78 105 -94 c 0,36,37
 108 -114 108 -114 115 -127 c 0,38,39
 122 -143 122 -143 137 -143 c 0,40,41
 149 -143 149 -143 170 -115 c 1,42,43
 192 -90 192 -90 197 -75 c 2,44,-1
 243 76 l 1,45,46
 181 54 181 54 139 54 c 0,47,48
 104 54 104 54 78 76 c 1,49,50
 52 97 52 97 52 133 c 0,51,52
 52 163 52 163 73 184 c 0,53,54
 95 205 95 205 125 205 c 0,0,1
EndSplineSet
Validated: 1
EndChar

StartChar: uniE4E8
Encoding: 58600 58600 195
Width: 324
Flags: W
LayerCount: 2
Fore
SplineSet
154 455 m 0,0,1
 182 455 182 455 197 439 c 1,2,3
 212 421 212 421 213 406 c 1,4,5
 215 391 215 391 223 373 c 1,6,7
 232 357 232 357 245 357 c 0,8,9
 254 357 254 357 273 381 c 1,10,11
 291 406 291 406 297 420 c 0,12,13
 302 430 302 430 311 430 c 2,14,-1
 312 430 l 1,15,16
 322 429 322 429 325 420 c 1,17,-1
 109 -500 l 1,18,19
 99 -510 99 -510 81 -510 c 0,20,21
 64 -510 64 -510 54 -500 c 1,22,-1
 140 -173 l 1,23,24
 78 -196 78 -196 32 -196 c 0,25,26
 -2 -196 -2 -196 -29 -174 c 1,27,28
 -54 -152 -54 -152 -55 -117 c 0,29,30
 -55 -87 -55 -87 -33 -66 c 1,31,32
 -12 -45 -12 -45 17 -45 c 0,33,34
 45 -45 45 -45 60 -61 c 0,35,36
 76 -78 76 -78 76 -94 c 1,37,38
 79 -114 79 -114 86 -127 c 0,39,40
 93 -143 93 -143 108 -143 c 0,41,42
 119 -143 119 -143 142 -115 c 1,43,44
 163 -88 163 -88 167 -72 c 2,45,-1
 206 77 l 1,46,47
 141 54 141 54 100 54 c 0,48,49
 65 54 65 54 39 76 c 1,50,51
 13 97 13 97 13 133 c 0,52,53
 13 163 13 163 34 184 c 0,54,55
 55 205 55 205 86 205 c 0,56,57
 115 205 115 205 128 189 c 0,58,59
 142 172 142 172 145 156 c 0,60,61
 148 136 148 136 154 123 c 0,62,63
 161 107 161 107 176 107 c 0,64,65
 187 107 187 107 207 135 c 1,66,67
 228 159 228 159 232 175 c 2,68,-1
 272 326 l 1,69,70
 210 304 210 304 169 304 c 0,71,72
 135 304 135 304 107 326 c 1,73,74
 82 348 82 348 82 383 c 0,75,76
 82 413 82 413 104 434 c 1,77,78
 124 455 124 455 154 455 c 0,0,1
EndSplineSet
Validated: 1
EndChar

StartChar: uniE4E9
Encoding: 58601 58601 196
Width: 349
Flags: W
LayerCount: 2
Fore
SplineSet
184 455 m 0,0,1
 212 455 212 455 227 439 c 0,2,3
 242 422 242 422 244 406 c 1,4,5
 245 387 245 387 253 373 c 1,6,7
 260 357 260 357 275 357 c 0,8,9
 283 357 283 357 300 381 c 0,10,11
 314 402 314 402 322 420 c 0,12,13
 327 430 327 430 336 430 c 0,14,15
 346 429 346 429 350 420 c 1,16,-1
 115 -750 l 1,17,18
 105 -760 105 -760 87 -760 c 0,19,20
 70 -760 70 -760 60 -750 c 1,21,-1
 133 -422 l 1,22,23
 69 -446 69 -446 20 -446 c 0,24,25
 -15 -446 -15 -446 -41 -424 c 1,26,27
 -67 -403 -67 -403 -67 -367 c 0,28,29
 -67 -337 -67 -337 -46 -316 c 0,30,31
 -25 -295 -25 -295 6 -295 c 0,32,33
 35 -295 35 -295 48 -311 c 0,34,35
 62 -328 62 -328 64 -344 c 0,36,37
 67 -364 67 -364 74 -377 c 0,38,39
 81 -393 81 -393 96 -393 c 0,40,41
 108 -393 108 -393 131 -363 c 0,42,43
 153 -335 153 -335 156 -320 c 2,44,-1
 189 -173 l 1,45,46
 127 -196 127 -196 80 -196 c 0,47,48
 45 -196 45 -196 20 -174 c 1,49,50
 -6 -153 -6 -153 -7 -117 c 0,51,52
 -7 -87 -7 -87 14 -66 c 0,53,54
 35 -45 35 -45 65 -45 c 0,55,56
 94 -45 94 -45 107 -61 c 0,57,58
 122 -78 122 -78 125 -94 c 1,59,60
 126 -113 126 -113 134 -127 c 1,61,62
 141 -143 141 -143 156 -143 c 0,63,64
 166 -143 166 -143 188 -115 c 1,65,66
 209 -86 209 -86 211 -72 c 2,67,-1
 245 77 l 1,68,69
 180 54 180 54 139 54 c 0,70,71
 104 54 104 54 78 76 c 1,72,73
 52 97 52 97 52 133 c 0,74,75
 52 163 52 163 73 184 c 0,76,77
 94 205 94 205 125 205 c 0,78,79
 154 205 154 205 167 189 c 0,80,81
 181 172 181 172 184 156 c 1,82,83
 185 139 185 139 193 123 c 1,84,85
 199 107 199 107 215 107 c 0,86,87
 226 107 226 107 244.5 134.5 c 128,-1,88
 263 162 263 162 267 175 c 1,89,-1
 301 326 l 1,90,91
 239 304 239 304 199 304 c 0,92,93
 164 304 164 304 139 326 c 0,94,95
 113 348 113 348 112 383 c 0,96,97
 112 413 112 413 133 434 c 0,98,99
 154 455 154 455 184 455 c 0,0,1
EndSplineSet
Validated: 1
EndChar

StartChar: uniE4EA
Encoding: 58602 58602 197
Width: 375
Flags: W
LayerCount: 2
Fore
SplineSet
214 705 m 0,0,1
 242 705 242 705 257 689 c 0,2,3
 273 672 273 672 273 656 c 1,4,5
 276 636 276 636 283 623 c 0,6,7
 290 607 290 607 305 607 c 0,8,9
 318 607 318 607 347 670 c 0,10,11
 352 680 352 680 360 680 c 2,12,-1
 361 680 l 1,13,14
 371 679 371 679 375 670 c 1,15,-1
 138 -750 l 1,16,17
 128 -760 128 -760 110 -760 c 0,18,19
 93 -760 93 -760 83 -750 c 1,20,-1
 144 -421 l 1,21,22
 74 -446 74 -446 27 -446 c 0,23,24
 -8 -446 -8 -446 -33 -424 c 1,25,26
 -59 -403 -59 -403 -60 -367 c 0,27,28
 -60 -337 -60 -337 -39 -316 c 0,29,30
 -18 -295 -18 -295 12 -295 c 0,31,32
 40 -295 40 -295 55 -311 c 0,33,34
 70 -328 70 -328 72 -344 c 1,35,36
 73 -363 73 -363 81 -377 c 1,37,38
 88 -393 88 -393 103 -393 c 0,39,40
 116 -393 116 -393 139 -363 c 1,41,42
 162 -331 162 -331 163 -317 c 1,43,-1
 190 -172 l 1,44,45
 123 -196 123 -196 77 -196 c 0,46,47
 43 -196 43 -196 16 -174 c 1,48,49
 -9 -152 -9 -152 -10 -117 c 0,50,51
 -10 -87 -10 -87 12 -66 c 1,52,53
 33 -45 33 -45 62 -45 c 0,54,55
 90 -45 90 -45 104 -61 c 0,56,57
 120 -78 120 -78 121 -94 c 1,58,59
 124 -114 124 -114 131 -127 c 0,60,61
 138 -143 138 -143 153 -143 c 0,62,63
 165 -143 165 -143 186 -113 c 1,64,65
 207 -86 207 -86 209 -70 c 2,66,-1
 236 77 l 1,67,68
 174 54 174 54 128 54 c 0,69,70
 94 54 94 54 66 76 c 1,71,72
 41 98 41 98 41 133 c 0,73,74
 40 163 40 163 62 184 c 1,75,76
 83 205 83 205 113 205 c 0,77,78
 141 205 141 205 156 189 c 1,79,80
 171 171 171 171 172 156 c 1,81,82
 174 141 174 141 182 123 c 1,83,84
 191 107 191 107 204 107 c 0,85,86
 214 107 214 107 233 135 c 1,87,88
 252 163 252 163 255 178 c 2,89,-1
 283 326 l 1,90,91
 221 304 221 304 178 304 c 0,92,93
 143 304 143 304 117 326 c 0,94,95
 91 348 91 348 91 383 c 0,96,97
 91 413 91 413 111 434 c 0,98,99
 132 455 132 455 163 455 c 0,100,101
 192 455 192 455 205 439 c 0,102,103
 220 422 220 422 223 406 c 1,104,105
 224 389 224 389 232 373 c 1,106,107
 238 357 238 357 254 357 c 0,108,109
 264 357 264 357 281 385 c 0,110,111
 298 412 298 412 301 425 c 2,112,-1
 329 576 l 1,113,114
 269 554 269 554 229 554 c 0,115,116
 194 554 194 554 168 576 c 1,117,118
 142 597 142 597 142 633 c 0,119,120
 142 663 142 663 162 684 c 0,121,122
 184 705 184 705 214 705 c 0,0,1
EndSplineSet
Validated: 33
EndChar

StartChar: uniE4F4
Encoding: 58612 58612 198
Width: 375
Flags: W
LayerCount: 2
Fore
SplineSet
365 -156 m 2,0,-1
 10 -156 l 2,1,2
 0 -156 0 -156 0 -146 c 2,3,-1
 0 -25 l 1,4,-1
 -131 -25 l 2,5,6
 -141 -25 -141 -25 -148 -18 c 0,7,8
 -156 -11 -156 -11 -156 0 c 128,-1,9
 -156 11 -156 11 -148 18 c 1,10,11
 -142 26 -142 26 -131 25 c 2,12,-1
 506 25 l 2,13,14
 516 25 516 25 523.5 17.5 c 128,-1,15
 531 10 531 10 531 0 c 128,-1,16
 531 -10 531 -10 523.5 -17.5 c 128,-1,17
 516 -25 516 -25 506 -25 c 2,18,-1
 375 -25 l 1,19,-1
 375 -146 l 2,20,21
 375 -156 375 -156 365 -156 c 2,0,-1
EndSplineSet
Validated: 1
EndChar

StartChar: uniE4F5
Encoding: 58613 58613 199
Width: 375
Flags: W
LayerCount: 2
Fore
SplineSet
506 -25 m 2,0,-1
 -131 -25 l 2,1,2
 -141 -25 -141 -25 -148 -18 c 0,3,4
 -156 -11 -156 -11 -156 0 c 128,-1,5
 -156 11 -156 11 -148 18 c 1,6,7
 -142 26 -142 26 -131 25 c 2,8,-1
 0 25 l 1,9,-1
 0 146 l 2,10,11
 0 156 0 156 10 156 c 2,12,-1
 365 156 l 2,13,14
 375 156 375 156 375 146 c 2,15,-1
 375 25 l 1,16,-1
 506 25 l 2,17,18
 516 25 516 25 523.5 17.5 c 128,-1,19
 531 10 531 10 531 0 c 128,-1,20
 531 -10 531 -10 523.5 -17.5 c 128,-1,21
 516 -25 516 -25 506 -25 c 2,0,-1
EndSplineSet
Validated: 1
EndChar

StartChar: uniE4F2
Encoding: 58610 58610 200
Width: 250
Flags: W
LayerCount: 2
Fore
SplineSet
180 205 m 0,0,1
 210 205 210 205 231 184 c 0,2,3
 252 163 252 163 253 133 c 0,4,5
 253 98 253 98 227 76 c 1,6,7
 202 54 202 54 166 54 c 0,8,9
 125 54 125 54 61 76 c 1,10,-1
 178 -250 l 1,11,12
 168 -260 168 -260 150 -260 c 0,13,14
 133 -260 133 -260 123 -250 c 1,15,-1
 0 170 l 1,16,17
 5 180 5 180 14 180 c 1,18,19
 25 178 25 178 28 170 c 0,20,21
 35 156 35 156 56.5 131.5 c 128,-1,22
 78 107 78 107 89 107 c 0,23,24
 103 107 103 107 111 123 c 1,25,26
 119 142 119 142 121 156 c 1,27,28
 122 172 122 172 137 189 c 1,29,30
 152 205 152 205 180 205 c 0,0,1
EndSplineSet
Validated: 1
EndChar

StartChar: uniE047
Encoding: 57415 57415 201
Width: 400
Flags: W
LayerCount: 2
Fore
SplineSet
313.6 340 m 128,-1,1
 313.6 350.4 313.6 350.4 320.4 357.2 c 128,-1,2
 327.2 364 327.2 364 337.6 364 c 128,-1,3
 348 364 348 364 354.8 357.2 c 128,-1,4
 361.6 350.4 361.6 350.4 361.6 340 c 128,-1,5
 361.6 329.6 361.6 329.6 354.8 322.8 c 128,-1,6
 348 316 348 316 337.6 316 c 128,-1,7
 327.2 316 327.2 316 320.4 322.8 c 128,-1,0
 313.6 329.6 313.6 329.6 313.6 340 c 128,-1,1
38.4004 260 m 128,-1,9
 38.4004 270.4 38.4004 270.4 45.2002 277.2 c 128,-1,10
 52 284 52 284 62.4004 284 c 128,-1,11
 72.7998 284 72.7998 284 79.5996 277.2 c 128,-1,12
 86.4004 270.4 86.4004 270.4 86.4004 260 c 128,-1,13
 86.4004 249.6 86.4004 249.6 79.5996 242.8 c 128,-1,14
 72.7998 236 72.7998 236 62.4004 236 c 128,-1,15
 52 236 52 236 45.2002 242.8 c 128,-1,8
 38.4004 249.6 38.4004 249.6 38.4004 260 c 128,-1,9
172 118.4 m 0,16,17
 172 165.6 172 165.6 215.2 165.6 c 0,18,19
 236.8 165.6 236.8 165.6 249.6 150.4 c 0,20,21
 261.6 135.2 261.6 135.2 261.6 116 c 0,22,23
 261.6 99.2002 261.6 99.2002 252.8 84 c 1,24,25
 243.2 70.4004 243.2 70.4004 229.6 64.7998 c 1,26,27
 233.6 47.2002 233.6 47.2002 249.6 36 c 0,28,29
 265.6 24 265.6 24 284.8 24 c 0,30,31
 307.2 24 307.2 24 322.4 42.4004 c 0,32,33
 337.6 59.2002 337.6 59.2002 337.6 84 c 0,34,35
 337.6 180 337.6 180 200 259.2 c 1,36,-1
 48 0 l 1,37,-1
 0 0 l 1,38,-1
 163.2 279.2 l 1,39,40
 88.7998 320 88.7998 320 44 367.2 c 0,41,42
 0 413.6 0 413.6 0 475.2 c 0,43,44
 0 528 0 528 33.5996 564 c 0,45,46
 68 600 68 600 115.2 600 c 0,47,48
 161.6 600 161.6 600 195.2 565.6 c 1,49,50
 228 530.4 228 530.4 228 481.6 c 0,51,52
 228 434.4 228 434.4 184.8 434.4 c 0,53,54
 163.2 434.4 163.2 434.4 150.4 449.6 c 0,55,56
 138.4 464.8 138.4 464.8 138.4 484 c 0,57,58
 138.4 500.8 138.4 500.8 147.2 516 c 1,59,60
 156.8 529.6 156.8 529.6 170.4 535.2 c 1,61,62
 166.4 552.8 166.4 552.8 150.4 564 c 0,63,64
 134.4 576 134.4 576 115.2 576 c 0,65,66
 92.7998 576 92.7998 576 77.5996 557.6 c 0,67,68
 62.4004 540.8 62.4004 540.8 62.4004 516 c 0,69,70
 62.4004 420 62.4004 420 200 340.8 c 1,71,-1
 352 600 l 1,72,-1
 400 600 l 1,73,-1
 236.8 320.8 l 1,74,75
 311.2 280 311.2 280 356 232.8 c 0,76,77
 400 186.4 400 186.4 400 124.8 c 0,78,79
 400 72 400 72 366.4 36 c 0,80,81
 332 0 332 0 284.8 0 c 0,82,83
 238.4 0 238.4 0 204.8 35.2002 c 1,84,85
 172 69.5996 172 69.5996 172 118.4 c 0,16,17
EndSplineSet
Validated: 1
EndChar

StartChar: uniE048
Encoding: 57416 57416 202
Width: 671
Flags: W
LayerCount: 2
Fore
SplineSet
353 -111 m 2,0,1
 353 -120 353 -120 346 -123 c 1,2,3
 343 -129 343 -129 334.5 -129 c 128,-1,4
 326 -129 326 -129 323 -123 c 1,5,6
 317 -120 317 -120 317 -111 c 2,7,-1
 317 0 l 1,8,9
 230 9 230 9 181 94 c 1,10,11
 131 175 131 175 128 293 c 1,12,-1
 19 293 l 2,13,14
 10 293 10 293 6 300 c 1,15,16
 0 303 0 303 0 311.5 c 128,-1,17
 0 320 0 320 6 323 c 1,18,19
 9 329 9 329 19 329 c 2,20,-1
 128 329 l 1,21,22
 131 446 131 446 181 527 c 1,23,24
 228 611 228 611 317 622 c 1,25,-1
 317 732 l 2,26,27
 317 741 317 741 323 744 c 1,28,29
 326 750 326 750 335.5 750 c 128,-1,30
 345 750 345 750 346 744 c 1,31,32
 352 741 352 741 353 732 c 2,33,-1
 353 622 l 1,34,35
 440 613 440 613 488 529 c 1,36,37
 538 448 538 448 541 329 c 1,38,-1
 652 329 l 2,39,40
 661 329 661 329 665 323 c 1,41,42
 671 320 671 320 671 310.5 c 128,-1,43
 671 301 671 301 665 300 c 1,44,45
 662 294 662 294 652 293 c 2,46,-1
 541 293 l 1,47,48
 538 176 538 176 488 94 c 1,49,50
 441 10 441 10 353 0 c 1,51,-1
 353 -111 l 2,0,1
353 329 m 1,52,-1
 451 329 l 1,53,54
 451 382 451 382 446 418 c 0,55,56
 441 459 441 459 435 493 c 0,57,58
 426 532 426 532 406 555 c 0,59,60
 387 577 387 577 353 583 c 1,61,-1
 353 329 l 1,52,-1
353 293 m 1,62,-1
 353 37 l 1,63,64
 387 43 387 43 406 66 c 0,65,66
 426 89 426 89 435 128 c 0,67,68
 443 162 443 162 446 204 c 0,69,70
 449 240 449 240 451 293 c 1,71,-1
 353 293 l 1,62,-1
317 329 m 1,72,-1
 317 583 l 1,73,74
 283 577 283 577 265 555 c 0,75,76
 245 532 245 532 234 493 c 0,77,78
 226 460 226 460 223 418 c 0,79,80
 220 382 220 382 220 329 c 1,81,-1
 317 329 l 1,72,-1
317 293 m 1,82,-1
 220 293 l 1,83,84
 220 240 220 240 223 204 c 0,85,86
 228 163 228 163 234 128 c 0,87,88
 243 89 243 89 265 66 c 0,89,90
 284 44 284 44 317 37 c 1,91,-1
 317 293 l 1,82,-1
EndSplineSet
Validated: 1
EndChar

StartChar: uniE04A
Encoding: 57418 57418 203
Width: 269
Flags: W
LayerCount: 2
Fore
SplineSet
11 64 m 0,0,1
 11 76 11 76 19 83 c 1,2,3
 27 92 27 92 40 92 c 0,4,5
 55 92 55 92 63 82 c 0,6,7
 72 72 72 72 71 60 c 0,8,9
 71 45 71 45 61 36 c 1,10,11
 105 -5 105 -5 163 -6 c 0,12,13
 192 -6 192 -6 214 9 c 0,14,15
 236 23 236 23 235 50 c 0,16,17
 235 85 235 85 185 120 c 2,18,-1
 53 212 l 2,19,20
 29 228 29 228 14 254 c 0,21,22
 -1 278 -1 278 -1 303 c 0,23,24
 -1 324 -1 324 11 341 c 0,25,26
 22 358 22 358 38 368 c 1,27,28
 -1 403 -1 403 -1 447 c 0,29,30
 -1 468 -1 468 11 485 c 0,31,32
 21 502 21 502 38 511 c 1,33,34
 -1 547 -1 547 -1 590 c 0,35,36
 -1 610 -1 610 11 628 c 1,37,38
 22 646 22 646 38 654 c 1,39,40
 2 688 2 688 2 735 c 0,41,42
 2 766 2 766 19 790 c 1,43,44
 34 812 34 812 59 823 c 128,-1,45
 84 834 84 834 113 834 c 0,46,47
 125 834 125 834 134 833 c 0,48,49
 170 829 170 829 201 809 c 0,50,51
 231 790 231 790 253 759 c 1,52,53
 257 752 257 752 257 743 c 0,54,55
 257 731 257 731 249 723 c 1,56,57
 241 714 241 714 229 714 c 0,58,59
 214 714 214 714 205 724 c 128,-1,60
 196 734 196 734 197 746 c 0,61,62
 197 761 197 761 208 771 c 1,63,64
 164 812 164 812 106 812 c 0,65,66
 77 812 77 812 54 797 c 0,67,68
 32 783 32 783 33 757 c 0,69,70
 33 722 33 722 84 687 c 2,71,-1
 216 594 l 2,72,73
 240 578 240 578 254 553 c 0,74,75
 269 529 269 529 269 504 c 0,76,77
 269 483 269 483 258 465 c 0,78,79
 247 448 247 448 231 438 c 1,80,81
 270 403 270 403 269 360 c 0,82,83
 269 339 269 339 258 321 c 0,84,85
 248 304 248 304 231 295 c 1,86,87
 270 259 270 259 269 217 c 0,88,89
 269 197 269 197 258 178 c 1,90,91
 247 160 247 160 231 152 c 1,92,93
 267 118 267 118 266 71 c 0,94,95
 266 40 266 40 249 16 c 1,96,97
 234 -6 234 -6 209 -17 c 128,-1,98
 184 -28 184 -28 155 -28 c 0,99,100
 143 -28 143 -28 134 -27 c 0,101,102
 98 -23 98 -23 67 -2 c 0,103,104
 37 17 37 17 15 47 c 1,105,106
 11 55 11 55 11 64 c 0,0,1
227 457 m 128,-1,108
 237 457 237 457 244 464 c 128,-1,109
 251 471 251 471 252 480 c 0,110,111
 252 491 252 491 240 504 c 0,112,113
 230 516 230 516 217 526 c 0,114,115
 206 535 206 535 185 550 c 2,116,-1
 119 596 l 2,117,118
 98 611 98 611 91 615 c 0,119,120
 83 620 83 620 66 629 c 0,121,122
 52 636 52 636 41 636 c 0,123,124
 31 636 31 636 24 629 c 128,-1,125
 17 622 17 622 17 613 c 0,126,127
 17 603 17 603 29 588 c 0,128,129
 39 576 39 576 51 566 c 0,130,131
 62 557 62 557 84 543 c 2,132,-1
 150 497 l 2,133,134
 162 488 162 488 178 478 c 0,135,136
 186 473 186 473 203 464 c 0,137,107
 217 457 217 457 227 457 c 128,-1,108
227 171 m 128,-1,139
 237 171 237 171 244 177 c 0,140,141
 251 184 251 184 252 194 c 0,142,143
 252 204 252 204 240 218 c 0,144,145
 230 230 230 230 217 240 c 0,146,147
 206 249 206 249 185 264 c 2,148,-1
 119 309 l 2,149,150
 107 318 107 318 91 328 c 0,151,152
 83 333 83 333 66 342 c 0,153,154
 52 349 52 349 41 349 c 0,155,156
 31 349 31 349 24 342 c 128,-1,157
 17 335 17 335 17 326 c 0,158,159
 17 315 17 315 29 302 c 0,160,161
 39 290 39 290 51 280 c 0,162,163
 62 271 62 271 84 257 c 2,164,-1
 150 210 l 2,165,166
 171 195 171 195 178 191 c 0,167,168
 186 186 186 186 203 177 c 0,169,138
 217 171 217 171 227 171 c 128,-1,139
41 492 m 0,170,171
 31 492 31 492 24 486 c 0,172,173
 17 479 17 479 17 469 c 128,-1,174
 17 459 17 459 29 445 c 0,175,176
 39 433 39 433 51 423 c 0,177,178
 62 414 62 414 84 400 c 2,179,-1
 154 350 l 1,180,181
 205 314 205 314 227 314 c 0,182,183
 237 314 237 314 244 320 c 0,184,185
 251 327 251 327 252 337 c 0,186,187
 252 347 252 347 240 361 c 0,188,189
 230 373 230 373 217 383 c 0,190,191
 206 392 206 392 185 407 c 2,192,-1
 114 456 l 1,193,194
 62 492 62 492 41 492 c 0,170,171
EndSplineSet
Validated: 33
EndChar

StartChar: uniE049
Encoding: 57417 57417 204
Width: 619
Flags: W
LayerCount: 2
Fore
SplineSet
326 -102 m 2,0,1
 326 -111 326 -111 320 -113 c 1,2,3
 318 -119 318 -119 309.5 -119 c 128,-1,4
 301 -119 301 -119 299 -113 c 1,5,6
 293 -111 293 -111 293 -102 c 2,7,-1
 293 -1 l 1,8,-1
 128 -1 l 2,9,10
 116 -1 116 -1 118 10 c 2,11,-1
 118 270 l 1,12,-1
 17 270 l 2,13,14
 8 270 8 270 6 276 c 1,15,16
 0 278 0 278 0 286.5 c 128,-1,17
 0 295 0 295 6 298 c 1,18,19
 8 304 8 304 17 304 c 2,20,-1
 118 304 l 1,21,-1
 118 564 l 2,22,23
 118 576 118 576 128 575 c 2,24,-1
 293 575 l 1,25,-1
 293 676 l 2,26,27
 293 685 293 685 299 687 c 1,28,29
 301 693 301 693 309.5 693 c 128,-1,30
 318 693 318 693 320 687 c 1,31,32
 326 685 326 685 326 676 c 2,33,-1
 326 575 l 1,34,-1
 491 575 l 2,35,36
 503 575 503 575 502 564 c 2,37,-1
 502 304 l 1,38,-1
 601 304 l 2,39,40
 610 304 610 304 613 298 c 1,41,42
 619 296 619 296 619 287 c 128,-1,43
 619 278 619 278 613 276 c 1,44,45
 611 270 611 270 601 270 c 2,46,-1
 502 270 l 1,47,-1
 502 10 l 2,48,49
 502 -2 502 -2 491 -1 c 2,50,-1
 411 -1 l 1,51,-1
 326 -1 l 1,52,-1
 326 -102 l 2,0,1
326 304 m 1,53,-1
 401 304 l 1,54,-1
 401 540 l 1,55,-1
 326 540 l 1,56,-1
 326 304 l 1,53,-1
326 270 m 1,57,-1
 326 34 l 1,58,-1
 401 34 l 1,59,-1
 401 270 l 1,60,-1
 326 270 l 1,57,-1
293 304 m 1,61,-1
 293 540 l 1,62,-1
 218 540 l 1,63,-1
 218 304 l 1,64,-1
 293 304 l 1,61,-1
293 270 m 1,65,-1
 218 270 l 1,66,-1
 218 34 l 1,67,-1
 293 34 l 1,68,-1
 293 270 l 1,65,-1
EndSplineSet
Validated: 1
EndChar

StartChar: uniE044
Encoding: 57412 57412 205
Width: 113
Flags: W
LayerCount: 2
Fore
SplineSet
0 125 m 128,-1,1
 0 148 0 148 16.5 165 c 128,-1,2
 33 182 33 182 56.5 182 c 128,-1,3
 80 182 80 182 96.5 165 c 128,-1,4
 113 148 113 148 113 125 c 128,-1,5
 113 102 113 102 96.5 85 c 128,-1,6
 80 68 80 68 56.5 68 c 128,-1,7
 33 68 33 68 16.5 85 c 128,-1,0
 0 102 0 102 0 125 c 128,-1,1
EndSplineSet
Validated: 1
EndChar

StartChar: uniE050
Encoding: 57424 57424 206
Width: 625
Flags: W
LayerCount: 2
Fore
SplineSet
367 256 m 1,0,-1
 373 256 l 1,1,2
 377 257 377 257 380 257 c 0,3,4
 489 257 489 257 560 180 c 0,5,6
 630 104 630 104 630 2 c 0,7,8
 630 -124 630 -124 525 -203 c 0,9,10
 498 -224 498 -224 454 -238 c 1,11,12
 459 -301 459 -301 459 -341 c 0,13,14
 459 -349 459 -349 457 -397 c 0,15,16
 453 -488 453 -488 395 -555 c 0,17,18
 338 -620 338 -620 254 -620 c 0,19,20
 175 -620 175 -620 119 -564 c 0,21,22
 63 -507 63 -507 63 -428 c 0,23,24
 63 -386 63 -386 96 -356 c 1,25,26
 130 -327 130 -327 173 -327 c 0,27,28
 212 -327 212 -327 238 -357 c 1,29,30
 265 -385 265 -385 266 -428 c 0,31,32
 266 -466 266 -466 238.5 -493.5 c 128,-1,33
 211 -521 211 -521 173 -521 c 0,34,35
 157 -521 157 -521 143 -515 c 1,36,37
 186 -578 186 -578 257 -578 c 0,38,39
 324 -578 324 -578 367 -523 c 0,40,41
 412 -466 412 -466 416 -392 c 0,42,43
 418 -345 418 -345 418 -338 c 0,44,45
 418 -283 418 -283 414 -248 c 1,46,47
 365 -256 365 -256 327 -256 c 0,48,49
 191 -256 191 -256 96 -148 c 1,50,51
 2 -40 2 -40 2 109 c 0,52,53
 2 140 2 140 8 173 c 0,54,55
 14 200 14 200 22 230 c 0,56,57
 27 248 27 248 49 287 c 1,58,59
 57 299 57 299 66.5 316.5 c 128,-1,60
 76 334 76 334 80 340 c 0,61,62
 90 360 90 360 118 393 c 0,63,64
 126 402 126 402 134.5 412.5 c 128,-1,65
 143 423 143 423 148.5 430 c 128,-1,66
 154 437 154 437 157 440.5 c 128,-1,67
 160 444 160 444 201 492 c 1,68,69
 211 502 211 502 220 513 c 128,-1,70
 229 524 229 524 235 530.5 c 128,-1,71
 241 537 241 537 244 540 c 1,72,73
 209 656 209 656 200 726 c 0,74,75
 193 782 193 782 193 878 c 0,76,77
 193 963 193 963 232 1037 c 1,78,79
 270 1114 270 1114 339 1163 c 0,80,81
 344 1166 344 1166 349 1166 c 0,82,83
 356 1166 356 1166 358 1163 c 0,84,85
 411 1100 411 1100 449 998 c 0,86,87
 488 896 488 896 488 813 c 0,88,89
 488 719 488 719 443 638 c 1,90,91
 392 551 392 551 312 458 c 1,92,93
 332 394 332 394 367 256 c 1,0,-1
450 -198 m 1,94,95
 501 -179 501 -179 529 -135 c 1,96,97
 560 -92 560 -92 561 -38 c 0,98,99
 561 31 561 31 514 85 c 0,100,101
 466 141 466 141 392 147 c 1,102,103
 433 -58 433 -58 450 -198 c 1,94,95
72 27 m 0,104,105
 72 -70 72 -70 150 -143 c 1,106,107
 230 -214 230 -214 330 -214 c 0,108,109
 371 -214 371 -214 410 -208 c 1,110,111
 394 -60 394 -60 349 147 c 1,112,113
 293 141 293 141 260 108 c 0,114,115
 228 75 228 75 228 31 c 0,116,117
 228 -43 228 -43 307 -89 c 1,118,119
 314 -96 314 -96 313.5 -103.5 c 128,-1,120
 313 -111 313 -111 307 -118 c 0,121,122
 301 -125 301 -125 292 -125 c 0,123,124
 291 -125 291 -125 283 -123 c 1,125,126
 227 -93 227 -93 197 -45 c 1,127,128
 169 6 169 6 169 58 c 0,129,130
 169 125 169 125 211 180 c 1,131,132
 255 235 255 235 325 250 c 1,133,134
 298 359 298 359 280 421 c 1,135,136
 264 403 264 403 242.5 378.5 c 128,-1,137
 221 354 221 354 217 349 c 0,138,139
 182 303 182 303 163 277 c 0,140,141
 130 231 130 231 114 198 c 0,142,143
 97 161 97 161 85 117 c 0,144,145
 72 75 72 75 72 27 c 0,104,105
398 1021 m 1,146,147
 325 985 325 985 283 917 c 0,148,149
 240 848 240 848 240 768 c 0,150,151
 240 698 240 698 275 578 c 1,152,153
 345 663 345 663 381 735 c 0,154,155
 418 811 418 811 418 895 c 0,156,157
 418 958 418 958 398 1021 c 1,146,147
EndSplineSet
Validated: 1
EndChar

